{"glyphs":{"0":{"ha":824,"x_min":31,"x_max":773,"o":"m 31 458 q 83 722 31 617 q 220 881 135 828 q 402 933 305 933 q 585 881 500 933 q 721 722 669 828 q 773 458 773 617 q 721 184 773 288 q 585 31 669 79 q 402 -17 500 -17 q 220 31 305 -17 q 83 184 135 79 q 31 458 31 288 m 236 458 q 281 236 236 308 q 402 164 326 164 q 524 236 479 164 q 568 458 568 308 q 524 676 568 599 q 402 753 479 753 q 281 676 326 753 q 236 458 236 599 z "},"1":{"ha":454,"x_min":17,"x_max":368,"o":"m 164 658 l 17 581 l 17 775 l 272 917 l 368 917 l 368 0 l 164 0 l 164 658 z "},"2":{"ha":790,"x_min":21,"x_max":718,"o":"m 388 760 q 306 738 341 760 q 246 686 270 715 q 210 633 222 657 q 196 605 197 609 l 21 685 q 34 721 22 694 q 72 784 46 749 q 139 854 97 820 q 242 911 181 888 q 388 933 303 933 q 548 906 484 933 q 649 834 612 878 q 702 737 687 789 q 718 637 718 685 q 684 499 718 565 q 600 376 651 433 q 498 277 549 319 q 408 208 446 234 q 363 178 370 183 l 710 178 l 710 0 l 55 0 l 55 163 q 103 197 65 171 q 192 263 140 224 q 299 351 244 303 q 403 449 355 399 q 482 549 452 500 q 513 640 513 598 q 480 732 513 705 q 388 760 447 760 z "},"3":{"ha":746,"x_min":16,"x_max":695,"o":"m 47 735 q 93 818 57 772 q 196 899 130 865 q 360 933 263 933 q 516 901 448 933 q 622 811 583 869 q 660 676 660 753 q 624 556 660 606 q 544 494 588 505 q 613 462 578 489 q 672 390 648 435 q 695 284 695 345 q 651 129 695 197 q 532 22 608 61 q 358 -17 456 -17 q 184 19 256 -17 q 72 107 113 55 q 16 208 30 159 l 203 300 q 231 238 211 270 q 283 183 251 205 q 356 160 315 160 q 456 197 420 160 q 492 290 492 233 q 452 378 492 349 q 356 408 412 408 l 338 408 l 338 553 l 362 553 q 443 583 410 553 q 477 662 477 612 q 447 738 477 707 q 358 769 416 769 q 281 748 311 769 q 233 701 250 728 q 213 656 217 674 l 47 735 z "},"4":{"ha":729,"x_min":6,"x_max":694,"o":"m 588 917 l 588 372 l 694 372 l 694 193 l 588 193 l 588 0 l 383 0 l 383 193 l 6 193 l 6 356 l 353 917 l 588 917 m 383 372 l 383 653 l 382 653 l 211 372 l 383 372 z "},"5":{"ha":749,"x_min":30,"x_max":692,"o":"m 206 256 q 250 187 217 219 q 348 155 283 155 q 449 197 413 155 q 485 306 485 238 q 451 406 485 369 q 357 442 417 442 q 267 415 300 442 q 224 366 233 388 l 53 427 l 135 917 l 649 917 l 649 738 l 307 738 l 278 562 q 321 588 283 569 q 418 606 359 606 q 548 576 485 606 q 651 482 610 546 q 691 317 691 418 q 649 141 692 216 q 530 25 606 66 q 356 -17 453 -17 q 190 14 256 -17 q 85 89 124 44 q 30 178 46 134 l 206 256 z "},"6":{"ha":781,"x_min":38,"x_max":719,"o":"m 430 610 q 568 573 501 610 q 677 468 635 536 q 719 305 719 399 q 674 139 719 211 q 550 25 628 66 q 379 -17 473 -17 q 207 23 285 -17 q 84 136 130 62 q 38 313 38 210 q 74 502 38 426 q 158 636 111 579 l 388 917 l 627 917 l 344 585 q 373 602 352 594 q 430 610 394 610 m 379 151 q 483 194 440 151 q 526 299 526 238 q 483 403 526 360 q 379 447 440 447 q 274 403 317 447 q 231 299 231 360 q 274 194 231 238 q 379 151 317 151 z "},"7":{"ha":756,"x_min":60,"x_max":728,"o":"m 72 917 l 728 917 l 728 779 l 285 0 l 60 0 l 490 738 l 72 738 l 72 917 z "},"8":{"ha":778,"x_min":46,"x_max":714,"o":"m 381 -17 q 215 18 291 -17 q 92 114 138 53 q 46 255 46 176 q 93 407 46 351 q 208 494 140 463 q 120 568 156 524 q 85 693 85 613 q 125 820 85 767 q 232 904 165 874 q 379 933 299 933 q 528 904 462 933 q 632 820 594 874 q 671 693 671 767 q 636 569 671 613 q 551 494 602 524 q 666 407 619 463 q 714 255 714 351 q 668 114 714 176 q 546 18 622 53 q 381 -17 470 -17 m 381 559 q 456 591 424 559 q 488 667 488 622 q 456 743 488 711 q 381 775 424 775 q 304 743 335 775 q 272 667 272 711 q 304 591 272 622 q 381 559 335 559 m 379 162 q 465 197 430 162 q 501 281 501 231 q 465 366 501 331 q 379 401 430 401 q 294 366 329 401 q 258 281 258 331 q 294 197 258 231 q 379 162 329 162 z "},"9":{"ha":781,"x_min":33,"x_max":715,"o":"m 323 306 q 185 343 251 306 q 76 449 118 381 q 33 612 33 517 q 79 778 33 706 q 202 892 125 851 q 374 933 280 933 q 545 894 468 933 q 669 781 623 855 q 715 604 715 707 q 678 414 715 491 q 594 281 642 338 l 365 0 l 126 0 l 409 331 q 380 315 401 323 q 323 306 358 306 m 374 766 q 269 723 313 766 q 226 618 226 679 q 269 514 226 557 q 374 470 313 470 q 479 514 435 470 q 522 618 522 557 q 479 723 522 679 q 374 766 435 766 z "},"A":{"ha":935,"x_min":-7,"x_max":919,"o":"m 355 917 l 558 917 l 919 0 l 701 0 l 634 185 l 281 185 l 212 0 l -7 0 l 355 917 m 348 365 l 566 365 l 458 670 l 456 670 l 348 365 z "},"Á":{"ha":935,"x_min":-7,"x_max":919,"o":"m 355 917 l 558 917 l 919 0 l 701 0 l 634 185 l 281 185 l 212 0 l -7 0 l 355 917 m 348 365 l 566 365 l 458 670 l 456 670 l 348 365 m 398 956 l 336 1040 l 563 1234 l 661 1109 l 398 956 z "},"Ă":{"ha":935,"x_min":-7,"x_max":919,"o":"m 355 917 l 558 917 l 919 0 l 701 0 l 634 185 l 281 185 l 212 0 l -7 0 l 355 917 m 348 365 l 566 365 l 458 670 l 456 670 l 348 365 m 683 1138 q 614 1011 674 1062 q 457 960 553 960 q 301 1010 362 960 q 231 1138 240 1059 l 352 1167 q 381 1100 356 1135 q 457 1065 406 1065 q 532 1100 507 1065 q 561 1167 558 1135 l 683 1138 z "},"Ắ":{"ha":935,"x_min":-7,"x_max":919,"o":"m 355 917 l 558 917 l 919 0 l 701 0 l 634 185 l 281 185 l 212 0 l -7 0 l 355 917 m 348 365 l 566 365 l 458 670 l 456 670 l 348 365 m 683 1138 q 614 1011 674 1062 q 457 960 553 960 q 301 1010 362 960 q 231 1138 240 1059 l 352 1167 q 381 1100 356 1135 q 457 1065 406 1065 q 532 1100 507 1065 q 561 1167 558 1135 l 683 1138 m 398 1206 l 336 1290 l 563 1485 l 661 1360 l 398 1206 z "},"Ặ":{"ha":935,"x_min":-7,"x_max":919,"o":"m 355 917 l 558 917 l 919 0 l 701 0 l 634 185 l 281 185 l 212 0 l -7 0 l 355 917 m 348 365 l 566 365 l 458 670 l 456 670 l 348 365 m 456 -61 q 512 -85 489 -61 q 535 -142 535 -108 q 512 -198 535 -174 q 456 -221 489 -221 q 400 -197 424 -221 q 377 -142 377 -174 q 400 -85 377 -109 q 456 -61 424 -61 m 683 1138 q 614 1011 674 1062 q 457 960 553 960 q 301 1010 362 960 q 231 1138 240 1059 l 352 1167 q 381 1100 356 1135 q 457 1065 406 1065 q 532 1100 507 1065 q 561 1167 558 1135 l 683 1138 z "},"Ằ":{"ha":935,"x_min":-7,"x_max":919,"o":"m 355 917 l 558 917 l 919 0 l 701 0 l 634 185 l 281 185 l 212 0 l -7 0 l 355 917 m 348 365 l 566 365 l 458 670 l 456 670 l 348 365 m 683 1138 q 614 1011 674 1062 q 457 960 553 960 q 301 1010 362 960 q 231 1138 240 1059 l 352 1167 q 381 1100 356 1135 q 457 1065 406 1065 q 532 1100 507 1065 q 561 1167 558 1135 l 683 1138 m 502 1206 l 239 1360 l 338 1485 l 564 1290 l 502 1206 z "},"Ẳ":{"ha":935,"x_min":-7,"x_max":919,"o":"m 355 917 l 558 917 l 919 0 l 701 0 l 634 185 l 281 185 l 212 0 l -7 0 l 355 917 m 348 365 l 566 365 l 458 670 l 456 670 l 348 365 m 683 1138 q 614 1011 674 1062 q 457 960 553 960 q 301 1010 362 960 q 231 1138 240 1059 l 352 1167 q 381 1100 356 1135 q 457 1065 406 1065 q 532 1100 507 1065 q 561 1167 558 1135 l 683 1138 m 384 1283 q 424 1297 399 1286 q 469 1325 449 1308 q 488 1364 488 1342 q 465 1406 488 1398 q 411 1414 442 1414 q 350 1404 381 1414 q 299 1385 319 1394 l 299 1476 q 343 1494 311 1483 q 438 1506 376 1506 q 522 1493 482 1506 q 588 1453 563 1481 q 614 1378 614 1426 q 594 1314 614 1341 q 545 1266 574 1286 q 485 1234 515 1247 q 434 1216 455 1222 l 384 1283 z "},"Ẵ":{"ha":935,"x_min":-7,"x_max":919,"o":"m 355 917 l 558 917 l 919 0 l 701 0 l 634 185 l 281 185 l 212 0 l -7 0 l 355 917 m 348 365 l 566 365 l 458 670 l 456 670 l 348 365 m 683 1138 q 614 1011 674 1062 q 457 960 553 960 q 301 1010 362 960 q 231 1138 240 1059 l 352 1167 q 381 1100 356 1135 q 457 1065 406 1065 q 532 1100 507 1065 q 561 1167 558 1135 l 683 1138 m 362 1281 q 330 1263 342 1281 q 312 1229 317 1246 l 201 1229 q 226 1313 207 1269 q 276 1387 244 1357 q 351 1417 308 1417 q 428 1405 395 1417 q 490 1379 461 1392 q 550 1366 519 1366 q 583 1384 570 1366 q 601 1417 596 1401 l 712 1417 q 687 1333 706 1377 q 637 1259 668 1290 q 561 1229 606 1229 q 484 1242 517 1229 q 422 1268 451 1255 q 362 1281 393 1281 z "},"Â":{"ha":935,"x_min":-7,"x_max":919,"o":"m 355 917 l 558 917 l 919 0 l 701 0 l 634 185 l 281 185 l 212 0 l -7 0 l 355 917 m 348 365 l 566 365 l 458 670 l 456 670 l 348 365 m 288 971 l 213 1069 l 457 1248 l 700 1069 l 626 970 l 457 1094 l 288 971 z "},"Ấ":{"ha":935,"x_min":-7,"x_max":919,"o":"m 355 917 l 558 917 l 919 0 l 701 0 l 634 185 l 281 185 l 212 0 l -7 0 l 355 917 m 348 365 l 566 365 l 458 670 l 456 670 l 348 365 z "},"Ậ":{"ha":935,"x_min":-7,"x_max":919,"o":"m 355 917 l 558 917 l 919 0 l 701 0 l 634 185 l 281 185 l 212 0 l -7 0 l 355 917 m 348 365 l 566 365 l 458 670 l 456 670 l 348 365 m 456 -61 q 512 -85 489 -61 q 535 -142 535 -108 q 512 -198 535 -174 q 456 -221 489 -221 q 400 -197 424 -221 q 377 -142 377 -174 q 400 -85 377 -109 q 456 -61 424 -61 m 288 971 l 213 1069 l 457 1248 l 700 1069 l 626 970 l 457 1094 l 288 971 z "},"Ầ":{"ha":935,"x_min":-7,"x_max":919,"o":"m 355 917 l 558 917 l 919 0 l 701 0 l 634 185 l 281 185 l 212 0 l -7 0 l 355 917 m 348 365 l 566 365 l 458 670 l 456 670 l 348 365 z "},"Ẩ":{"ha":935,"x_min":-7,"x_max":919,"o":"m 355 917 l 558 917 l 919 0 l 701 0 l 634 185 l 281 185 l 212 0 l -7 0 l 355 917 m 348 365 l 566 365 l 458 670 l 456 670 l 348 365 z "},"Ẫ":{"ha":935,"x_min":-7,"x_max":919,"o":"m 355 917 l 558 917 l 919 0 l 701 0 l 634 185 l 281 185 l 212 0 l -7 0 l 355 917 m 348 365 l 566 365 l 458 670 l 456 670 l 348 365 z "},"Ȁ":{"ha":935,"x_min":-7,"x_max":919,"o":"m 355 917 l 558 917 l 919 0 l 701 0 l 634 185 l 281 185 l 212 0 l -7 0 l 355 917 m 348 365 l 566 365 l 458 670 l 456 670 l 348 365 m 704 956 l 441 1109 l 540 1234 l 766 1040 l 704 956 m 411 956 l 148 1109 l 247 1234 l 473 1040 l 411 956 z "},"Ä":{"ha":935,"x_min":-7,"x_max":919,"o":"m 355 917 l 558 917 l 919 0 l 701 0 l 634 185 l 281 185 l 212 0 l -7 0 l 355 917 m 348 365 l 566 365 l 458 670 l 456 670 l 348 365 m 317 1175 q 389 1145 359 1175 q 418 1074 418 1115 q 389 1002 418 1032 q 317 972 359 972 q 246 1002 275 972 q 217 1074 217 1032 q 246 1145 217 1115 q 317 1175 275 1175 m 597 1175 q 667 1145 638 1175 q 697 1074 697 1115 q 667 1002 697 1032 q 597 972 638 972 q 525 1002 554 972 q 496 1074 496 1032 q 525 1145 496 1115 q 597 1175 554 1175 z "},"Ạ":{"ha":935,"x_min":-7,"x_max":919,"o":"m 355 917 l 558 917 l 919 0 l 701 0 l 634 185 l 281 185 l 212 0 l -7 0 l 355 917 m 348 365 l 566 365 l 458 670 l 456 670 l 348 365 m 456 -61 q 512 -85 489 -61 q 535 -142 535 -108 q 512 -198 535 -174 q 456 -221 489 -221 q 400 -197 424 -221 q 377 -142 377 -174 q 400 -85 377 -109 q 456 -61 424 -61 z "},"À":{"ha":935,"x_min":-7,"x_max":919,"o":"m 355 917 l 558 917 l 919 0 l 701 0 l 634 185 l 281 185 l 212 0 l -7 0 l 355 917 m 348 365 l 566 365 l 458 670 l 456 670 l 348 365 m 502 956 l 239 1109 l 338 1234 l 564 1040 l 502 956 z "},"Ả":{"ha":935,"x_min":-7,"x_max":919,"o":"m 355 917 l 558 917 l 919 0 l 701 0 l 634 185 l 281 185 l 212 0 l -7 0 l 355 917 m 348 365 l 566 365 l 458 670 l 456 670 l 348 365 m 384 1032 q 424 1047 399 1035 q 469 1075 449 1058 q 488 1113 488 1092 q 465 1155 488 1147 q 411 1163 442 1163 q 350 1153 381 1163 q 299 1135 319 1144 l 299 1225 q 343 1244 311 1233 q 438 1255 376 1255 q 522 1243 482 1255 q 588 1203 563 1231 q 614 1127 614 1175 q 594 1063 614 1090 q 545 1016 574 1035 q 485 984 515 996 q 434 965 455 972 l 384 1032 z "},"Ȃ":{"ha":935,"x_min":-7,"x_max":919,"o":"m 355 917 l 558 917 l 919 0 l 701 0 l 634 185 l 281 185 l 212 0 l -7 0 l 355 917 m 348 365 l 566 365 l 458 670 l 456 670 l 348 365 m 232 994 q 300 1120 240 1069 q 456 1170 360 1170 q 611 1121 550 1170 q 681 994 672 1072 l 560 965 q 531 1032 556 997 q 456 1066 506 1066 q 381 1032 406 1066 q 352 965 356 997 l 232 994 z "},"Ā":{"ha":935,"x_min":-7,"x_max":919,"o":"m 355 917 l 558 917 l 919 0 l 701 0 l 634 185 l 281 185 l 212 0 l -7 0 l 355 917 m 348 365 l 566 365 l 458 670 l 456 670 l 348 365 m 231 1005 l 231 1135 l 682 1135 l 682 1005 l 231 1005 z "},"Ą":{"ha":938,"x_min":-7,"x_max":919,"o":"m 355 917 l 558 917 l 919 0 l 701 0 l 634 185 l 281 185 l 212 0 l -7 0 l 355 917 m 348 365 l 566 365 l 458 670 l 456 670 l 348 365 m 737 -302 q 675 -290 708 -302 q 621 -251 643 -278 q 599 -175 599 -224 q 617 -105 599 -143 q 663 -32 635 -67 q 715 28 690 3 l 776 0 q 731 -70 754 -26 q 708 -157 708 -114 q 723 -189 708 -178 q 753 -200 738 -200 q 789 -189 773 -200 q 811 -167 804 -178 l 889 -226 q 832 -277 873 -251 q 737 -302 790 -302 z "},"Å":{"ha":935,"x_min":-7,"x_max":919,"o":"m 355 917 l 558 917 l 919 0 l 701 0 l 634 185 l 281 185 l 212 0 l -7 0 l 355 917 m 348 365 l 566 365 l 458 670 l 456 670 l 348 365 m 300 1083 q 345 1183 300 1144 q 457 1222 391 1222 q 568 1183 523 1222 q 613 1083 613 1144 q 569 983 613 1022 q 457 944 525 944 q 343 983 386 944 q 300 1083 300 1022 m 405 1083 q 420 1043 405 1058 q 457 1028 435 1028 q 493 1044 478 1028 q 508 1083 508 1059 q 493 1122 508 1108 q 457 1136 478 1136 q 420 1122 435 1136 q 405 1083 405 1108 z "},"Ǻ":{"ha":935,"x_min":-7,"x_max":919,"o":"m 355 917 l 558 917 l 919 0 l 701 0 l 634 185 l 281 185 l 212 0 l -7 0 l 355 917 m 348 365 l 566 365 l 458 670 l 456 670 l 348 365 m 300 1083 q 345 1183 300 1144 q 457 1222 391 1222 q 568 1183 523 1222 q 613 1083 613 1144 q 569 983 613 1022 q 457 944 525 944 q 343 983 386 944 q 300 1083 300 1022 m 405 1083 q 420 1043 405 1058 q 457 1028 435 1028 q 493 1044 478 1028 q 508 1083 508 1059 q 493 1122 508 1108 q 457 1136 478 1136 q 420 1122 435 1136 q 405 1083 405 1108 m 398 1261 l 336 1345 l 563 1540 l 661 1415 l 398 1261 z "},"Ã":{"ha":935,"x_min":-7,"x_max":919,"o":"m 355 917 l 558 917 l 919 0 l 701 0 l 634 185 l 281 185 l 212 0 l -7 0 l 355 917 m 348 365 l 566 365 l 458 670 l 456 670 l 348 365 m 362 1030 q 330 1013 342 1030 q 312 978 317 995 l 201 978 q 226 1063 207 1019 q 276 1136 244 1106 q 351 1167 308 1167 q 428 1154 395 1167 q 490 1128 461 1141 q 550 1115 519 1115 q 583 1133 570 1115 q 601 1167 596 1151 l 712 1167 q 687 1083 706 1126 q 637 1009 668 1039 q 561 978 606 978 q 484 991 517 978 q 422 1017 451 1004 q 362 1030 393 1030 z "},"Æ":{"ha":1192,"x_min":-12,"x_max":1131,"o":"m 483 917 l 1131 917 l 1131 738 l 751 738 l 751 547 l 1127 547 l 1127 372 l 751 372 l 751 179 l 1131 179 l 1131 0 l 547 0 l 547 185 l 308 185 l 210 0 l -12 0 l 483 917 m 385 341 l 547 341 l 547 632 l 385 341 z "},"Ǽ":{"ha":1192,"x_min":-12,"x_max":1131,"o":"m 483 917 l 1131 917 l 1131 738 l 751 738 l 751 547 l 1127 547 l 1127 372 l 751 372 l 751 179 l 1131 179 l 1131 0 l 547 0 l 547 185 l 308 185 l 210 0 l -12 0 l 483 917 m 385 341 l 547 341 l 547 632 l 385 341 z "},"B":{"ha":775,"x_min":64,"x_max":709,"o":"m 64 917 l 376 917 q 522 895 454 917 q 630 825 589 874 q 671 692 671 776 q 626 555 671 610 q 524 488 581 500 q 612 456 569 482 q 682 382 655 431 q 709 260 709 334 q 633 72 709 144 q 414 0 556 0 l 64 0 l 64 917 m 268 549 l 355 549 q 439 578 410 549 q 468 656 468 608 q 435 733 468 713 q 347 753 403 753 l 268 753 l 268 549 m 268 164 l 365 164 q 464 194 433 164 q 494 278 494 225 q 459 361 494 335 q 362 388 424 388 l 268 388 l 268 164 z "},"C":{"ha":894,"x_min":37,"x_max":826,"o":"m 542 186 q 659 205 606 186 q 738 242 713 224 l 826 68 q 715 12 793 40 q 528 -17 636 -17 q 338 19 426 -17 q 181 119 249 55 q 75 269 113 183 q 37 457 37 356 q 75 645 37 558 q 181 797 113 732 q 337 897 248 861 q 528 933 426 933 q 715 905 636 933 q 826 849 793 876 l 738 675 q 659 712 713 693 q 542 731 606 731 q 385 692 448 731 q 290 592 322 654 q 258 459 258 530 q 290 325 258 388 q 385 224 322 263 q 542 186 448 186 z "},"Ć":{"ha":894,"x_min":37,"x_max":826,"o":"m 542 186 q 659 205 606 186 q 738 242 713 224 l 826 68 q 715 12 793 40 q 528 -17 636 -17 q 338 19 426 -17 q 181 119 249 55 q 75 269 113 183 q 37 457 37 356 q 75 645 37 558 q 181 797 113 732 q 337 897 248 861 q 528 933 426 933 q 715 905 636 933 q 826 849 793 876 l 738 675 q 659 712 713 693 q 542 731 606 731 q 385 692 448 731 q 290 592 322 654 q 258 459 258 530 q 290 325 258 388 q 385 224 322 263 q 542 186 448 186 m 436 956 l 374 1040 l 601 1234 l 699 1109 l 436 956 z "},"Č":{"ha":894,"x_min":37,"x_max":826,"o":"m 542 186 q 659 205 606 186 q 738 242 713 224 l 826 68 q 715 12 793 40 q 528 -17 636 -17 q 338 19 426 -17 q 181 119 249 55 q 75 269 113 183 q 37 457 37 356 q 75 645 37 558 q 181 797 113 732 q 337 897 248 861 q 528 933 426 933 q 715 905 636 933 q 826 849 793 876 l 738 675 q 659 712 713 693 q 542 731 606 731 q 385 692 448 731 q 290 592 322 654 q 258 459 258 530 q 290 325 258 388 q 385 224 322 263 q 542 186 448 186 m 283 1103 l 349 1189 l 497 1081 l 644 1189 l 708 1102 l 497 947 l 283 1103 z "},"Ç":{"ha":894,"x_min":37,"x_max":826,"o":"m 542 186 q 659 205 606 186 q 738 242 713 224 l 826 68 q 715 12 793 40 q 528 -17 636 -17 q 338 19 426 -17 q 181 119 249 55 q 75 269 113 183 q 37 457 37 356 q 75 645 37 558 q 181 797 113 732 q 337 897 248 861 q 528 933 426 933 q 715 905 636 933 q 826 849 793 876 l 738 675 q 659 712 713 693 q 542 731 606 731 q 385 692 448 731 q 290 592 322 654 q 258 459 258 530 q 290 325 258 388 q 385 224 322 263 q 542 186 448 186 m 497 29 l 569 4 l 544 -59 q 649 -82 602 -55 q 697 -165 697 -110 q 648 -265 697 -228 q 535 -301 600 -301 q 424 -281 469 -301 q 362 -242 379 -260 l 431 -165 q 467 -192 443 -178 q 518 -207 491 -207 q 558 -195 543 -207 q 574 -164 574 -183 q 555 -129 574 -140 q 510 -117 536 -117 q 474 -120 489 -117 q 454 -127 459 -124 l 443 -119 l 497 29 z "},"Ĉ":{"ha":894,"x_min":37,"x_max":826,"o":"m 542 186 q 659 205 606 186 q 738 242 713 224 l 826 68 q 715 12 793 40 q 528 -17 636 -17 q 338 19 426 -17 q 181 119 249 55 q 75 269 113 183 q 37 457 37 356 q 75 645 37 558 q 181 797 113 732 q 337 897 248 861 q 528 933 426 933 q 715 905 636 933 q 826 849 793 876 l 738 675 q 659 712 713 693 q 542 731 606 731 q 385 692 448 731 q 290 592 322 654 q 258 459 258 530 q 290 325 258 388 q 385 224 322 263 q 542 186 448 186 m 326 971 l 252 1069 l 496 1248 l 739 1069 l 665 970 l 496 1094 l 326 971 z "},"Ċ":{"ha":894,"x_min":37,"x_max":826,"o":"m 542 186 q 659 205 606 186 q 738 242 713 224 l 826 68 q 715 12 793 40 q 528 -17 636 -17 q 338 19 426 -17 q 181 119 249 55 q 75 269 113 183 q 37 457 37 356 q 75 645 37 558 q 181 797 113 732 q 337 897 248 861 q 528 933 426 933 q 715 905 636 933 q 826 849 793 876 l 738 675 q 659 712 713 693 q 542 731 606 731 q 385 692 448 731 q 290 592 322 654 q 258 459 258 530 q 290 325 258 388 q 385 224 322 263 q 542 186 448 186 m 495 1173 q 566 1143 537 1173 q 596 1072 596 1113 q 566 1000 596 1030 q 495 971 537 971 q 424 1000 453 971 q 394 1072 394 1030 q 424 1143 394 1113 q 495 1173 453 1173 z "},"D":{"ha":833,"x_min":60,"x_max":769,"o":"m 60 917 l 334 917 q 576 858 480 917 q 721 696 673 799 q 769 459 769 592 q 721 222 769 325 q 577 59 673 118 q 334 0 481 0 l 60 0 l 60 917 m 264 735 l 264 182 l 315 182 q 447 218 394 182 q 525 316 499 254 q 551 458 551 378 q 526 599 551 537 q 448 698 500 662 q 315 735 395 735 l 264 735 z "},"Ǆ":{"ha":1706,"x_min":60,"x_max":1655,"o":"m 60 917 l 334 917 q 576 858 480 917 q 721 696 673 799 q 769 459 769 592 q 721 222 769 325 q 577 59 673 118 q 334 0 481 0 l 60 0 l 60 917 m 264 735 l 264 182 l 315 182 q 447 218 394 182 q 525 316 499 254 q 551 458 551 378 q 526 599 551 537 q 448 698 500 662 q 315 735 395 735 l 264 735 m 905 917 l 1655 917 l 1198 179 l 1625 179 l 1625 0 l 840 0 l 1297 738 l 905 738 l 905 917 z "},"Ð":{"ha":833,"x_min":-12,"x_max":769,"o":"z "},"Ď":{"ha":833,"x_min":60,"x_max":769,"o":"m 60 917 l 334 917 q 576 858 480 917 q 721 696 673 799 q 769 459 769 592 q 721 222 769 325 q 577 59 673 118 q 334 0 481 0 l 60 0 l 60 917 m 264 735 l 264 182 l 315 182 q 447 218 394 182 q 525 316 499 254 q 551 458 551 378 q 526 599 551 537 q 448 698 500 662 q 315 735 395 735 l 264 735 m 180 1103 l 245 1189 l 393 1081 l 540 1189 l 605 1102 l 393 947 l 180 1103 z "},"Đ":{"ha":833,"x_min":-12,"x_max":769,"o":"m 60 917 l 334 917 q 576 858 480 917 q 721 696 673 799 q 769 459 769 592 q 721 222 769 325 q 577 59 673 118 q 334 0 481 0 l 60 0 l 60 917 m 264 735 l 264 182 l 315 182 q 447 218 394 182 q 525 316 499 254 q 551 458 551 378 q 526 599 551 537 q 448 698 500 662 q 315 735 395 735 l 264 735 m -12 367 l -12 544 l 396 544 l 396 367 l -12 367 z "},"ǅ":{"ha":1456,"x_min":60,"x_max":1438,"o":"m 60 917 l 334 917 q 576 858 480 917 q 721 696 673 799 q 769 459 769 592 q 721 222 769 325 q 577 59 673 118 q 334 0 481 0 l 60 0 l 60 917 m 264 735 l 264 182 l 315 182 q 447 218 394 182 q 525 316 499 254 q 551 458 551 378 q 526 599 551 537 q 448 698 500 662 q 315 735 395 735 l 264 735 m 876 570 l 1438 570 l 1152 145 l 1416 145 l 1416 0 l 830 0 l 1117 426 l 876 426 l 876 570 z "},"E":{"ha":742,"x_min":58,"x_max":642,"o":"m 58 917 l 642 917 l 642 738 l 263 738 l 263 547 l 638 547 l 638 372 l 263 372 l 263 179 l 642 179 l 642 0 l 58 0 l 58 917 z "},"É":{"ha":742,"x_min":58,"x_max":642,"o":"m 58 917 l 642 917 l 642 738 l 263 738 l 263 547 l 638 547 l 638 372 l 263 372 l 263 179 l 642 179 l 642 0 l 58 0 l 58 917 m 276 956 l 214 1040 l 440 1234 l 539 1109 l 276 956 z "},"Ĕ":{"ha":742,"x_min":58,"x_max":642,"o":"m 58 917 l 642 917 l 642 738 l 263 738 l 263 547 l 638 547 l 638 372 l 263 372 l 263 179 l 642 179 l 642 0 l 58 0 l 58 917 m 560 1138 q 492 1011 552 1062 q 335 960 431 960 q 178 1010 240 960 q 108 1138 117 1059 l 230 1167 q 259 1100 234 1135 q 335 1065 284 1065 q 410 1100 385 1065 q 439 1167 435 1135 l 560 1138 z "},"Ě":{"ha":742,"x_min":58,"x_max":642,"o":"m 58 917 l 642 917 l 642 738 l 263 738 l 263 547 l 638 547 l 638 372 l 263 372 l 263 179 l 642 179 l 642 0 l 58 0 l 58 917 m 122 1103 l 188 1189 l 335 1081 l 483 1189 l 547 1102 l 335 947 l 122 1103 z "},"Ê":{"ha":742,"x_min":58,"x_max":642,"o":"m 58 917 l 642 917 l 642 738 l 263 738 l 263 547 l 638 547 l 638 372 l 263 372 l 263 179 l 642 179 l 642 0 l 58 0 l 58 917 m 165 971 l 91 1069 l 335 1248 l 578 1069 l 503 970 l 335 1094 l 165 971 z "},"Ế":{"ha":742,"x_min":58,"x_max":774,"o":"m 58 917 l 642 917 l 642 738 l 263 738 l 263 547 l 638 547 l 638 372 l 263 372 l 263 179 l 642 179 l 642 0 l 58 0 l 58 917 z "},"Ệ":{"ha":742,"x_min":58,"x_max":642,"o":"m 58 917 l 642 917 l 642 738 l 263 738 l 263 547 l 638 547 l 638 372 l 263 372 l 263 179 l 642 179 l 642 0 l 58 0 l 58 917 m 323 -61 q 379 -85 356 -61 q 402 -142 402 -108 q 379 -198 402 -174 q 323 -221 356 -221 q 267 -197 290 -221 q 244 -142 244 -174 q 267 -85 244 -109 q 323 -61 290 -61 m 165 971 l 91 1069 l 335 1248 l 578 1069 l 503 970 l 335 1094 l 165 971 z "},"Ề":{"ha":742,"x_min":58,"x_max":683,"o":"m 58 917 l 642 917 l 642 738 l 263 738 l 263 547 l 638 547 l 638 372 l 263 372 l 263 179 l 642 179 l 642 0 l 58 0 l 58 917 z "},"Ể":{"ha":742,"x_min":58,"x_max":653,"o":"m 58 917 l 642 917 l 642 738 l 263 738 l 263 547 l 638 547 l 638 372 l 263 372 l 263 179 l 642 179 l 642 0 l 58 0 l 58 917 z "},"Ễ":{"ha":742,"x_min":58,"x_max":642,"o":"m 58 917 l 642 917 l 642 738 l 263 738 l 263 547 l 638 547 l 638 372 l 263 372 l 263 179 l 642 179 l 642 0 l 58 0 l 58 917 z "},"Ȅ":{"ha":742,"x_min":26,"x_max":644,"o":"m 58 917 l 642 917 l 642 738 l 263 738 l 263 547 l 638 547 l 638 372 l 263 372 l 263 179 l 642 179 l 642 0 l 58 0 l 58 917 m 582 956 l 319 1109 l 417 1234 l 644 1040 l 582 956 m 289 956 l 26 1109 l 125 1234 l 351 1040 l 289 956 z "},"Ë":{"ha":742,"x_min":58,"x_max":642,"o":"m 58 917 l 642 917 l 642 738 l 263 738 l 263 547 l 638 547 l 638 372 l 263 372 l 263 179 l 642 179 l 642 0 l 58 0 l 58 917 m 195 1175 q 266 1145 237 1175 q 296 1074 296 1115 q 266 1002 296 1032 q 195 972 237 972 q 124 1002 153 972 q 94 1074 94 1032 q 124 1145 94 1115 q 195 1175 153 1175 m 474 1175 q 545 1145 516 1175 q 574 1074 574 1115 q 545 1002 574 1032 q 474 972 516 972 q 403 1002 432 972 q 374 1074 374 1032 q 403 1145 374 1115 q 474 1175 432 1175 z "},"Ė":{"ha":742,"x_min":58,"x_max":642,"o":"m 58 917 l 642 917 l 642 738 l 263 738 l 263 547 l 638 547 l 638 372 l 263 372 l 263 179 l 642 179 l 642 0 l 58 0 l 58 917 m 334 1173 q 405 1143 376 1173 q 435 1072 435 1113 q 405 1000 435 1030 q 334 971 376 971 q 263 1000 292 971 q 233 1072 233 1030 q 263 1143 233 1113 q 334 1173 292 1173 z "},"Ẹ":{"ha":742,"x_min":58,"x_max":642,"o":"m 58 917 l 642 917 l 642 738 l 263 738 l 263 547 l 638 547 l 638 372 l 263 372 l 263 179 l 642 179 l 642 0 l 58 0 l 58 917 m 323 -61 q 379 -85 356 -61 q 402 -142 402 -108 q 379 -198 402 -174 q 323 -221 356 -221 q 267 -197 290 -221 q 244 -142 244 -174 q 267 -85 244 -109 q 323 -61 290 -61 z "},"È":{"ha":742,"x_min":58,"x_max":642,"o":"m 58 917 l 642 917 l 642 738 l 263 738 l 263 547 l 638 547 l 638 372 l 263 372 l 263 179 l 642 179 l 642 0 l 58 0 l 58 917 m 380 956 l 117 1109 l 216 1234 l 442 1040 l 380 956 z "},"Ẻ":{"ha":742,"x_min":58,"x_max":642,"o":"m 58 917 l 642 917 l 642 738 l 263 738 l 263 547 l 638 547 l 638 372 l 263 372 l 263 179 l 642 179 l 642 0 l 58 0 l 58 917 m 262 1032 q 302 1047 277 1035 q 347 1075 327 1058 q 366 1113 366 1092 q 343 1155 366 1147 q 289 1163 320 1163 q 228 1153 258 1163 q 176 1135 197 1144 l 176 1225 q 221 1244 189 1233 q 315 1255 253 1255 q 400 1243 360 1255 q 466 1203 440 1231 q 492 1127 492 1175 q 472 1063 492 1090 q 423 1016 452 1035 q 363 984 393 996 q 312 965 333 972 l 262 1032 z "},"Ȇ":{"ha":742,"x_min":58,"x_max":642,"o":"m 58 917 l 642 917 l 642 738 l 263 738 l 263 547 l 638 547 l 638 372 l 263 372 l 263 179 l 642 179 l 642 0 l 58 0 l 58 917 m 110 994 q 178 1120 119 1069 q 335 1170 238 1170 q 490 1121 428 1170 q 559 994 551 1072 l 438 965 q 410 1032 435 997 q 335 1066 385 1066 q 259 1032 285 1066 q 231 965 234 997 l 110 994 z "},"Ē":{"ha":742,"x_min":58,"x_max":642,"o":"m 58 917 l 642 917 l 642 738 l 263 738 l 263 547 l 638 547 l 638 372 l 263 372 l 263 179 l 642 179 l 642 0 l 58 0 l 58 917 m 109 1005 l 109 1135 l 560 1135 l 560 1005 l 109 1005 z "},"Ę":{"ha":742,"x_min":58,"x_max":642,"o":"m 58 917 l 642 917 l 642 738 l 263 738 l 263 547 l 638 547 l 638 372 l 263 372 l 263 179 l 642 179 l 642 0 l 58 0 l 58 917 m 447 -319 q 385 -308 417 -319 q 331 -268 353 -296 q 308 -192 308 -241 q 327 -123 308 -160 q 372 -49 345 -85 q 424 11 399 -14 l 485 -17 q 441 -87 464 -43 q 418 -174 418 -131 q 433 -206 418 -195 q 463 -217 447 -217 q 498 -206 483 -217 q 521 -185 514 -195 l 599 -243 q 541 -294 583 -269 q 447 -319 500 -319 z "},"Ẽ":{"ha":742,"x_min":58,"x_max":642,"o":"m 58 917 l 642 917 l 642 738 l 263 738 l 263 547 l 638 547 l 638 372 l 263 372 l 263 179 l 642 179 l 642 0 l 58 0 l 58 917 m 240 1030 q 208 1013 221 1030 q 190 978 195 995 l 79 978 q 104 1063 85 1019 q 155 1136 123 1106 q 230 1167 186 1167 q 307 1154 274 1167 q 369 1128 340 1141 q 428 1115 398 1115 q 461 1133 449 1115 q 479 1167 474 1151 l 590 1167 q 565 1083 584 1126 q 515 1009 547 1039 q 440 978 484 978 q 363 991 396 978 q 301 1017 330 1004 q 240 1030 272 1030 z "},"F":{"ha":665,"x_min":64,"x_max":592,"o":"m 64 917 l 592 917 l 592 738 l 268 738 l 268 549 l 567 549 l 567 370 l 268 370 l 268 0 l 64 0 l 64 917 z "},"G":{"ha":1020,"x_min":28,"x_max":959,"o":"m 492 512 l 959 512 l 959 454 q 926 270 959 356 q 832 120 892 185 q 686 19 771 56 q 499 -17 601 -17 q 307 20 393 -17 q 158 122 220 57 q 62 273 96 187 q 28 459 28 360 q 62 644 28 558 q 158 795 96 731 q 307 897 220 860 q 499 933 393 933 q 693 901 614 933 q 822 820 772 869 q 901 724 872 772 l 708 633 q 630 709 679 676 q 499 742 580 742 q 365 703 423 742 q 274 600 307 665 q 242 459 242 536 q 274 317 242 381 q 365 214 307 253 q 499 176 423 176 q 660 226 599 176 q 728 356 722 276 l 492 356 l 492 512 z "},"Ğ":{"ha":1020,"x_min":28,"x_max":959,"o":"m 492 512 l 959 512 l 959 454 q 926 270 959 356 q 832 120 892 185 q 686 19 771 56 q 499 -17 601 -17 q 307 20 393 -17 q 158 122 220 57 q 62 273 96 187 q 28 459 28 360 q 62 644 28 558 q 158 795 96 731 q 307 897 220 860 q 499 933 393 933 q 693 901 614 933 q 822 820 772 869 q 901 724 872 772 l 708 633 q 630 709 679 676 q 499 742 580 742 q 365 703 423 742 q 274 600 307 665 q 242 459 242 536 q 274 317 242 381 q 365 214 307 253 q 499 176 423 176 q 660 226 599 176 q 728 356 722 276 l 492 356 l 492 512 m 726 1138 q 657 1011 717 1062 q 500 960 597 960 q 344 1010 405 960 q 274 1138 283 1059 l 395 1167 q 424 1100 399 1135 q 500 1065 449 1065 q 575 1100 550 1065 q 604 1167 601 1135 l 726 1138 z "},"Ǧ":{"ha":1020,"x_min":28,"x_max":959,"o":"m 492 512 l 959 512 l 959 454 q 926 270 959 356 q 832 120 892 185 q 686 19 771 56 q 499 -17 601 -17 q 307 20 393 -17 q 158 122 220 57 q 62 273 96 187 q 28 459 28 360 q 62 644 28 558 q 158 795 96 731 q 307 897 220 860 q 499 933 393 933 q 693 901 614 933 q 822 820 772 869 q 901 724 872 772 l 708 633 q 630 709 679 676 q 499 742 580 742 q 365 703 423 742 q 274 600 307 665 q 242 459 242 536 q 274 317 242 381 q 365 214 307 253 q 499 176 423 176 q 660 226 599 176 q 728 356 722 276 l 492 356 l 492 512 m 288 1103 l 353 1189 l 501 1081 l 648 1189 l 713 1102 l 501 947 l 288 1103 z "},"Ĝ":{"ha":1020,"x_min":28,"x_max":959,"o":"m 492 512 l 959 512 l 959 454 q 926 270 959 356 q 832 120 892 185 q 686 19 771 56 q 499 -17 601 -17 q 307 20 393 -17 q 158 122 220 57 q 62 273 96 187 q 28 459 28 360 q 62 644 28 558 q 158 795 96 731 q 307 897 220 860 q 499 933 393 933 q 693 901 614 933 q 822 820 772 869 q 901 724 872 772 l 708 633 q 630 709 679 676 q 499 742 580 742 q 365 703 423 742 q 274 600 307 665 q 242 459 242 536 q 274 317 242 381 q 365 214 307 253 q 499 176 423 176 q 660 226 599 176 q 728 356 722 276 l 492 356 l 492 512 m 331 971 l 256 1069 l 500 1248 l 743 1069 l 669 970 l 500 1094 l 331 971 z "},"Ģ":{"ha":1020,"x_min":28,"x_max":959,"o":"m 492 512 l 959 512 l 959 454 q 926 270 959 356 q 832 120 892 185 q 686 19 771 56 q 499 -17 601 -17 q 307 20 393 -17 q 158 122 220 57 q 62 273 96 187 q 28 459 28 360 q 62 644 28 558 q 158 795 96 731 q 307 897 220 860 q 499 933 393 933 q 693 901 614 933 q 822 820 772 869 q 901 724 872 772 l 708 633 q 630 709 679 676 q 499 742 580 742 q 365 703 423 742 q 274 600 307 665 q 242 459 242 536 q 274 317 242 381 q 365 214 307 253 q 499 176 423 176 q 660 226 599 176 q 728 356 722 276 l 492 356 l 492 512 m 519 -50 q 590 -79 560 -50 q 620 -164 620 -108 q 599 -260 620 -213 q 545 -345 578 -307 q 472 -404 511 -383 l 427 -354 q 490 -308 456 -339 q 535 -241 524 -278 q 504 -247 523 -247 q 444 -221 471 -247 q 418 -151 418 -195 q 448 -79 418 -108 q 519 -50 478 -50 z "},"Ġ":{"ha":1020,"x_min":28,"x_max":959,"o":"m 492 512 l 959 512 l 959 454 q 926 270 959 356 q 832 120 892 185 q 686 19 771 56 q 499 -17 601 -17 q 307 20 393 -17 q 158 122 220 57 q 62 273 96 187 q 28 459 28 360 q 62 644 28 558 q 158 795 96 731 q 307 897 220 860 q 499 933 393 933 q 693 901 614 933 q 822 820 772 869 q 901 724 872 772 l 708 633 q 630 709 679 676 q 499 742 580 742 q 365 703 423 742 q 274 600 307 665 q 242 459 242 536 q 274 317 242 381 q 365 214 307 253 q 499 176 423 176 q 660 226 599 176 q 728 356 722 276 l 492 356 l 492 512 m 499 1173 q 570 1143 541 1173 q 600 1072 600 1113 q 570 1000 600 1030 q 499 971 541 971 q 428 1000 458 971 q 399 1072 399 1030 q 428 1143 399 1113 q 499 1173 458 1173 z "},"H":{"ha":886,"x_min":58,"x_max":786,"o":"m 583 370 l 263 370 l 263 0 l 58 0 l 58 917 l 263 917 l 263 549 l 583 549 l 583 917 l 786 917 l 786 0 l 583 0 l 583 370 z "},"Ħ":{"ha":886,"x_min":-1,"x_max":842,"o":"m 583 370 l 263 370 l 263 0 l 58 0 l 58 673 l -1 673 l -1 804 l 58 804 l 58 917 l 263 917 l 263 804 l 583 804 l 583 917 l 786 917 l 786 804 l 842 804 l 842 673 l 786 673 l 786 0 l 583 0 l 583 370 m 263 549 l 583 549 l 583 673 l 263 673 l 263 549 z "},"Ĥ":{"ha":886,"x_min":58,"x_max":786,"o":"m 583 370 l 263 370 l 263 0 l 58 0 l 58 917 l 263 917 l 263 549 l 583 549 l 583 917 l 786 917 l 786 0 l 583 0 l 583 370 m 253 971 l 179 1069 l 423 1248 l 666 1069 l 592 970 l 423 1094 l 253 971 z "},"I":{"ha":374,"x_min":66,"x_max":271,"o":"m 66 917 l 271 917 l 271 0 l 66 0 l 66 917 z "},"Í":{"ha":374,"x_min":47,"x_max":372,"o":"m 66 917 l 271 917 l 271 0 l 66 0 l 66 917 m 109 956 l 47 1040 l 274 1234 l 372 1109 l 109 956 z "},"Ĭ":{"ha":374,"x_min":-58,"x_max":394,"o":"m 66 917 l 271 917 l 271 0 l 66 0 l 66 917 m 394 1138 q 325 1011 385 1062 q 168 960 265 960 q 12 1010 73 960 q -58 1138 -49 1059 l 63 1167 q 92 1100 67 1135 q 168 1065 117 1065 q 243 1100 218 1065 q 272 1167 269 1135 l 394 1138 z "},"Î":{"ha":374,"x_min":-76,"x_max":411,"o":"m 66 917 l 271 917 l 271 0 l 66 0 l 66 917 m -1 971 l -76 1069 l 168 1248 l 411 1069 l 337 970 l 168 1094 l -1 971 z "},"Ȉ":{"ha":374,"x_min":-141,"x_max":477,"o":"m 66 917 l 271 917 l 271 0 l 66 0 l 66 917 m 415 956 l 152 1109 l 251 1234 l 477 1040 l 415 956 m 122 956 l -141 1109 l -42 1234 l 184 1040 l 122 956 z "},"Ï":{"ha":374,"x_min":-72,"x_max":408,"o":"m 66 917 l 271 917 l 271 0 l 66 0 l 66 917 m 28 1175 q 100 1145 70 1175 q 129 1074 129 1115 q 100 1002 129 1032 q 28 972 70 972 q -43 1002 -14 972 q -72 1074 -72 1032 q -43 1145 -72 1115 q 28 1175 -14 1175 m 308 1175 q 378 1145 349 1175 q 408 1074 408 1115 q 378 1002 408 1032 q 308 972 349 972 q 236 1002 265 972 q 207 1074 207 1032 q 236 1145 207 1115 q 308 1175 265 1175 z "},"İ":{"ha":374,"x_min":66,"x_max":271,"o":"m 66 917 l 271 917 l 271 0 l 66 0 l 66 917 m 167 1173 q 239 1143 209 1173 q 268 1072 268 1113 q 239 1000 268 1030 q 167 971 209 971 q 96 1000 126 971 q 67 1072 67 1030 q 96 1143 67 1113 q 167 1173 126 1173 z "},"Ị":{"ha":374,"x_min":66,"x_max":271,"o":"m 66 917 l 271 917 l 271 0 l 66 0 l 66 917 m 167 -61 q 223 -85 200 -61 q 247 -142 247 -108 q 223 -198 247 -174 q 167 -221 200 -221 q 111 -197 135 -221 q 88 -142 88 -174 q 111 -85 88 -109 q 167 -61 135 -61 z "},"Ì":{"ha":374,"x_min":-50,"x_max":275,"o":"m 66 917 l 271 917 l 271 0 l 66 0 l 66 917 m 213 956 l -50 1109 l 49 1234 l 275 1040 l 213 956 z "},"Ỉ":{"ha":374,"x_min":10,"x_max":325,"o":"m 66 917 l 271 917 l 271 0 l 66 0 l 66 917 m 95 1032 q 135 1047 110 1035 q 180 1075 160 1058 q 199 1113 199 1092 q 176 1155 199 1147 q 122 1163 153 1163 q 61 1153 92 1163 q 10 1135 31 1144 l 10 1225 q 55 1244 22 1233 q 149 1255 87 1255 q 233 1243 193 1255 q 299 1203 274 1231 q 325 1127 325 1175 q 305 1063 325 1090 q 256 1016 285 1035 q 196 984 226 996 q 145 965 166 972 l 95 1032 z "},"Ȋ":{"ha":374,"x_min":-56,"x_max":392,"o":"m 66 917 l 271 917 l 271 0 l 66 0 l 66 917 m -56 994 q 12 1120 -48 1069 q 168 1170 72 1170 q 323 1121 262 1170 q 392 994 384 1072 l 272 965 q 243 1032 268 997 q 168 1066 218 1066 q 93 1032 118 1066 q 64 965 67 997 l -56 994 z "},"Ī":{"ha":374,"x_min":-58,"x_max":394,"o":"m 66 917 l 271 917 l 271 0 l 66 0 l 66 917 m -58 1005 l -58 1135 l 394 1135 l 394 1005 l -58 1005 z "},"Į":{"ha":374,"x_min":26,"x_max":316,"o":"m 66 917 l 271 917 l 271 0 l 66 0 l 66 917 m 164 -302 q 102 -290 135 -302 q 48 -251 70 -278 q 26 -175 26 -224 q 44 -105 26 -143 q 90 -32 63 -67 q 142 28 117 3 l 203 0 q 158 -70 181 -26 q 135 -157 135 -114 q 150 -189 135 -178 q 180 -200 165 -200 q 216 -189 200 -200 q 238 -167 231 -178 l 316 -226 q 259 -277 300 -251 q 164 -302 217 -302 z "},"Ĩ":{"ha":374,"x_min":-87,"x_max":424,"o":"m 66 917 l 271 917 l 271 0 l 66 0 l 66 917 m 74 1030 q 41 1013 54 1030 q 24 978 28 995 l -87 978 q -62 1063 -81 1019 q -12 1136 -44 1106 q 63 1167 19 1167 q 140 1154 107 1167 q 202 1128 173 1141 q 262 1115 231 1115 q 295 1133 282 1115 q 313 1167 308 1151 l 424 1167 q 399 1083 417 1126 q 349 1009 380 1039 q 273 978 317 978 q 196 991 229 978 q 134 1017 163 1004 q 74 1030 105 1030 z "},"J":{"ha":569,"x_min":-24,"x_max":484,"o":"m 484 282 q 407 62 484 141 q 197 -17 329 -17 q 85 0 133 -17 q 10 35 38 16 q -24 64 -17 55 l 53 242 q 94 202 65 224 q 166 181 124 181 q 247 213 215 181 q 279 321 279 244 l 279 917 l 484 917 l 484 282 z "},"Ĵ":{"ha":569,"x_min":-24,"x_max":628,"o":"m 484 282 q 407 62 484 141 q 197 -17 329 -17 q 85 0 133 -17 q 10 35 38 16 q -24 64 -17 55 l 53 242 q 94 202 65 224 q 166 181 124 181 q 247 213 215 181 q 279 321 279 244 l 279 917 l 484 917 l 484 282 m 216 971 l 142 1069 l 385 1248 l 628 1069 l 554 970 l 385 1094 l 216 971 z "},"K":{"ha":801,"x_min":44,"x_max":777,"o":"m 428 474 l 777 0 l 533 0 l 249 401 l 249 0 l 44 0 l 44 917 l 249 917 l 249 540 l 510 917 l 742 917 l 428 474 z "},"Ķ":{"ha":801,"x_min":44,"x_max":777,"o":"m 428 474 l 777 0 l 533 0 l 249 401 l 249 0 l 44 0 l 44 917 l 249 917 l 249 540 l 510 917 l 742 917 l 428 474 m 397 -50 q 468 -79 438 -50 q 498 -164 498 -108 q 477 -260 498 -213 q 423 -345 456 -307 q 350 -404 389 -383 l 305 -354 q 367 -308 333 -339 q 413 -241 401 -278 q 382 -247 401 -247 q 322 -221 349 -247 q 296 -151 296 -195 q 326 -79 296 -108 q 397 -50 356 -50 z "},"L":{"ha":679,"x_min":64,"x_max":602,"o":"m 64 917 l 269 917 l 269 179 l 602 179 l 602 0 l 64 0 l 64 917 z "},"Ǉ":{"ha":1248,"x_min":64,"x_max":1163,"o":"m 64 917 l 269 917 l 269 179 l 602 179 l 602 0 l 64 0 l 64 917 m 1163 282 q 1086 62 1163 141 q 876 -17 1008 -17 q 765 0 812 -17 q 690 35 717 16 q 656 64 662 55 l 733 242 q 774 202 744 224 q 845 181 803 181 q 926 213 894 181 q 958 321 958 244 l 958 917 l 1163 917 l 1163 282 z "},"Ĺ":{"ha":679,"x_min":64,"x_max":602,"o":"m 64 917 l 269 917 l 269 179 l 602 179 l 602 0 l 64 0 l 64 917 m 251 956 l 190 1040 l 416 1234 l 515 1109 l 251 956 z "},"Ľ":{"ha":679,"x_min":64,"x_max":697,"o":"m 64 917 l 269 917 l 269 179 l 602 179 l 602 0 l 64 0 l 64 917 z "},"Ļ":{"ha":679,"x_min":64,"x_max":602,"o":"m 64 917 l 269 917 l 269 179 l 602 179 l 602 0 l 64 0 l 64 917 m 333 -50 q 404 -79 374 -50 q 434 -164 434 -108 q 413 -260 434 -213 q 359 -345 392 -307 q 286 -404 325 -383 l 241 -354 q 303 -308 269 -339 q 349 -241 338 -278 q 318 -247 337 -247 q 258 -221 285 -247 q 232 -151 232 -195 q 262 -79 232 -108 q 333 -50 292 -50 z "},"Ŀ":{"ha":679,"x_min":64,"x_max":606,"o":"m 64 917 l 269 917 l 269 179 l 602 179 l 602 0 l 64 0 l 64 917 z "},"ǈ":{"ha":1051,"x_min":64,"x_max":979,"o":"m 64 917 l 269 917 l 269 179 l 602 179 l 602 0 l 64 0 l 64 917 m 861 690 q 778 724 813 690 q 743 808 743 759 q 778 891 743 856 q 861 926 813 926 q 944 891 910 926 q 979 808 979 856 q 944 724 979 759 q 861 690 910 690 m 743 -306 q 641 -293 681 -306 q 581 -269 601 -281 l 645 -115 q 697 -131 666 -131 q 755 -37 755 -131 l 755 570 l 963 570 l 963 -70 q 911 -238 963 -171 q 743 -306 859 -306 z "},"Ł":{"ha":708,"x_min":21,"x_max":628,"o":"m 107 0 l 107 347 l 21 281 l 21 448 l 107 514 l 107 917 l 310 917 l 310 674 l 426 766 l 426 599 l 310 508 l 310 179 l 628 179 l 628 0 l 107 0 z "},"M":{"ha":1138,"x_min":57,"x_max":1030,"o":"m 1030 917 l 1030 0 l 826 0 l 826 544 l 835 695 l 799 522 l 643 73 l 442 73 l 287 522 l 252 695 l 261 544 l 261 0 l 57 0 l 57 917 l 344 917 l 531 301 l 543 230 l 556 301 l 742 917 l 1030 917 z "},"N":{"ha":1002,"x_min":58,"x_max":902,"o":"m 622 0 l 263 700 l 263 0 l 58 0 l 58 917 l 338 917 l 698 220 l 698 917 l 902 917 l 902 0 l 622 0 z "},"Ǌ":{"ha":1571,"x_min":58,"x_max":1486,"o":"m 622 0 l 263 700 l 263 0 l 58 0 l 58 917 l 338 917 l 698 220 l 698 917 l 902 917 l 902 0 l 622 0 m 1486 282 q 1409 62 1486 141 q 1199 -17 1331 -17 q 1088 0 1135 -17 q 1013 35 1040 16 q 978 64 985 55 l 1056 242 q 1097 202 1067 224 q 1168 181 1126 181 q 1249 213 1217 181 q 1281 321 1281 244 l 1281 917 l 1486 917 l 1486 282 z "},"Ń":{"ha":1002,"x_min":58,"x_max":902,"o":"m 622 0 l 263 700 l 263 0 l 58 0 l 58 917 l 338 917 l 698 220 l 698 917 l 902 917 l 902 0 l 622 0 m 429 956 l 367 1040 l 594 1234 l 692 1109 l 429 956 z "},"Ň":{"ha":1002,"x_min":58,"x_max":902,"o":"m 622 0 l 263 700 l 263 0 l 58 0 l 58 917 l 338 917 l 698 220 l 698 917 l 902 917 l 902 0 l 622 0 m 276 1103 l 341 1189 l 489 1081 l 636 1189 l 701 1102 l 489 947 l 276 1103 z "},"Ņ":{"ha":1002,"x_min":58,"x_max":902,"o":"m 622 0 l 263 700 l 263 0 l 58 0 l 58 917 l 338 917 l 698 220 l 698 917 l 902 917 l 902 0 l 622 0 m 488 -50 q 559 -79 529 -50 q 589 -164 589 -108 q 568 -260 589 -213 q 514 -345 547 -307 q 441 -404 480 -383 l 396 -354 q 458 -308 424 -339 q 503 -241 492 -278 q 473 -247 492 -247 q 413 -221 440 -247 q 387 -151 387 -195 q 417 -79 387 -108 q 488 -50 447 -50 z "},"Ŋ":{"ha":1003,"x_min":58,"x_max":902,"o":"m 690 -28 l 690 0 l 622 0 l 263 700 l 263 0 l 58 0 l 58 917 l 338 917 l 698 220 l 698 917 l 902 917 l 902 -21 q 880 -158 902 -94 q 808 -262 857 -222 q 679 -302 759 -302 q 567 -289 610 -302 q 503 -265 524 -275 l 571 -105 q 597 -115 581 -110 q 627 -120 613 -120 q 673 -96 656 -120 q 690 -28 690 -72 z "},"ǋ":{"ha":1374,"x_min":58,"x_max":1302,"o":"m 622 0 l 263 700 l 263 0 l 58 0 l 58 917 l 338 917 l 698 220 l 698 917 l 902 917 l 902 0 l 622 0 m 1184 690 q 1101 724 1135 690 q 1066 808 1066 759 q 1101 891 1066 856 q 1184 926 1135 926 q 1267 891 1233 926 q 1302 808 1302 856 q 1267 724 1302 759 q 1184 690 1233 690 m 1066 -306 q 964 -293 1004 -306 q 903 -269 924 -281 l 968 -115 q 1020 -131 989 -131 q 1078 -37 1078 -131 l 1078 570 l 1286 570 l 1286 -70 q 1234 -238 1286 -171 q 1066 -306 1182 -306 z "},"Ñ":{"ha":1002,"x_min":58,"x_max":902,"o":"m 622 0 l 263 700 l 263 0 l 58 0 l 58 917 l 338 917 l 698 220 l 698 917 l 902 917 l 902 0 l 622 0 z "},"O":{"ha":1030,"x_min":28,"x_max":969,"o":"m 28 459 q 64 645 28 559 q 163 797 99 732 q 313 897 227 861 q 499 933 399 933 q 686 897 600 933 q 835 797 772 861 q 934 645 899 732 q 969 459 969 559 q 934 272 969 358 q 837 120 900 185 q 688 19 774 56 q 499 -17 602 -17 q 252 47 358 -17 q 88 217 147 110 q 28 459 28 325 m 242 459 q 274 316 242 380 q 365 214 307 251 q 499 176 423 176 q 633 214 575 176 q 724 316 691 251 q 756 459 756 380 q 724 602 756 538 q 633 704 691 666 q 499 742 575 742 q 365 704 423 742 q 274 602 307 666 q 242 459 242 538 z "},"Ó":{"ha":1030,"x_min":28,"x_max":969,"o":"m 28 459 q 64 645 28 559 q 163 797 99 732 q 313 897 227 861 q 499 933 399 933 q 686 897 600 933 q 835 797 772 861 q 934 645 899 732 q 969 459 969 559 q 934 272 969 358 q 837 120 900 185 q 688 19 774 56 q 499 -17 602 -17 q 252 47 358 -17 q 88 217 147 110 q 28 459 28 325 m 242 459 q 274 316 242 380 q 365 214 307 251 q 499 176 423 176 q 633 214 575 176 q 724 316 691 251 q 756 459 756 380 q 724 602 756 538 q 633 704 691 666 q 499 742 575 742 q 365 704 423 742 q 274 602 307 666 q 242 459 242 538 m 440 956 l 378 1040 l 604 1234 l 703 1109 l 440 956 z "},"Ŏ":{"ha":1030,"x_min":28,"x_max":969,"o":"m 28 459 q 64 645 28 559 q 163 797 99 732 q 313 897 227 861 q 499 933 399 933 q 686 897 600 933 q 835 797 772 861 q 934 645 899 732 q 969 459 969 559 q 934 272 969 358 q 837 120 900 185 q 688 19 774 56 q 499 -17 602 -17 q 252 47 358 -17 q 88 217 147 110 q 28 459 28 325 m 242 459 q 274 316 242 380 q 365 214 307 251 q 499 176 423 176 q 633 214 575 176 q 724 316 691 251 q 756 459 756 380 q 724 602 756 538 q 633 704 691 666 q 499 742 575 742 q 365 704 423 742 q 274 602 307 666 q 242 459 242 538 m 724 1138 q 656 1011 716 1062 q 499 960 595 960 q 342 1010 403 960 q 272 1138 281 1059 l 394 1167 q 423 1100 398 1135 q 499 1065 448 1065 q 574 1100 549 1065 q 603 1167 599 1135 l 724 1138 z "},"Ô":{"ha":1030,"x_min":28,"x_max":969,"o":"m 28 459 q 64 645 28 559 q 163 797 99 732 q 313 897 227 861 q 499 933 399 933 q 686 897 600 933 q 835 797 772 861 q 934 645 899 732 q 969 459 969 559 q 934 272 969 358 q 837 120 900 185 q 688 19 774 56 q 499 -17 602 -17 q 252 47 358 -17 q 88 217 147 110 q 28 459 28 325 m 242 459 q 274 316 242 380 q 365 214 307 251 q 499 176 423 176 q 633 214 575 176 q 724 316 691 251 q 756 459 756 380 q 724 602 756 538 q 633 704 691 666 q 499 742 575 742 q 365 704 423 742 q 274 602 307 666 q 242 459 242 538 m 329 971 l 255 1069 l 499 1248 l 742 1069 l 667 970 l 499 1094 l 329 971 z "},"Ố":{"ha":1030,"x_min":28,"x_max":969,"o":"m 28 459 q 64 645 28 559 q 163 797 99 732 q 313 897 227 861 q 499 933 399 933 q 686 897 600 933 q 835 797 772 861 q 934 645 899 732 q 969 459 969 559 q 934 272 969 358 q 837 120 900 185 q 688 19 774 56 q 499 -17 602 -17 q 252 47 358 -17 q 88 217 147 110 q 28 459 28 325 m 242 459 q 274 316 242 380 q 365 214 307 251 q 499 176 423 176 q 633 214 575 176 q 724 316 691 251 q 756 459 756 380 q 724 602 756 538 q 633 704 691 666 q 499 742 575 742 q 365 704 423 742 q 274 602 307 666 q 242 459 242 538 z "},"Ộ":{"ha":1030,"x_min":28,"x_max":969,"o":"m 28 459 q 64 645 28 559 q 163 797 99 732 q 313 897 227 861 q 499 933 399 933 q 686 897 600 933 q 835 797 772 861 q 934 645 899 732 q 969 459 969 559 q 934 272 969 358 q 837 120 900 185 q 688 19 774 56 q 499 -17 602 -17 q 252 47 358 -17 q 88 217 147 110 q 28 459 28 325 m 242 459 q 274 316 242 380 q 365 214 307 251 q 499 176 423 176 q 633 214 575 176 q 724 316 691 251 q 756 459 756 380 q 724 602 756 538 q 633 704 691 666 q 499 742 575 742 q 365 704 423 742 q 274 602 307 666 q 242 459 242 538 m 498 -242 q 554 -265 531 -242 q 577 -322 577 -289 q 554 -378 577 -355 q 498 -401 531 -401 q 442 -378 465 -401 q 419 -322 419 -354 q 442 -266 419 -290 q 498 -242 465 -242 m 329 971 l 255 1069 l 499 1248 l 742 1069 l 667 970 l 499 1094 l 329 971 z "},"Ồ":{"ha":1030,"x_min":28,"x_max":969,"o":"m 28 459 q 64 645 28 559 q 163 797 99 732 q 313 897 227 861 q 499 933 399 933 q 686 897 600 933 q 835 797 772 861 q 934 645 899 732 q 969 459 969 559 q 934 272 969 358 q 837 120 900 185 q 688 19 774 56 q 499 -17 602 -17 q 252 47 358 -17 q 88 217 147 110 q 28 459 28 325 m 242 459 q 274 316 242 380 q 365 214 307 251 q 499 176 423 176 q 633 214 575 176 q 724 316 691 251 q 756 459 756 380 q 724 602 756 538 q 633 704 691 666 q 499 742 575 742 q 365 704 423 742 q 274 602 307 666 q 242 459 242 538 z "},"Ổ":{"ha":1030,"x_min":28,"x_max":969,"o":"m 28 459 q 64 645 28 559 q 163 797 99 732 q 313 897 227 861 q 499 933 399 933 q 686 897 600 933 q 835 797 772 861 q 934 645 899 732 q 969 459 969 559 q 934 272 969 358 q 837 120 900 185 q 688 19 774 56 q 499 -17 602 -17 q 252 47 358 -17 q 88 217 147 110 q 28 459 28 325 m 242 459 q 274 316 242 380 q 365 214 307 251 q 499 176 423 176 q 633 214 575 176 q 724 316 691 251 q 756 459 756 380 q 724 602 756 538 q 633 704 691 666 q 499 742 575 742 q 365 704 423 742 q 274 602 307 666 q 242 459 242 538 z "},"Ỗ":{"ha":1030,"x_min":28,"x_max":969,"o":"m 28 459 q 64 645 28 559 q 163 797 99 732 q 313 897 227 861 q 499 933 399 933 q 686 897 600 933 q 835 797 772 861 q 934 645 899 732 q 969 459 969 559 q 934 272 969 358 q 837 120 900 185 q 688 19 774 56 q 499 -17 602 -17 q 252 47 358 -17 q 88 217 147 110 q 28 459 28 325 m 242 459 q 274 316 242 380 q 365 214 307 251 q 499 176 423 176 q 633 214 575 176 q 724 316 691 251 q 756 459 756 380 q 724 602 756 538 q 633 704 691 666 q 499 742 575 742 q 365 704 423 742 q 274 602 307 666 q 242 459 242 538 z "},"Ȍ":{"ha":1030,"x_min":28,"x_max":969,"o":"m 28 459 q 64 645 28 559 q 163 797 99 732 q 313 897 227 861 q 499 933 399 933 q 686 897 600 933 q 835 797 772 861 q 934 645 899 732 q 969 459 969 559 q 934 272 969 358 q 837 120 900 185 q 688 19 774 56 q 499 -17 602 -17 q 252 47 358 -17 q 88 217 147 110 q 28 459 28 325 m 242 459 q 274 316 242 380 q 365 214 307 251 q 499 176 423 176 q 633 214 575 176 q 724 316 691 251 q 756 459 756 380 q 724 602 756 538 q 633 704 691 666 q 499 742 575 742 q 365 704 423 742 q 274 602 307 666 q 242 459 242 538 m 746 956 l 483 1109 l 581 1234 l 808 1040 l 746 956 m 453 956 l 190 1109 l 289 1234 l 515 1040 l 453 956 z "},"Ö":{"ha":1030,"x_min":28,"x_max":969,"o":"m 28 459 q 64 645 28 559 q 163 797 99 732 q 313 897 227 861 q 499 933 399 933 q 686 897 600 933 q 835 797 772 861 q 934 645 899 732 q 969 459 969 559 q 934 272 969 358 q 837 120 900 185 q 688 19 774 56 q 499 -17 602 -17 q 252 47 358 -17 q 88 217 147 110 q 28 459 28 325 m 242 459 q 274 316 242 380 q 365 214 307 251 q 499 176 423 176 q 633 214 575 176 q 724 316 691 251 q 756 459 756 380 q 724 602 756 538 q 633 704 691 666 q 499 742 575 742 q 365 704 423 742 q 274 602 307 666 q 242 459 242 538 m 360 1175 q 431 1145 401 1175 q 460 1074 460 1115 q 431 1002 460 1032 q 360 972 401 972 q 288 1002 317 972 q 259 1074 259 1032 q 288 1145 259 1115 q 360 1175 317 1175 m 639 1175 q 710 1145 681 1175 q 739 1074 739 1115 q 710 1002 739 1032 q 639 972 681 972 q 567 1002 597 972 q 538 1074 538 1032 q 567 1145 538 1115 q 639 1175 597 1175 z "},"Ȫ":{"ha":1030,"x_min":28,"x_max":969,"o":"m 28 459 q 64 645 28 559 q 163 797 99 732 q 313 897 227 861 q 499 933 399 933 q 686 897 600 933 q 835 797 772 861 q 934 645 899 732 q 969 459 969 559 q 934 272 969 358 q 837 120 900 185 q 688 19 774 56 q 499 -17 602 -17 q 252 47 358 -17 q 88 217 147 110 q 28 459 28 325 m 242 459 q 274 316 242 380 q 365 214 307 251 q 499 176 423 176 q 633 214 575 176 q 724 316 691 251 q 756 459 756 380 q 724 602 756 538 q 633 704 691 666 q 499 742 575 742 q 365 704 423 742 q 274 602 307 666 q 242 459 242 538 m 360 1175 q 431 1145 401 1175 q 460 1074 460 1115 q 431 1002 460 1032 q 360 972 401 972 q 288 1002 317 972 q 259 1074 259 1032 q 288 1145 259 1115 q 360 1175 317 1175 m 639 1175 q 710 1145 681 1175 q 739 1074 739 1115 q 710 1002 739 1032 q 639 972 681 972 q 567 1002 597 972 q 538 1074 538 1032 q 567 1145 538 1115 q 639 1175 597 1175 m 273 1263 l 273 1393 l 724 1393 l 724 1263 l 273 1263 z "},"Ȱ":{"ha":1030,"x_min":28,"x_max":969,"o":"m 28 459 q 64 645 28 559 q 163 797 99 732 q 313 897 227 861 q 499 933 399 933 q 686 897 600 933 q 835 797 772 861 q 934 645 899 732 q 969 459 969 559 q 934 272 969 358 q 837 120 900 185 q 688 19 774 56 q 499 -17 602 -17 q 252 47 358 -17 q 88 217 147 110 q 28 459 28 325 m 242 459 q 274 316 242 380 q 365 214 307 251 q 499 176 423 176 q 633 214 575 176 q 724 316 691 251 q 756 459 756 380 q 724 602 756 538 q 633 704 691 666 q 499 742 575 742 q 365 704 423 742 q 274 602 307 666 q 242 459 242 538 m 499 1173 q 570 1143 540 1173 q 599 1072 599 1113 q 570 1000 599 1030 q 499 971 540 971 q 427 1000 457 971 q 398 1072 398 1030 q 427 1143 398 1113 q 499 1173 457 1173 m 273 1261 l 273 1391 l 724 1391 l 724 1261 l 273 1261 z "},"Ọ":{"ha":1030,"x_min":28,"x_max":969,"o":"m 28 459 q 64 645 28 559 q 163 797 99 732 q 313 897 227 861 q 499 933 399 933 q 686 897 600 933 q 835 797 772 861 q 934 645 899 732 q 969 459 969 559 q 934 272 969 358 q 837 120 900 185 q 688 19 774 56 q 499 -17 602 -17 q 252 47 358 -17 q 88 217 147 110 q 28 459 28 325 m 242 459 q 274 316 242 380 q 365 214 307 251 q 499 176 423 176 q 633 214 575 176 q 724 316 691 251 q 756 459 756 380 q 724 602 756 538 q 633 704 691 666 q 499 742 575 742 q 365 704 423 742 q 274 602 307 666 q 242 459 242 538 m 498 -242 q 554 -265 531 -242 q 577 -322 577 -289 q 554 -378 577 -355 q 498 -401 531 -401 q 442 -378 465 -401 q 419 -322 419 -354 q 442 -266 419 -290 q 498 -242 465 -242 z "},"Ò":{"ha":1030,"x_min":28,"x_max":969,"o":"m 28 459 q 64 645 28 559 q 163 797 99 732 q 313 897 227 861 q 499 933 399 933 q 686 897 600 933 q 835 797 772 861 q 934 645 899 732 q 969 459 969 559 q 934 272 969 358 q 837 120 900 185 q 688 19 774 56 q 499 -17 602 -17 q 252 47 358 -17 q 88 217 147 110 q 28 459 28 325 m 242 459 q 274 316 242 380 q 365 214 307 251 q 499 176 423 176 q 633 214 575 176 q 724 316 691 251 q 756 459 756 380 q 724 602 756 538 q 633 704 691 666 q 499 742 575 742 q 365 704 423 742 q 274 602 307 666 q 242 459 242 538 m 544 956 l 281 1109 l 380 1234 l 606 1040 l 544 956 z "},"Ỏ":{"ha":1030,"x_min":28,"x_max":969,"o":"m 28 459 q 64 645 28 559 q 163 797 99 732 q 313 897 227 861 q 499 933 399 933 q 686 897 600 933 q 835 797 772 861 q 934 645 899 732 q 969 459 969 559 q 934 272 969 358 q 837 120 900 185 q 688 19 774 56 q 499 -17 602 -17 q 252 47 358 -17 q 88 217 147 110 q 28 459 28 325 m 242 459 q 274 316 242 380 q 365 214 307 251 q 499 176 423 176 q 633 214 575 176 q 724 316 691 251 q 756 459 756 380 q 724 602 756 538 q 633 704 691 666 q 499 742 575 742 q 365 704 423 742 q 274 602 307 666 q 242 459 242 538 m 426 1032 q 467 1047 442 1035 q 511 1075 492 1058 q 531 1113 531 1092 q 508 1155 531 1147 q 453 1163 485 1163 q 392 1153 423 1163 q 341 1135 362 1144 l 341 1225 q 386 1244 353 1233 q 480 1255 418 1255 q 565 1243 524 1255 q 631 1203 605 1231 q 656 1127 656 1175 q 636 1063 656 1090 q 587 1016 617 1035 q 527 984 558 996 q 476 965 497 972 l 426 1032 z "},"Ơ":{"ha":1030,"x_min":28,"x_max":1048,"o":"m 28 459 q 64 645 28 559 q 163 797 99 732 q 313 897 227 861 q 499 933 399 933 q 686 897 600 933 q 835 797 772 861 q 934 645 899 732 q 969 459 969 559 q 934 272 969 358 q 837 120 900 185 q 688 19 774 56 q 499 -17 602 -17 q 252 47 358 -17 q 88 217 147 110 q 28 459 28 325 m 242 459 q 274 316 242 380 q 365 214 307 251 q 499 176 423 176 q 633 214 575 176 q 724 316 691 251 q 756 459 756 380 q 724 602 756 538 q 633 704 691 666 q 499 742 575 742 q 365 704 423 742 q 274 602 307 666 q 242 459 242 538 m 852 711 q 811 717 828 711 q 778 731 794 722 l 778 832 q 802 817 788 823 q 838 812 817 812 q 891 839 872 812 q 910 899 910 865 q 906 947 910 928 q 894 985 902 966 l 1025 985 q 1040 951 1031 976 q 1048 885 1048 926 q 1020 795 1048 834 q 948 733 993 756 q 852 711 903 711 z "},"Ớ":{"ha":1030,"x_min":28,"x_max":1048,"o":"m 28 459 q 64 645 28 559 q 163 797 99 732 q 313 897 227 861 q 499 933 399 933 q 686 897 600 933 q 835 797 772 861 q 934 645 899 732 q 969 459 969 559 q 934 272 969 358 q 837 120 900 185 q 688 19 774 56 q 499 -17 602 -17 q 252 47 358 -17 q 88 217 147 110 q 28 459 28 325 m 242 459 q 274 316 242 380 q 365 214 307 251 q 499 176 423 176 q 633 214 575 176 q 724 316 691 251 q 756 459 756 380 q 724 602 756 538 q 633 704 691 666 q 499 742 575 742 q 365 704 423 742 q 274 602 307 666 q 242 459 242 538 m 852 711 q 811 717 828 711 q 778 731 794 722 l 778 832 q 802 817 788 823 q 838 812 817 812 q 891 839 872 812 q 910 899 910 865 q 906 947 910 928 q 894 985 902 966 l 1025 985 q 1040 951 1031 976 q 1048 885 1048 926 q 1020 795 1048 834 q 948 733 993 756 q 852 711 903 711 z "},"Ợ":{"ha":1030,"x_min":28,"x_max":1048,"o":"m 28 459 q 64 645 28 559 q 163 797 99 732 q 313 897 227 861 q 499 933 399 933 q 686 897 600 933 q 835 797 772 861 q 934 645 899 732 q 969 459 969 559 q 934 272 969 358 q 837 120 900 185 q 688 19 774 56 q 499 -17 602 -17 q 252 47 358 -17 q 88 217 147 110 q 28 459 28 325 m 242 459 q 274 316 242 380 q 365 214 307 251 q 499 176 423 176 q 633 214 575 176 q 724 316 691 251 q 756 459 756 380 q 724 602 756 538 q 633 704 691 666 q 499 742 575 742 q 365 704 423 742 q 274 602 307 666 q 242 459 242 538 m 852 711 q 811 717 828 711 q 778 731 794 722 l 778 832 q 802 817 788 823 q 838 812 817 812 q 891 839 872 812 q 910 899 910 865 q 906 947 910 928 q 894 985 902 966 l 1025 985 q 1040 951 1031 976 q 1048 885 1048 926 q 1020 795 1048 834 q 948 733 993 756 q 852 711 903 711 z "},"Ờ":{"ha":1030,"x_min":28,"x_max":1048,"o":"m 28 459 q 64 645 28 559 q 163 797 99 732 q 313 897 227 861 q 499 933 399 933 q 686 897 600 933 q 835 797 772 861 q 934 645 899 732 q 969 459 969 559 q 934 272 969 358 q 837 120 900 185 q 688 19 774 56 q 499 -17 602 -17 q 252 47 358 -17 q 88 217 147 110 q 28 459 28 325 m 242 459 q 274 316 242 380 q 365 214 307 251 q 499 176 423 176 q 633 214 575 176 q 724 316 691 251 q 756 459 756 380 q 724 602 756 538 q 633 704 691 666 q 499 742 575 742 q 365 704 423 742 q 274 602 307 666 q 242 459 242 538 m 852 711 q 811 717 828 711 q 778 731 794 722 l 778 832 q 802 817 788 823 q 838 812 817 812 q 891 839 872 812 q 910 899 910 865 q 906 947 910 928 q 894 985 902 966 l 1025 985 q 1040 951 1031 976 q 1048 885 1048 926 q 1020 795 1048 834 q 948 733 993 756 q 852 711 903 711 z "},"Ở":{"ha":1030,"x_min":28,"x_max":1048,"o":"m 28 459 q 64 645 28 559 q 163 797 99 732 q 313 897 227 861 q 499 933 399 933 q 686 897 600 933 q 835 797 772 861 q 934 645 899 732 q 969 459 969 559 q 934 272 969 358 q 837 120 900 185 q 688 19 774 56 q 499 -17 602 -17 q 252 47 358 -17 q 88 217 147 110 q 28 459 28 325 m 242 459 q 274 316 242 380 q 365 214 307 251 q 499 176 423 176 q 633 214 575 176 q 724 316 691 251 q 756 459 756 380 q 724 602 756 538 q 633 704 691 666 q 499 742 575 742 q 365 704 423 742 q 274 602 307 666 q 242 459 242 538 m 852 711 q 811 717 828 711 q 778 731 794 722 l 778 832 q 802 817 788 823 q 838 812 817 812 q 891 839 872 812 q 910 899 910 865 q 906 947 910 928 q 894 985 902 966 l 1025 985 q 1040 951 1031 976 q 1048 885 1048 926 q 1020 795 1048 834 q 948 733 993 756 q 852 711 903 711 m 426 1024 q 467 1042 442 1028 q 511 1075 492 1055 q 531 1122 531 1095 q 508 1169 531 1160 q 453 1178 485 1178 q 392 1167 423 1178 q 341 1146 362 1157 l 341 1252 q 386 1273 353 1260 q 480 1285 418 1285 q 565 1272 524 1285 q 631 1225 605 1258 q 656 1138 656 1193 q 636 1061 656 1094 q 587 1006 617 1028 q 527 968 558 983 q 476 947 497 954 l 426 1024 z "},"Ỡ":{"ha":1030,"x_min":28,"x_max":1048,"o":"m 28 459 q 64 645 28 559 q 163 797 99 732 q 313 897 227 861 q 499 933 399 933 q 686 897 600 933 q 835 797 772 861 q 934 645 899 732 q 969 459 969 559 q 934 272 969 358 q 837 120 900 185 q 688 19 774 56 q 499 -17 602 -17 q 252 47 358 -17 q 88 217 147 110 q 28 459 28 325 m 242 459 q 274 316 242 380 q 365 214 307 251 q 499 176 423 176 q 633 214 575 176 q 724 316 691 251 q 756 459 756 380 q 724 602 756 538 q 633 704 691 666 q 499 742 575 742 q 365 704 423 742 q 274 602 307 666 q 242 459 242 538 m 852 711 q 811 717 828 711 q 778 731 794 722 l 778 832 q 802 817 788 823 q 838 812 817 812 q 891 839 872 812 q 910 899 910 865 q 906 947 910 928 q 894 985 902 966 l 1025 985 q 1040 951 1031 976 q 1048 885 1048 926 q 1020 795 1048 834 q 948 733 993 756 q 852 711 903 711 z "},"Ő":{"ha":1013,"x_min":28,"x_max":969,"o":"m 28 459 q 64 645 28 559 q 163 797 99 732 q 313 897 227 861 q 499 933 399 933 q 686 897 600 933 q 835 797 772 861 q 934 645 899 732 q 969 459 969 559 q 934 272 969 358 q 837 120 900 185 q 688 19 774 56 q 499 -17 602 -17 q 252 47 358 -17 q 88 217 147 110 q 28 459 28 325 m 242 459 q 274 316 242 380 q 365 214 307 251 q 499 176 423 176 q 633 214 575 176 q 724 316 691 251 q 756 459 756 380 q 724 602 756 538 q 633 704 691 666 q 499 742 575 742 q 365 704 423 742 q 274 602 307 666 q 242 459 242 538 m 316 998 l 255 1082 l 447 1299 l 537 1185 l 316 998 m 551 998 l 490 1082 l 681 1299 l 771 1185 l 551 998 z "},"Ȏ":{"ha":1030,"x_min":28,"x_max":969,"o":"m 28 459 q 64 645 28 559 q 163 797 99 732 q 313 897 227 861 q 499 933 399 933 q 686 897 600 933 q 835 797 772 861 q 934 645 899 732 q 969 459 969 559 q 934 272 969 358 q 837 120 900 185 q 688 19 774 56 q 499 -17 602 -17 q 252 47 358 -17 q 88 217 147 110 q 28 459 28 325 m 242 459 q 274 316 242 380 q 365 214 307 251 q 499 176 423 176 q 633 214 575 176 q 724 316 691 251 q 756 459 756 380 q 724 602 756 538 q 633 704 691 666 q 499 742 575 742 q 365 704 423 742 q 274 602 307 666 q 242 459 242 538 z "},"Ō":{"ha":1030,"x_min":28,"x_max":969,"o":"m 28 459 q 64 645 28 559 q 163 797 99 732 q 313 897 227 861 q 499 933 399 933 q 686 897 600 933 q 835 797 772 861 q 934 645 899 732 q 969 459 969 559 q 934 272 969 358 q 837 120 900 185 q 688 19 774 56 q 499 -17 602 -17 q 252 47 358 -17 q 88 217 147 110 q 28 459 28 325 m 242 459 q 274 316 242 380 q 365 214 307 251 q 499 176 423 176 q 633 214 575 176 q 724 316 691 251 q 756 459 756 380 q 724 602 756 538 q 633 704 691 666 q 499 742 575 742 q 365 704 423 742 q 274 602 307 666 q 242 459 242 538 z "},"Ǫ":{"ha":1030,"x_min":28,"x_max":969,"o":"m 28 459 q 64 645 28 559 q 163 797 99 732 q 313 897 227 861 q 499 933 399 933 q 686 897 600 933 q 835 797 772 861 q 934 645 899 732 q 969 459 969 559 q 934 272 969 358 q 837 120 900 185 q 688 19 774 56 q 499 -17 602 -17 q 252 47 358 -17 q 88 217 147 110 q 28 459 28 325 m 242 459 q 274 316 242 380 q 365 214 307 251 q 499 176 423 176 q 633 214 575 176 q 724 316 691 251 q 756 459 756 380 q 724 602 756 538 q 633 704 691 666 q 499 742 575 742 q 365 704 423 742 q 274 602 307 666 q 242 459 242 538 z "},"Ø":{"ha":1013,"x_min":0,"x_max":974,"o":"m 28 459 q 64 645 28 559 q 163 797 99 732 q 313 897 227 861 q 499 933 399 933 q 657 908 583 933 q 790 836 731 882 l 902 952 l 974 888 l 860 769 q 940 628 911 707 q 969 459 969 549 q 934 272 969 358 q 837 120 900 185 q 688 19 774 56 q 499 -17 602 -17 q 333 10 410 -17 q 198 84 257 37 l 72 -47 l 0 19 l 130 153 q 55 293 81 215 q 28 459 28 371 m 242 459 q 278 307 242 375 l 650 692 q 581 729 619 716 q 499 742 543 742 q 365 704 423 742 q 274 602 307 666 q 242 459 242 538 m 756 459 q 715 619 756 548 l 340 231 q 412 190 372 205 q 499 176 452 176 q 633 214 575 176 q 724 316 691 251 q 756 459 756 380 z "},"Ǿ":{"ha":1013,"x_min":0,"x_max":974,"o":"m 28 459 q 64 645 28 559 q 163 797 99 732 q 313 897 227 861 q 499 933 399 933 q 657 908 583 933 q 790 836 731 882 l 902 952 l 974 888 l 860 769 q 940 628 911 707 q 969 459 969 549 q 934 272 969 358 q 837 120 900 185 q 688 19 774 56 q 499 -17 602 -17 q 333 10 410 -17 q 198 84 257 37 l 72 -47 l 0 19 l 130 153 q 55 293 81 215 q 28 459 28 371 m 242 459 q 278 307 242 375 l 650 692 q 581 729 619 716 q 499 742 543 742 q 365 704 423 742 q 274 602 307 666 q 242 459 242 538 m 756 459 q 715 619 756 548 l 340 231 q 412 190 372 205 q 499 176 452 176 q 633 214 575 176 q 724 316 691 251 q 756 459 756 380 z "},"Õ":{"ha":1030,"x_min":28,"x_max":969,"o":"m 28 459 q 64 645 28 559 q 163 797 99 732 q 313 897 227 861 q 499 933 399 933 q 686 897 600 933 q 835 797 772 861 q 934 645 899 732 q 969 459 969 559 q 934 272 969 358 q 837 120 900 185 q 688 19 774 56 q 499 -17 602 -17 q 252 47 358 -17 q 88 217 147 110 q 28 459 28 325 m 242 459 q 274 316 242 380 q 365 214 307 251 q 499 176 423 176 q 633 214 575 176 q 724 316 691 251 q 756 459 756 380 q 724 602 756 538 q 633 704 691 666 q 499 742 575 742 q 365 704 423 742 q 274 602 307 666 q 242 459 242 538 z "},"Ȭ":{"ha":1030,"x_min":28,"x_max":969,"o":"m 28 459 q 64 645 28 559 q 163 797 99 732 q 313 897 227 861 q 499 933 399 933 q 686 897 600 933 q 835 797 772 861 q 934 645 899 732 q 969 459 969 559 q 934 272 969 358 q 837 120 900 185 q 688 19 774 56 q 499 -17 602 -17 q 252 47 358 -17 q 88 217 147 110 q 28 459 28 325 m 242 459 q 274 316 242 380 q 365 214 307 251 q 499 176 423 176 q 633 214 575 176 q 724 316 691 251 q 756 459 756 380 q 724 602 756 538 q 633 704 691 666 q 499 742 575 742 q 365 704 423 742 q 274 602 307 666 q 242 459 242 538 z "},"Œ":{"ha":1151,"x_min":20,"x_max":1060,"o":"m 482 0 q 303 34 387 0 q 156 129 220 67 q 56 274 92 190 q 20 458 20 358 q 57 642 20 558 q 157 788 93 726 q 304 883 220 849 q 482 917 388 917 l 1060 917 l 1060 738 l 742 738 l 742 549 l 1047 549 l 1047 370 l 742 370 l 742 179 l 1060 179 l 1060 0 l 482 0 m 504 183 l 538 183 l 538 734 l 504 734 q 366 697 426 734 q 274 598 307 660 q 241 459 241 536 q 274 319 241 381 q 366 220 307 256 q 504 183 426 183 z "},"P":{"ha":767,"x_min":60,"x_max":705,"o":"m 60 917 l 391 917 q 550 886 478 917 q 663 792 621 855 q 705 635 705 730 q 663 475 705 541 q 550 376 621 410 q 391 342 478 342 l 265 342 l 265 0 l 60 0 l 60 917 m 265 503 l 334 503 q 442 532 398 503 q 486 631 486 561 q 442 727 486 699 q 334 755 398 755 l 265 755 l 265 503 z "},"Þ":{"ha":763,"x_min":58,"x_max":706,"o":"m 58 917 l 263 917 l 263 747 l 399 747 q 554 716 485 747 q 665 622 624 685 q 706 465 706 560 q 665 305 706 370 q 554 205 624 239 q 399 170 485 170 l 263 170 l 263 0 l 58 0 l 58 917 m 263 332 l 357 332 q 448 365 413 332 q 482 462 482 399 q 448 555 482 525 q 357 585 413 585 l 263 585 l 263 332 z "},"Q":{"ha":1013,"x_min":28,"x_max":969,"o":"m 28 459 q 64 645 28 559 q 163 797 99 732 q 313 897 227 861 q 499 933 399 933 q 686 897 600 933 q 835 797 772 861 q 934 645 899 732 q 969 459 969 559 q 925 249 969 344 q 801 87 881 153 q 615 -3 722 21 q 678 -20 647 -12 q 744 -28 709 -28 q 844 -10 803 -28 q 888 14 885 8 l 958 -121 q 883 -185 938 -154 q 746 -217 828 -217 q 659 -205 694 -217 q 593 -178 624 -193 q 526 -151 562 -162 q 439 -139 490 -139 q 364 -152 396 -139 q 313 -178 331 -165 q 293 -194 294 -192 l 209 -94 q 276 -39 236 -63 q 364 1 315 -14 q 186 94 262 28 q 69 254 110 160 q 28 459 28 348 m 242 459 q 274 316 242 380 q 365 214 307 251 q 499 176 423 176 q 633 214 575 176 q 724 316 691 251 q 756 459 756 380 q 724 602 756 538 q 633 704 691 666 q 499 742 575 742 q 365 704 423 742 q 274 602 307 666 q 242 459 242 538 z "},"R":{"ha":819,"x_min":54,"x_max":741,"o":"m 54 917 l 426 917 q 568 883 506 917 q 667 788 631 850 q 703 638 703 725 q 673 496 703 551 q 598 413 642 441 q 518 381 555 385 l 741 0 l 511 0 l 312 365 l 259 365 l 259 0 l 54 0 l 54 917 m 259 507 l 353 507 q 451 534 409 507 q 493 631 493 562 q 452 728 493 701 q 354 755 410 755 l 259 755 l 259 507 z "},"Ŕ":{"ha":819,"x_min":54,"x_max":741,"o":"m 54 917 l 426 917 q 568 883 506 917 q 667 788 631 850 q 703 638 703 725 q 673 496 703 551 q 598 413 642 441 q 518 381 555 385 l 741 0 l 511 0 l 312 365 l 259 365 l 259 0 l 54 0 l 54 917 m 259 507 l 353 507 q 451 534 409 507 q 493 631 493 562 q 452 728 493 701 q 354 755 410 755 l 259 755 l 259 507 m 324 956 l 263 1040 l 489 1234 l 588 1109 l 324 956 z "},"Ř":{"ha":819,"x_min":54,"x_max":741,"o":"m 54 917 l 426 917 q 568 883 506 917 q 667 788 631 850 q 703 638 703 725 q 673 496 703 551 q 598 413 642 441 q 518 381 555 385 l 741 0 l 511 0 l 312 365 l 259 365 l 259 0 l 54 0 l 54 917 m 259 507 l 353 507 q 451 534 409 507 q 493 631 493 562 q 452 728 493 701 q 354 755 410 755 l 259 755 l 259 507 m 171 1103 l 236 1189 l 384 1081 l 531 1189 l 596 1102 l 384 947 l 171 1103 z "},"Ŗ":{"ha":819,"x_min":54,"x_max":741,"o":"m 54 917 l 426 917 q 568 883 506 917 q 667 788 631 850 q 703 638 703 725 q 673 496 703 551 q 598 413 642 441 q 518 381 555 385 l 741 0 l 511 0 l 312 365 l 259 365 l 259 0 l 54 0 l 54 917 m 259 507 l 353 507 q 451 534 409 507 q 493 631 493 562 q 452 728 493 701 q 354 755 410 755 l 259 755 l 259 507 m 383 -50 q 454 -79 424 -50 q 484 -164 484 -108 q 463 -260 484 -213 q 409 -345 442 -307 q 336 -404 375 -383 l 291 -354 q 353 -308 319 -339 q 399 -241 388 -278 q 368 -247 387 -247 q 308 -221 335 -247 q 282 -151 282 -195 q 312 -79 282 -108 q 383 -50 342 -50 z "},"Ȑ":{"ha":819,"x_min":54,"x_max":741,"o":"m 54 917 l 426 917 q 568 883 506 917 q 667 788 631 850 q 703 638 703 725 q 673 496 703 551 q 598 413 642 441 q 518 381 555 385 l 741 0 l 511 0 l 312 365 l 259 365 l 259 0 l 54 0 l 54 917 m 259 507 l 353 507 q 451 534 409 507 q 493 631 493 562 q 452 728 493 701 q 354 755 410 755 l 259 755 l 259 507 m 631 956 l 367 1109 l 466 1234 l 692 1040 l 631 956 m 338 956 l 74 1109 l 174 1234 l 399 1040 l 338 956 z "},"Ȓ":{"ha":819,"x_min":54,"x_max":741,"o":"m 54 917 l 426 917 q 568 883 506 917 q 667 788 631 850 q 703 638 703 725 q 673 496 703 551 q 598 413 642 441 q 518 381 555 385 l 741 0 l 511 0 l 312 365 l 259 365 l 259 0 l 54 0 l 54 917 m 259 507 l 353 507 q 451 534 409 507 q 493 631 493 562 q 452 728 493 701 q 354 755 410 755 l 259 755 l 259 507 m 159 994 q 227 1120 167 1069 q 383 1170 287 1170 q 538 1121 477 1170 q 608 994 599 1072 l 487 965 q 458 1032 483 997 q 383 1066 433 1066 q 308 1032 333 1066 q 279 965 283 997 l 159 994 z "},"S":{"ha":776,"x_min":19,"x_max":708,"o":"m 391 933 q 540 915 476 933 q 642 875 603 896 q 689 847 681 854 l 590 682 q 552 707 579 691 q 489 735 525 722 q 413 747 452 747 q 325 728 358 747 q 292 670 292 709 q 332 603 292 631 q 457 544 372 576 q 582 481 524 519 q 673 387 639 443 q 708 253 708 331 q 659 101 708 161 q 531 13 610 42 q 363 -17 452 -17 q 194 5 269 -17 q 74 51 120 26 q 19 85 28 76 l 122 256 q 171 227 133 248 q 261 189 210 207 q 365 172 313 172 q 462 197 429 172 q 494 263 494 222 q 449 341 494 310 q 312 408 403 373 q 199 467 251 433 q 114 553 147 501 q 81 683 81 606 q 125 816 81 760 q 239 903 168 872 q 391 933 309 933 z "},"Ś":{"ha":776,"x_min":19,"x_max":708,"o":"m 391 933 q 540 915 476 933 q 642 875 603 896 q 689 847 681 854 l 590 682 q 552 707 579 691 q 489 735 525 722 q 413 747 452 747 q 325 728 358 747 q 292 670 292 709 q 332 603 292 631 q 457 544 372 576 q 582 481 524 519 q 673 387 639 443 q 708 253 708 331 q 659 101 708 161 q 531 13 610 42 q 363 -17 452 -17 q 194 5 269 -17 q 74 51 120 26 q 19 85 28 76 l 122 256 q 171 227 133 248 q 261 189 210 207 q 365 172 313 172 q 462 197 429 172 q 494 263 494 222 q 449 341 494 310 q 312 408 403 373 q 199 467 251 433 q 114 553 147 501 q 81 683 81 606 q 125 816 81 760 q 239 903 168 872 q 391 933 309 933 m 308 956 l 246 1040 l 472 1234 l 571 1109 l 308 956 z "},"Š":{"ha":776,"x_min":19,"x_max":708,"o":"m 391 933 q 540 915 476 933 q 642 875 603 896 q 689 847 681 854 l 590 682 q 552 707 579 691 q 489 735 525 722 q 413 747 452 747 q 325 728 358 747 q 292 670 292 709 q 332 603 292 631 q 457 544 372 576 q 582 481 524 519 q 673 387 639 443 q 708 253 708 331 q 659 101 708 161 q 531 13 610 42 q 363 -17 452 -17 q 194 5 269 -17 q 74 51 120 26 q 19 85 28 76 l 122 256 q 171 227 133 248 q 261 189 210 207 q 365 172 313 172 q 462 197 429 172 q 494 263 494 222 q 449 341 494 310 q 312 408 403 373 q 199 467 251 433 q 114 553 147 501 q 81 683 81 606 q 125 816 81 760 q 239 903 168 872 q 391 933 309 933 m 154 1103 l 219 1189 l 367 1081 l 515 1189 l 579 1102 l 367 947 l 154 1103 z "},"Ş":{"ha":776,"x_min":19,"x_max":708,"o":"m 391 933 q 540 915 476 933 q 642 875 603 896 q 689 847 681 854 l 590 682 q 552 707 579 691 q 489 735 525 722 q 413 747 452 747 q 325 728 358 747 q 292 670 292 709 q 332 603 292 631 q 457 544 372 576 q 582 481 524 519 q 673 387 639 443 q 708 253 708 331 q 659 101 708 161 q 531 13 610 42 q 363 -17 452 -17 q 194 5 269 -17 q 74 51 120 26 q 19 85 28 76 l 122 256 q 171 227 133 248 q 261 189 210 207 q 365 172 313 172 q 462 197 429 172 q 494 263 494 222 q 449 341 494 310 q 312 408 403 373 q 199 467 251 433 q 114 553 147 501 q 81 683 81 606 q 125 816 81 760 q 239 903 168 872 q 391 933 309 933 m 333 29 l 406 4 l 381 -59 q 486 -82 439 -55 q 533 -165 533 -110 q 485 -265 533 -228 q 372 -301 437 -301 q 261 -281 306 -301 q 199 -242 216 -260 l 267 -165 q 304 -192 280 -178 q 355 -207 328 -207 q 395 -195 380 -207 q 410 -164 410 -183 q 392 -129 410 -140 q 347 -117 373 -117 q 311 -120 326 -117 q 291 -127 296 -124 l 280 -119 l 333 29 z "},"Ŝ":{"ha":776,"x_min":19,"x_max":708,"o":"m 391 933 q 540 915 476 933 q 642 875 603 896 q 689 847 681 854 l 590 682 q 552 707 579 691 q 489 735 525 722 q 413 747 452 747 q 325 728 358 747 q 292 670 292 709 q 332 603 292 631 q 457 544 372 576 q 582 481 524 519 q 673 387 639 443 q 708 253 708 331 q 659 101 708 161 q 531 13 610 42 q 363 -17 452 -17 q 194 5 269 -17 q 74 51 120 26 q 19 85 28 76 l 122 256 q 171 227 133 248 q 261 189 210 207 q 365 172 313 172 q 462 197 429 172 q 494 263 494 222 q 449 341 494 310 q 312 408 403 373 q 199 467 251 433 q 114 553 147 501 q 81 683 81 606 q 125 816 81 760 q 239 903 168 872 q 391 933 309 933 m 197 971 l 123 1069 l 367 1248 l 610 1069 l 535 970 l 367 1094 l 197 971 z "},"Ș":{"ha":776,"x_min":19,"x_max":708,"o":"m 391 933 q 540 915 476 933 q 642 875 603 896 q 689 847 681 854 l 590 682 q 552 707 579 691 q 489 735 525 722 q 413 747 452 747 q 325 728 358 747 q 292 670 292 709 q 332 603 292 631 q 457 544 372 576 q 582 481 524 519 q 673 387 639 443 q 708 253 708 331 q 659 101 708 161 q 531 13 610 42 q 363 -17 452 -17 q 194 5 269 -17 q 74 51 120 26 q 19 85 28 76 l 122 256 q 171 227 133 248 q 261 189 210 207 q 365 172 313 172 q 462 197 429 172 q 494 263 494 222 q 449 341 494 310 q 312 408 403 373 q 199 467 251 433 q 114 553 147 501 q 81 683 81 606 q 125 816 81 760 q 239 903 168 872 q 391 933 309 933 m 366 -50 q 438 -79 408 -50 q 467 -164 467 -108 q 447 -260 467 -213 q 392 -345 426 -307 q 319 -404 358 -383 l 274 -354 q 337 -308 303 -339 q 382 -241 371 -278 q 351 -247 370 -247 q 292 -221 318 -247 q 265 -151 265 -195 q 295 -79 265 -108 q 366 -50 325 -50 z "},"ẞ":{"ha":892,"x_min":64,"x_max":826,"o":"m 344 172 q 478 151 408 151 q 580 184 540 151 q 619 272 619 217 q 556 369 619 336 q 372 388 493 403 l 372 566 l 531 760 q 478 767 508 765 q 431 769 448 769 q 328 742 365 769 q 278 666 292 715 q 265 552 265 617 l 265 0 l 64 0 l 64 640 q 168 867 64 796 q 449 938 272 938 q 588 927 510 938 q 733 896 667 915 l 732 733 l 556 523 q 651 513 603 523 q 738 474 699 502 q 802 395 778 447 q 826 261 826 344 q 781 104 826 166 q 663 11 736 42 q 502 -19 589 -19 q 344 0 422 -19 l 344 172 z "},"Ə":{"ha":960,"x_min":28,"x_max":899,"o":"m 456 -15 q 228 47 324 -15 q 81 216 133 108 q 28 463 28 324 q 28 480 28 466 q 29 507 28 494 q 31 524 30 520 l 692 524 q 628 686 692 623 q 455 749 563 749 q 341 728 388 749 q 265 681 294 708 q 222 634 236 653 l 68 768 q 142 835 89 796 q 274 903 194 874 q 455 933 353 933 q 680 880 578 933 q 840 722 781 826 q 899 464 899 617 q 845 210 899 317 q 691 43 790 102 q 456 -15 591 -15 m 458 154 q 586 188 535 154 q 663 275 638 222 q 688 383 688 328 l 235 383 q 259 277 235 330 q 332 189 283 224 q 458 154 382 154 z "},"T":{"ha":708,"x_min":10,"x_max":653,"o":"m 229 738 l 10 738 l 10 917 l 653 917 l 653 738 l 434 738 l 434 0 l 229 0 l 229 738 z "},"Ŧ":{"ha":708,"x_min":10,"x_max":653,"o":"m 13 548 l 229 548 l 229 738 l 10 738 l 10 917 l 653 917 l 653 738 l 434 738 l 434 548 l 647 548 l 647 399 l 434 399 l 434 0 l 229 0 l 229 399 l 13 399 l 13 548 z "},"Ť":{"ha":708,"x_min":10,"x_max":653,"o":"m 229 738 l 10 738 l 10 917 l 653 917 l 653 738 l 434 738 l 434 0 l 229 0 l 229 738 m 119 1103 l 185 1189 l 333 1081 l 480 1189 l 544 1102 l 333 947 l 119 1103 z "},"Ţ":{"ha":708,"x_min":10,"x_max":653,"o":"m 229 738 l 10 738 l 10 917 l 653 917 l 653 738 l 434 738 l 434 0 l 229 0 l 229 738 z "},"Ț":{"ha":708,"x_min":10,"x_max":653,"o":"m 229 738 l 10 738 l 10 917 l 653 917 l 653 738 l 434 738 l 434 0 l 229 0 l 229 738 m 331 -50 q 403 -79 373 -50 q 433 -164 433 -108 q 412 -260 433 -213 q 357 -345 391 -307 q 285 -404 324 -383 l 240 -354 q 302 -308 268 -339 q 347 -241 336 -278 q 317 -247 335 -247 q 257 -221 283 -247 q 231 -151 231 -195 q 260 -79 231 -108 q 331 -50 290 -50 z "},"U":{"ha":883,"x_min":56,"x_max":794,"o":"m 590 917 l 794 917 l 794 353 q 750 157 794 240 q 623 28 706 74 q 426 -17 540 -17 q 228 28 311 -17 q 101 157 145 74 q 56 353 56 240 l 56 917 l 260 917 l 260 365 q 305 219 260 269 q 426 169 350 169 q 545 219 501 169 q 590 365 590 269 l 590 917 z "},"Ú":{"ha":883,"x_min":56,"x_max":794,"o":"m 590 917 l 794 917 l 794 353 q 750 157 794 240 q 623 28 706 74 q 426 -17 540 -17 q 228 28 311 -17 q 101 157 145 74 q 56 353 56 240 l 56 917 l 260 917 l 260 365 q 305 219 260 269 q 426 169 350 169 q 545 219 501 169 q 590 365 590 269 l 590 917 m 367 956 l 305 1040 l 531 1234 l 630 1109 l 367 956 z "},"Ŭ":{"ha":883,"x_min":56,"x_max":794,"o":"m 590 917 l 794 917 l 794 353 q 750 157 794 240 q 623 28 706 74 q 426 -17 540 -17 q 228 28 311 -17 q 101 157 145 74 q 56 353 56 240 l 56 917 l 260 917 l 260 365 q 305 219 260 269 q 426 169 350 169 q 545 219 501 169 q 590 365 590 269 l 590 917 m 652 1138 q 583 1011 644 1062 q 426 960 523 960 q 270 1010 331 960 q 200 1138 209 1059 l 322 1167 q 351 1100 326 1135 q 426 1065 376 1065 q 502 1100 476 1065 q 531 1167 527 1135 l 652 1138 z "},"Û":{"ha":883,"x_min":56,"x_max":794,"o":"m 590 917 l 794 917 l 794 353 q 750 157 794 240 q 623 28 706 74 q 426 -17 540 -17 q 228 28 311 -17 q 101 157 145 74 q 56 353 56 240 l 56 917 l 260 917 l 260 365 q 305 219 260 269 q 426 169 350 169 q 545 219 501 169 q 590 365 590 269 l 590 917 m 256 971 l 182 1069 l 426 1248 l 669 1069 l 594 970 l 426 1094 l 256 971 z "},"Ȕ":{"ha":883,"x_min":56,"x_max":794,"o":"m 590 917 l 794 917 l 794 353 q 750 157 794 240 q 623 28 706 74 q 426 -17 540 -17 q 228 28 311 -17 q 101 157 145 74 q 56 353 56 240 l 56 917 l 260 917 l 260 365 q 305 219 260 269 q 426 169 350 169 q 545 219 501 169 q 590 365 590 269 l 590 917 m 673 956 l 410 1109 l 508 1234 l 735 1040 l 673 956 m 380 956 l 117 1109 l 216 1234 l 442 1040 l 380 956 z "},"Ü":{"ha":883,"x_min":56,"x_max":794,"o":"m 590 917 l 794 917 l 794 353 q 750 157 794 240 q 623 28 706 74 q 426 -17 540 -17 q 228 28 311 -17 q 101 157 145 74 q 56 353 56 240 l 56 917 l 260 917 l 260 365 q 305 219 260 269 q 426 169 350 169 q 545 219 501 169 q 590 365 590 269 l 590 917 m 287 1175 q 358 1145 328 1175 q 388 1074 388 1115 q 358 1002 388 1032 q 287 972 328 972 q 215 1002 244 972 q 186 1074 186 1032 q 215 1145 186 1115 q 287 1175 244 1175 m 566 1175 q 637 1145 608 1175 q 666 1074 666 1115 q 637 1002 666 1032 q 566 972 608 972 q 494 1002 524 972 q 465 1074 465 1032 q 494 1145 465 1115 q 566 1175 524 1175 z "},"Ụ":{"ha":883,"x_min":56,"x_max":794,"o":"m 590 917 l 794 917 l 794 353 q 750 157 794 240 q 623 28 706 74 q 426 -17 540 -17 q 228 28 311 -17 q 101 157 145 74 q 56 353 56 240 l 56 917 l 260 917 l 260 365 q 305 219 260 269 q 426 169 350 169 q 545 219 501 169 q 590 365 590 269 l 590 917 m 426 -61 q 482 -85 458 -61 q 505 -142 505 -108 q 482 -198 505 -174 q 426 -221 458 -221 q 370 -197 393 -221 q 347 -142 347 -174 q 370 -85 347 -109 q 426 -61 393 -61 z "},"Ù":{"ha":883,"x_min":56,"x_max":794,"o":"m 590 917 l 794 917 l 794 353 q 750 157 794 240 q 623 28 706 74 q 426 -17 540 -17 q 228 28 311 -17 q 101 157 145 74 q 56 353 56 240 l 56 917 l 260 917 l 260 365 q 305 219 260 269 q 426 169 350 169 q 545 219 501 169 q 590 365 590 269 l 590 917 m 471 956 l 208 1109 l 307 1234 l 533 1040 l 471 956 z "},"Ủ":{"ha":883,"x_min":56,"x_max":794,"o":"m 590 917 l 794 917 l 794 353 q 750 157 794 240 q 623 28 706 74 q 426 -17 540 -17 q 228 28 311 -17 q 101 157 145 74 q 56 353 56 240 l 56 917 l 260 917 l 260 365 q 305 219 260 269 q 426 169 350 169 q 545 219 501 169 q 590 365 590 269 l 590 917 m 353 1032 q 394 1047 369 1035 q 438 1075 419 1058 q 458 1113 458 1092 q 435 1155 458 1147 q 381 1163 412 1163 q 319 1153 350 1163 q 268 1135 289 1144 l 268 1225 q 313 1244 281 1233 q 407 1255 345 1255 q 492 1243 451 1255 q 558 1203 532 1231 q 583 1127 583 1175 q 564 1063 583 1090 q 514 1016 544 1035 q 455 984 485 996 q 403 965 424 972 l 353 1032 z "},"Ư":{"ha":1063,"x_min":56,"x_max":1065,"o":"m 590 917 l 794 917 l 794 353 q 750 157 794 240 q 623 28 706 74 q 426 -17 540 -17 q 228 28 311 -17 q 101 157 145 74 q 56 353 56 240 l 56 917 l 260 917 l 260 365 q 305 219 260 269 q 426 169 350 169 q 545 219 501 169 q 590 365 590 269 l 590 917 m 869 796 q 828 801 845 796 q 794 816 810 807 l 794 917 q 819 902 805 908 q 854 897 833 897 q 908 923 889 897 q 927 983 927 950 q 923 1032 927 1013 q 910 1070 919 1051 l 1042 1070 q 1056 1036 1048 1060 q 1065 969 1065 1011 q 1037 880 1065 919 q 965 818 1010 840 q 869 796 920 796 z "},"Ứ":{"ha":1063,"x_min":56,"x_max":1065,"o":"m 590 917 l 794 917 l 794 353 q 750 157 794 240 q 623 28 706 74 q 426 -17 540 -17 q 228 28 311 -17 q 101 157 145 74 q 56 353 56 240 l 56 917 l 260 917 l 260 365 q 305 219 260 269 q 426 169 350 169 q 545 219 501 169 q 590 365 590 269 l 590 917 m 869 796 q 828 801 845 796 q 794 816 810 807 l 794 917 q 819 902 805 908 q 854 897 833 897 q 908 923 889 897 q 927 983 927 950 q 923 1032 927 1013 q 910 1070 919 1051 l 1042 1070 q 1056 1036 1048 1060 q 1065 969 1065 1011 q 1037 880 1065 919 q 965 818 1010 840 q 869 796 920 796 z "},"Ự":{"ha":1063,"x_min":56,"x_max":1065,"o":"m 590 917 l 794 917 l 794 353 q 750 157 794 240 q 623 28 706 74 q 426 -17 540 -17 q 228 28 311 -17 q 101 157 145 74 q 56 353 56 240 l 56 917 l 260 917 l 260 365 q 305 219 260 269 q 426 169 350 169 q 545 219 501 169 q 590 365 590 269 l 590 917 m 869 796 q 828 801 845 796 q 794 816 810 807 l 794 917 q 819 902 805 908 q 854 897 833 897 q 908 923 889 897 q 927 983 927 950 q 923 1032 927 1013 q 910 1070 919 1051 l 1042 1070 q 1056 1036 1048 1060 q 1065 969 1065 1011 q 1037 880 1065 919 q 965 818 1010 840 q 869 796 920 796 z "},"Ừ":{"ha":1063,"x_min":56,"x_max":1065,"o":"m 590 917 l 794 917 l 794 353 q 750 157 794 240 q 623 28 706 74 q 426 -17 540 -17 q 228 28 311 -17 q 101 157 145 74 q 56 353 56 240 l 56 917 l 260 917 l 260 365 q 305 219 260 269 q 426 169 350 169 q 545 219 501 169 q 590 365 590 269 l 590 917 m 869 796 q 828 801 845 796 q 794 816 810 807 l 794 917 q 819 902 805 908 q 854 897 833 897 q 908 923 889 897 q 927 983 927 950 q 923 1032 927 1013 q 910 1070 919 1051 l 1042 1070 q 1056 1036 1048 1060 q 1065 969 1065 1011 q 1037 880 1065 919 q 965 818 1010 840 q 869 796 920 796 z "},"Ử":{"ha":1063,"x_min":56,"x_max":1065,"o":"m 590 917 l 794 917 l 794 353 q 750 157 794 240 q 623 28 706 74 q 426 -17 540 -17 q 228 28 311 -17 q 101 157 145 74 q 56 353 56 240 l 56 917 l 260 917 l 260 365 q 305 219 260 269 q 426 169 350 169 q 545 219 501 169 q 590 365 590 269 l 590 917 m 869 796 q 828 801 845 796 q 794 816 810 807 l 794 917 q 819 902 805 908 q 854 897 833 897 q 908 923 889 897 q 927 983 927 950 q 923 1032 927 1013 q 910 1070 919 1051 l 1042 1070 q 1056 1036 1048 1060 q 1065 969 1065 1011 q 1037 880 1065 919 q 965 818 1010 840 q 869 796 920 796 m 353 1024 q 394 1042 369 1028 q 438 1075 419 1055 q 458 1122 458 1095 q 435 1169 458 1160 q 381 1178 412 1178 q 319 1167 350 1178 q 268 1146 289 1157 l 268 1252 q 313 1273 281 1260 q 407 1285 345 1285 q 492 1272 451 1285 q 558 1225 532 1258 q 583 1138 583 1193 q 564 1061 583 1094 q 514 1006 544 1028 q 455 968 485 983 q 403 947 424 954 l 353 1024 z "},"Ữ":{"ha":1063,"x_min":56,"x_max":1065,"o":"m 590 917 l 794 917 l 794 353 q 750 157 794 240 q 623 28 706 74 q 426 -17 540 -17 q 228 28 311 -17 q 101 157 145 74 q 56 353 56 240 l 56 917 l 260 917 l 260 365 q 305 219 260 269 q 426 169 350 169 q 545 219 501 169 q 590 365 590 269 l 590 917 m 869 796 q 828 801 845 796 q 794 816 810 807 l 794 917 q 819 902 805 908 q 854 897 833 897 q 908 923 889 897 q 927 983 927 950 q 923 1032 927 1013 q 910 1070 919 1051 l 1042 1070 q 1056 1036 1048 1060 q 1065 969 1065 1011 q 1037 880 1065 919 q 965 818 1010 840 q 869 796 920 796 z "},"Ű":{"ha":883,"x_min":56,"x_max":794,"o":"m 590 917 l 794 917 l 794 353 q 750 157 794 240 q 623 28 706 74 q 426 -17 540 -17 q 228 28 311 -17 q 101 157 145 74 q 56 353 56 240 l 56 917 l 260 917 l 260 365 q 305 219 260 269 q 426 169 350 169 q 545 219 501 169 q 590 365 590 269 l 590 917 m 222 961 l 160 1022 l 352 1190 l 442 1106 l 222 961 m 471 961 l 410 1022 l 601 1190 l 692 1106 l 471 961 z "},"Ȗ":{"ha":883,"x_min":56,"x_max":794,"o":"m 590 917 l 794 917 l 794 353 q 750 157 794 240 q 623 28 706 74 q 426 -17 540 -17 q 228 28 311 -17 q 101 157 145 74 q 56 353 56 240 l 56 917 l 260 917 l 260 365 q 305 219 260 269 q 426 169 350 169 q 545 219 501 169 q 590 365 590 269 l 590 917 m 201 994 q 269 1120 210 1069 q 426 1170 329 1170 q 581 1121 519 1170 q 650 994 642 1072 l 529 965 q 501 1032 526 997 q 426 1066 476 1066 q 350 1032 376 1066 q 322 965 325 997 l 201 994 z "},"Ū":{"ha":883,"x_min":56,"x_max":794,"o":"m 590 917 l 794 917 l 794 353 q 750 157 794 240 q 623 28 706 74 q 426 -17 540 -17 q 228 28 311 -17 q 101 157 145 74 q 56 353 56 240 l 56 917 l 260 917 l 260 365 q 305 219 260 269 q 426 169 350 169 q 545 219 501 169 q 590 365 590 269 l 590 917 m 200 1005 l 200 1135 l 651 1135 l 651 1005 l 200 1005 z "},"Ų":{"ha":876,"x_min":56,"x_max":794,"o":"m 590 917 l 794 917 l 794 353 q 750 157 794 240 q 623 28 706 74 q 426 -17 540 -17 q 228 28 311 -17 q 101 157 145 74 q 56 353 56 240 l 56 917 l 260 917 l 260 365 q 305 219 260 269 q 426 169 350 169 q 545 219 501 169 q 590 365 590 269 l 590 917 m 444 -302 q 382 -290 415 -302 q 328 -251 350 -278 q 306 -175 306 -224 q 324 -105 306 -143 q 369 -32 342 -67 q 422 28 397 3 l 483 0 q 438 -70 461 -26 q 415 -157 415 -114 q 430 -189 415 -178 q 460 -200 444 -200 q 495 -189 480 -200 q 518 -167 511 -178 l 596 -226 q 539 -277 580 -251 q 444 -302 497 -302 z "},"Ů":{"ha":883,"x_min":56,"x_max":794,"o":"m 590 917 l 794 917 l 794 353 q 750 157 794 240 q 623 28 706 74 q 426 -17 540 -17 q 228 28 311 -17 q 101 157 145 74 q 56 353 56 240 l 56 917 l 260 917 l 260 365 q 305 219 260 269 q 426 169 350 169 q 545 219 501 169 q 590 365 590 269 l 590 917 m 269 1083 q 315 1183 269 1144 q 426 1222 360 1222 q 538 1183 492 1222 q 583 1083 583 1144 q 539 983 583 1022 q 426 944 494 944 q 313 983 356 944 q 269 1083 269 1022 m 374 1083 q 389 1043 374 1058 q 426 1028 404 1028 q 463 1044 448 1028 q 478 1083 478 1059 q 463 1122 478 1108 q 426 1136 447 1136 q 390 1122 405 1136 q 374 1083 374 1108 z "},"Ũ":{"ha":883,"x_min":56,"x_max":794,"o":"m 590 917 l 794 917 l 794 353 q 750 157 794 240 q 623 28 706 74 q 426 -17 540 -17 q 228 28 311 -17 q 101 157 145 74 q 56 353 56 240 l 56 917 l 260 917 l 260 365 q 305 219 260 269 q 426 169 350 169 q 545 219 501 169 q 590 365 590 269 l 590 917 m 331 1030 q 299 1013 312 1030 q 281 978 286 995 l 170 978 q 195 1063 176 1019 q 245 1136 214 1106 q 321 1167 277 1167 q 398 1154 365 1167 q 460 1128 431 1141 q 519 1115 489 1115 q 552 1133 540 1115 q 570 1167 565 1151 l 681 1167 q 656 1083 675 1126 q 606 1009 638 1039 q 531 978 575 978 q 454 991 487 978 q 392 1017 421 1004 q 331 1030 363 1030 z "},"V":{"ha":935,"x_min":5,"x_max":890,"o":"m 563 0 l 332 0 l 5 917 l 236 917 l 447 260 l 660 917 l 890 917 l 563 0 z "},"W":{"ha":1267,"x_min":14,"x_max":1203,"o":"m 992 0 l 747 0 l 608 569 l 469 0 l 223 0 l 14 917 l 249 917 l 359 276 l 531 917 l 685 917 l 857 276 l 967 917 l 1203 917 l 992 0 z "},"Ẃ":{"ha":1267,"x_min":14,"x_max":1203,"o":"m 992 0 l 747 0 l 608 569 l 469 0 l 223 0 l 14 917 l 249 917 l 359 276 l 531 917 l 685 917 l 857 276 l 967 917 l 1203 917 l 992 0 m 557 956 l 495 1040 l 722 1234 l 820 1109 l 557 956 z "},"Ŵ":{"ha":1267,"x_min":14,"x_max":1203,"o":"m 992 0 l 747 0 l 608 569 l 469 0 l 223 0 l 14 917 l 249 917 l 359 276 l 531 917 l 685 917 l 857 276 l 967 917 l 1203 917 l 992 0 m 447 971 l 372 1069 l 616 1248 l 859 1069 l 785 970 l 616 1094 l 447 971 z "},"Ẅ":{"ha":1267,"x_min":14,"x_max":1203,"o":"m 992 0 l 747 0 l 608 569 l 469 0 l 223 0 l 14 917 l 249 917 l 359 276 l 531 917 l 685 917 l 857 276 l 967 917 l 1203 917 l 992 0 m 477 1175 q 548 1145 519 1175 q 578 1074 578 1115 q 548 1002 578 1032 q 477 972 519 972 q 406 1002 435 972 q 376 1074 376 1032 q 406 1145 376 1115 q 477 1175 435 1175 m 756 1175 q 827 1145 798 1175 q 856 1074 856 1115 q 827 1002 856 1032 q 756 972 798 972 q 685 1002 714 972 q 656 1074 656 1032 q 685 1145 656 1115 q 756 1175 714 1175 z "},"Ẁ":{"ha":1267,"x_min":14,"x_max":1203,"o":"m 992 0 l 747 0 l 608 569 l 469 0 l 223 0 l 14 917 l 249 917 l 359 276 l 531 917 l 685 917 l 857 276 l 967 917 l 1203 917 l 992 0 m 661 956 l 398 1109 l 497 1234 l 723 1040 l 661 956 z "},"X":{"ha":977,"x_min":6,"x_max":940,"o":"m 596 493 l 940 0 l 673 0 l 460 323 l 253 0 l 6 0 l 331 493 l 36 917 l 297 917 l 467 651 l 637 917 l 886 917 l 596 493 z "},"Y":{"ha":831,"x_min":-24,"x_max":811,"o":"m 292 330 l -24 917 l 225 917 l 394 564 l 564 917 l 811 917 l 497 330 l 497 0 l 292 0 l 292 330 z "},"Ý":{"ha":831,"x_min":-24,"x_max":811,"o":"m 292 330 l -24 917 l 225 917 l 394 564 l 564 917 l 811 917 l 497 330 l 497 0 l 292 0 l 292 330 m 335 956 l 274 1040 l 500 1234 l 599 1109 l 335 956 z "},"Ŷ":{"ha":831,"x_min":-24,"x_max":811,"o":"m 292 330 l -24 917 l 225 917 l 394 564 l 564 917 l 811 917 l 497 330 l 497 0 l 292 0 l 292 330 m 225 971 l 151 1069 l 394 1248 l 638 1069 l 563 970 l 394 1094 l 225 971 z "},"Ÿ":{"ha":831,"x_min":-24,"x_max":811,"o":"m 292 330 l -24 917 l 225 917 l 394 564 l 564 917 l 811 917 l 497 330 l 497 0 l 292 0 l 292 330 m 255 1175 q 326 1145 297 1175 q 356 1074 356 1115 q 326 1002 356 1032 q 255 972 297 972 q 183 1002 213 972 q 154 1074 154 1032 q 183 1145 154 1115 q 255 1175 213 1175 m 534 1175 q 605 1145 576 1175 q 634 1074 634 1115 q 605 1002 634 1032 q 534 972 576 972 q 463 1002 492 972 q 433 1074 433 1032 q 463 1145 433 1115 q 534 1175 492 1175 z "},"Ỵ":{"ha":831,"x_min":-24,"x_max":811,"o":"m 292 330 l -24 917 l 225 917 l 394 564 l 564 917 l 811 917 l 497 330 l 497 0 l 292 0 l 292 330 m 394 -61 q 450 -85 426 -61 q 473 -142 473 -108 q 450 -198 473 -174 q 394 -221 426 -221 q 338 -197 361 -221 q 315 -142 315 -174 q 338 -85 315 -109 q 394 -61 361 -61 z "},"Ỳ":{"ha":831,"x_min":-24,"x_max":811,"o":"m 292 330 l -24 917 l 225 917 l 394 564 l 564 917 l 811 917 l 497 330 l 497 0 l 292 0 l 292 330 m 440 956 l 176 1109 l 276 1234 l 501 1040 l 440 956 z "},"Ỷ":{"ha":831,"x_min":-24,"x_max":811,"o":"m 292 330 l -24 917 l 225 917 l 394 564 l 564 917 l 811 917 l 497 330 l 497 0 l 292 0 l 292 330 m 322 1032 q 362 1047 337 1035 q 406 1075 387 1058 q 426 1113 426 1092 q 403 1155 426 1147 q 349 1163 380 1163 q 288 1153 318 1163 q 236 1135 257 1144 l 236 1225 q 281 1244 249 1233 q 375 1255 313 1255 q 460 1243 419 1255 q 526 1203 500 1231 q 551 1127 551 1175 q 532 1063 551 1090 q 482 1016 512 1035 q 423 984 453 996 q 372 965 392 972 l 322 1032 z "},"Ȳ":{"ha":831,"x_min":-24,"x_max":811,"o":"m 292 330 l -24 917 l 225 917 l 394 564 l 564 917 l 811 917 l 497 330 l 497 0 l 292 0 l 292 330 m 169 1005 l 169 1135 l 620 1135 l 620 1005 l 169 1005 z "},"Ỹ":{"ha":831,"x_min":-24,"x_max":811,"o":"m 292 330 l -24 917 l 225 917 l 394 564 l 564 917 l 811 917 l 497 330 l 497 0 l 292 0 l 292 330 m 300 1030 q 268 1013 281 1030 q 250 978 255 995 l 139 978 q 164 1063 145 1019 q 214 1136 183 1106 q 290 1167 246 1167 q 366 1154 333 1167 q 428 1128 399 1141 q 488 1115 458 1115 q 521 1133 508 1115 q 539 1167 534 1151 l 650 1167 q 625 1083 644 1126 q 575 1009 606 1039 q 499 978 544 978 q 423 991 456 978 q 360 1017 390 1004 q 300 1030 331 1030 z "},"Z":{"ha":874,"x_min":8,"x_max":822,"o":"m 72 917 l 822 917 l 365 179 l 792 179 l 792 0 l 8 0 l 464 738 l 72 738 l 72 917 z "},"Ź":{"ha":874,"x_min":8,"x_max":822,"o":"m 72 917 l 822 917 l 365 179 l 792 179 l 792 0 l 8 0 l 464 738 l 72 738 l 72 917 m 356 956 l 294 1040 l 521 1234 l 619 1109 l 356 956 z "},"Ž":{"ha":874,"x_min":8,"x_max":822,"o":"m 72 917 l 822 917 l 365 179 l 792 179 l 792 0 l 8 0 l 464 738 l 72 738 l 72 917 m 203 1103 l 268 1189 l 416 1081 l 563 1189 l 628 1102 l 416 947 l 203 1103 z "},"Ż":{"ha":874,"x_min":8,"x_max":822,"o":"m 72 917 l 822 917 l 365 179 l 792 179 l 792 0 l 8 0 l 464 738 l 72 738 l 72 917 m 415 1173 q 486 1143 457 1173 q 516 1072 516 1113 q 486 1000 516 1030 q 415 971 457 971 q 344 1000 374 971 q 315 1072 315 1030 q 344 1143 315 1113 q 415 1173 374 1173 z "},"a":{"ha":783,"x_min":27,"x_max":706,"o":"m 501 0 l 501 93 q 470 52 495 78 q 403 5 444 26 q 305 -17 361 -17 q 160 24 222 -17 q 62 132 97 64 q 27 285 27 201 q 62 437 27 368 q 160 546 97 506 q 305 587 222 587 q 399 569 359 587 q 465 528 440 552 q 499 486 490 505 l 499 570 l 706 570 l 706 0 l 501 0 m 231 285 q 271 185 231 224 q 366 147 311 147 q 461 186 424 147 q 499 285 499 225 q 461 384 499 344 q 366 424 424 424 q 271 384 311 424 q 231 285 231 344 z "},"á":{"ha":783,"x_min":27,"x_max":706,"o":"m 501 0 l 501 93 q 470 52 495 78 q 403 5 444 26 q 305 -17 361 -17 q 160 24 222 -17 q 62 132 97 64 q 27 285 27 201 q 62 437 27 368 q 160 546 97 506 q 305 587 222 587 q 399 569 359 587 q 465 528 440 552 q 499 486 490 505 l 499 570 l 706 570 l 706 0 l 501 0 m 231 285 q 271 185 231 224 q 366 147 311 147 q 461 186 424 147 q 499 285 499 225 q 461 384 499 344 q 366 424 424 424 q 271 384 311 424 q 231 285 231 344 z "},"ă":{"ha":775,"x_min":27,"x_max":706,"o":"m 501 0 l 501 93 q 470 52 495 78 q 403 5 444 26 q 305 -17 361 -17 q 160 24 222 -17 q 62 132 97 64 q 27 285 27 201 q 62 437 27 368 q 160 546 97 506 q 305 587 222 587 q 399 569 359 587 q 465 528 440 552 q 499 486 490 505 l 499 570 l 706 570 l 706 0 l 501 0 m 231 285 q 271 185 231 224 q 366 147 311 147 q 461 186 424 147 q 499 285 499 225 q 461 384 499 344 q 366 424 424 424 q 271 384 311 424 q 231 285 231 344 m 628 898 q 550 755 618 812 q 374 699 483 699 q 199 754 267 699 q 119 898 130 809 l 258 932 q 274 881 260 908 q 311 836 287 854 q 374 818 336 818 q 436 836 411 818 q 474 881 461 854 q 490 932 488 908 l 628 898 z "},"ắ":{"ha":783,"x_min":27,"x_max":706,"o":"m 501 0 l 501 93 q 470 52 495 78 q 403 5 444 26 q 305 -17 361 -17 q 160 24 222 -17 q 62 132 97 64 q 27 285 27 201 q 62 437 27 368 q 160 546 97 506 q 305 587 222 587 q 399 569 359 587 q 465 528 440 552 q 499 486 490 505 l 499 570 l 706 570 l 706 0 l 501 0 m 231 285 q 271 185 231 224 q 366 147 311 147 q 461 186 424 147 q 499 285 499 225 q 461 384 499 344 q 366 424 424 424 q 271 384 311 424 q 231 285 231 344 z "},"ặ":{"ha":783,"x_min":27,"x_max":706,"o":"m 501 0 l 501 93 q 470 52 495 78 q 403 5 444 26 q 305 -17 361 -17 q 160 24 222 -17 q 62 132 97 64 q 27 285 27 201 q 62 437 27 368 q 160 546 97 506 q 305 587 222 587 q 399 569 359 587 q 465 528 440 552 q 499 486 490 505 l 499 570 l 706 570 l 706 0 l 501 0 m 231 285 q 271 185 231 224 q 366 147 311 147 q 461 186 424 147 q 499 285 499 225 q 461 384 499 344 q 366 424 424 424 q 271 384 311 424 q 231 285 231 344 z "},"ằ":{"ha":783,"x_min":27,"x_max":706,"o":"m 501 0 l 501 93 q 470 52 495 78 q 403 5 444 26 q 305 -17 361 -17 q 160 24 222 -17 q 62 132 97 64 q 27 285 27 201 q 62 437 27 368 q 160 546 97 506 q 305 587 222 587 q 399 569 359 587 q 465 528 440 552 q 499 486 490 505 l 499 570 l 706 570 l 706 0 l 501 0 m 231 285 q 271 185 231 224 q 366 147 311 147 q 461 186 424 147 q 499 285 499 225 q 461 384 499 344 q 366 424 424 424 q 271 384 311 424 q 231 285 231 344 z "},"ẳ":{"ha":783,"x_min":27,"x_max":706,"o":"m 501 0 l 501 93 q 470 52 495 78 q 403 5 444 26 q 305 -17 361 -17 q 160 24 222 -17 q 62 132 97 64 q 27 285 27 201 q 62 437 27 368 q 160 546 97 506 q 305 587 222 587 q 399 569 359 587 q 465 528 440 552 q 499 486 490 505 l 499 570 l 706 570 l 706 0 l 501 0 m 231 285 q 271 185 231 224 q 366 147 311 147 q 461 186 424 147 q 499 285 499 225 q 461 384 499 344 q 366 424 424 424 q 271 384 311 424 q 231 285 231 344 m 308 973 q 348 990 323 977 q 392 1024 373 1003 q 412 1070 412 1044 q 389 1117 412 1108 q 335 1126 366 1126 q 274 1116 304 1126 q 222 1094 243 1106 l 222 1201 q 267 1222 235 1209 q 361 1234 299 1234 q 446 1220 406 1234 q 512 1174 486 1206 q 538 1086 538 1142 q 518 1010 538 1043 q 468 954 498 977 q 409 917 439 931 q 358 895 378 903 l 308 973 z "},"ẵ":{"ha":783,"x_min":27,"x_max":706,"o":"m 501 0 l 501 93 q 470 52 495 78 q 403 5 444 26 q 305 -17 361 -17 q 160 24 222 -17 q 62 132 97 64 q 27 285 27 201 q 62 437 27 368 q 160 546 97 506 q 305 587 222 587 q 399 569 359 587 q 465 528 440 552 q 499 486 490 505 l 499 570 l 706 570 l 706 0 l 501 0 m 231 285 q 271 185 231 224 q 366 147 311 147 q 461 186 424 147 q 499 285 499 225 q 461 384 499 344 q 366 424 424 424 q 271 384 311 424 q 231 285 231 344 z "},"ǎ":{"ha":783,"x_min":27,"x_max":706,"o":"m 501 0 l 501 93 q 470 52 495 78 q 403 5 444 26 q 305 -17 361 -17 q 160 24 222 -17 q 62 132 97 64 q 27 285 27 201 q 62 437 27 368 q 160 546 97 506 q 305 587 222 587 q 399 569 359 587 q 465 528 440 552 q 499 486 490 505 l 499 570 l 706 570 l 706 0 l 501 0 m 231 285 q 271 185 231 224 q 366 147 311 147 q 461 186 424 147 q 499 285 499 225 q 461 384 499 344 q 366 424 424 424 q 271 384 311 424 q 231 285 231 344 z "},"â":{"ha":783,"x_min":27,"x_max":706,"o":"m 501 0 l 501 93 q 470 52 495 78 q 403 5 444 26 q 305 -17 361 -17 q 160 24 222 -17 q 62 132 97 64 q 27 285 27 201 q 62 437 27 368 q 160 546 97 506 q 305 587 222 587 q 399 569 359 587 q 465 528 440 552 q 499 486 490 505 l 499 570 l 706 570 l 706 0 l 501 0 m 231 285 q 271 185 231 224 q 366 147 311 147 q 461 186 424 147 q 499 285 499 225 q 461 384 499 344 q 366 424 424 424 q 271 384 311 424 q 231 285 231 344 z "},"ấ":{"ha":783,"x_min":27,"x_max":706,"o":"m 501 0 l 501 93 q 470 52 495 78 q 403 5 444 26 q 305 -17 361 -17 q 160 24 222 -17 q 62 132 97 64 q 27 285 27 201 q 62 437 27 368 q 160 546 97 506 q 305 587 222 587 q 399 569 359 587 q 465 528 440 552 q 499 486 490 505 l 499 570 l 706 570 l 706 0 l 501 0 m 231 285 q 271 185 231 224 q 366 147 311 147 q 461 186 424 147 q 499 285 499 225 q 461 384 499 344 q 366 424 424 424 q 271 384 311 424 q 231 285 231 344 z "},"ậ":{"ha":783,"x_min":27,"x_max":706,"o":"m 501 0 l 501 93 q 470 52 495 78 q 403 5 444 26 q 305 -17 361 -17 q 160 24 222 -17 q 62 132 97 64 q 27 285 27 201 q 62 437 27 368 q 160 546 97 506 q 305 587 222 587 q 399 569 359 587 q 465 528 440 552 q 499 486 490 505 l 499 570 l 706 570 l 706 0 l 501 0 m 231 285 q 271 185 231 224 q 366 147 311 147 q 461 186 424 147 q 499 285 499 225 q 461 384 499 344 q 366 424 424 424 q 271 384 311 424 q 231 285 231 344 z "},"ầ":{"ha":783,"x_min":27,"x_max":706,"o":"m 501 0 l 501 93 q 470 52 495 78 q 403 5 444 26 q 305 -17 361 -17 q 160 24 222 -17 q 62 132 97 64 q 27 285 27 201 q 62 437 27 368 q 160 546 97 506 q 305 587 222 587 q 399 569 359 587 q 465 528 440 552 q 499 486 490 505 l 499 570 l 706 570 l 706 0 l 501 0 m 231 285 q 271 185 231 224 q 366 147 311 147 q 461 186 424 147 q 499 285 499 225 q 461 384 499 344 q 366 424 424 424 q 271 384 311 424 q 231 285 231 344 z "},"ẩ":{"ha":783,"x_min":27,"x_max":706,"o":"m 501 0 l 501 93 q 470 52 495 78 q 403 5 444 26 q 305 -17 361 -17 q 160 24 222 -17 q 62 132 97 64 q 27 285 27 201 q 62 437 27 368 q 160 546 97 506 q 305 587 222 587 q 399 569 359 587 q 465 528 440 552 q 499 486 490 505 l 499 570 l 706 570 l 706 0 l 501 0 m 231 285 q 271 185 231 224 q 366 147 311 147 q 461 186 424 147 q 499 285 499 225 q 461 384 499 344 q 366 424 424 424 q 271 384 311 424 q 231 285 231 344 m 308 1003 q 348 1021 323 1008 q 392 1054 373 1034 q 412 1101 412 1074 q 389 1148 412 1139 q 335 1157 366 1157 q 274 1147 304 1157 q 222 1125 243 1136 l 222 1231 q 267 1252 235 1240 q 361 1265 299 1265 q 446 1251 406 1265 q 512 1205 486 1237 q 538 1117 538 1172 q 518 1041 538 1074 q 468 985 498 1008 q 409 948 439 962 q 358 926 378 933 l 308 1003 z "},"ẫ":{"ha":783,"x_min":27,"x_max":706,"o":"m 501 0 l 501 93 q 470 52 495 78 q 403 5 444 26 q 305 -17 361 -17 q 160 24 222 -17 q 62 132 97 64 q 27 285 27 201 q 62 437 27 368 q 160 546 97 506 q 305 587 222 587 q 399 569 359 587 q 465 528 440 552 q 499 486 490 505 l 499 570 l 706 570 l 706 0 l 501 0 m 231 285 q 271 185 231 224 q 366 147 311 147 q 461 186 424 147 q 499 285 499 225 q 461 384 499 344 q 366 424 424 424 q 271 384 311 424 q 231 285 231 344 z "},"ȁ":{"ha":783,"x_min":27,"x_max":706,"o":"m 501 0 l 501 93 q 470 52 495 78 q 403 5 444 26 q 305 -17 361 -17 q 160 24 222 -17 q 62 132 97 64 q 27 285 27 201 q 62 437 27 368 q 160 546 97 506 q 305 587 222 587 q 399 569 359 587 q 465 528 440 552 q 499 486 490 505 l 499 570 l 706 570 l 706 0 l 501 0 m 231 285 q 271 185 231 224 q 366 147 311 147 q 461 186 424 147 q 499 285 499 225 q 461 384 499 344 q 366 424 424 424 q 271 384 311 424 q 231 285 231 344 z "},"ä":{"ha":783,"x_min":27,"x_max":706,"o":"m 501 0 l 501 93 q 470 52 495 78 q 403 5 444 26 q 305 -17 361 -17 q 160 24 222 -17 q 62 132 97 64 q 27 285 27 201 q 62 437 27 368 q 160 546 97 506 q 305 587 222 587 q 399 569 359 587 q 465 528 440 552 q 499 486 490 505 l 499 570 l 706 570 l 706 0 l 501 0 m 231 285 q 271 185 231 224 q 366 147 311 147 q 461 186 424 147 q 499 285 499 225 q 461 384 499 344 q 366 424 424 424 q 271 384 311 424 q 231 285 231 344 z "},"ạ":{"ha":783,"x_min":27,"x_max":706,"o":"m 501 0 l 501 93 q 470 52 495 78 q 403 5 444 26 q 305 -17 361 -17 q 160 24 222 -17 q 62 132 97 64 q 27 285 27 201 q 62 437 27 368 q 160 546 97 506 q 305 587 222 587 q 399 569 359 587 q 465 528 440 552 q 499 486 490 505 l 499 570 l 706 570 l 706 0 l 501 0 m 231 285 q 271 185 231 224 q 366 147 311 147 q 461 186 424 147 q 499 285 499 225 q 461 384 499 344 q 366 424 424 424 q 271 384 311 424 q 231 285 231 344 z "},"à":{"ha":783,"x_min":27,"x_max":706,"o":"m 501 0 l 501 93 q 470 52 495 78 q 403 5 444 26 q 305 -17 361 -17 q 160 24 222 -17 q 62 132 97 64 q 27 285 27 201 q 62 437 27 368 q 160 546 97 506 q 305 587 222 587 q 399 569 359 587 q 465 528 440 552 q 499 486 490 505 l 499 570 l 706 570 l 706 0 l 501 0 m 231 285 q 271 185 231 224 q 366 147 311 147 q 461 186 424 147 q 499 285 499 225 q 461 384 499 344 q 366 424 424 424 q 271 384 311 424 q 231 285 231 344 z "},"ả":{"ha":783,"x_min":27,"x_max":706,"o":"m 501 0 l 501 93 q 470 52 495 78 q 403 5 444 26 q 305 -17 361 -17 q 160 24 222 -17 q 62 132 97 64 q 27 285 27 201 q 62 437 27 368 q 160 546 97 506 q 305 587 222 587 q 399 569 359 587 q 465 528 440 552 q 499 486 490 505 l 499 570 l 706 570 l 706 0 l 501 0 m 231 285 q 271 185 231 224 q 366 147 311 147 q 461 186 424 147 q 499 285 499 225 q 461 384 499 344 q 366 424 424 424 q 271 384 311 424 q 231 285 231 344 m 308 678 q 348 695 323 682 q 392 728 373 708 q 412 775 412 749 q 389 822 412 813 q 335 831 366 831 q 274 821 304 831 q 222 799 243 810 l 222 906 q 267 926 235 914 q 361 939 299 939 q 446 925 406 939 q 512 879 486 911 q 538 791 538 847 q 518 715 538 748 q 468 659 498 682 q 409 622 439 636 q 358 600 378 608 l 308 678 z "},"ȃ":{"ha":783,"x_min":27,"x_max":706,"o":"m 501 0 l 501 93 q 470 52 495 78 q 403 5 444 26 q 305 -17 361 -17 q 160 24 222 -17 q 62 132 97 64 q 27 285 27 201 q 62 437 27 368 q 160 546 97 506 q 305 587 222 587 q 399 569 359 587 q 465 528 440 552 q 499 486 490 505 l 499 570 l 706 570 l 706 0 l 501 0 m 231 285 q 271 185 231 224 q 366 147 311 147 q 461 186 424 147 q 499 285 499 225 q 461 384 499 344 q 366 424 424 424 q 271 384 311 424 q 231 285 231 344 z "},"ā":{"ha":775,"x_min":27,"x_max":706,"o":"m 501 0 l 501 93 q 470 52 495 78 q 403 5 444 26 q 305 -17 361 -17 q 160 24 222 -17 q 62 132 97 64 q 27 285 27 201 q 62 437 27 368 q 160 546 97 506 q 305 587 222 587 q 399 569 359 587 q 465 528 440 552 q 499 486 490 505 l 499 570 l 706 570 l 706 0 l 501 0 m 231 285 q 271 185 231 224 q 366 147 311 147 q 461 186 424 147 q 499 285 499 225 q 461 384 499 344 q 366 424 424 424 q 271 384 311 424 q 231 285 231 344 m 148 706 l 148 836 l 599 836 l 599 706 l 148 706 z "},"ą":{"ha":775,"x_min":27,"x_max":752,"o":"m 501 0 l 501 93 q 470 52 495 78 q 403 5 444 26 q 305 -17 361 -17 q 160 24 222 -17 q 62 132 97 64 q 27 285 27 201 q 62 437 27 368 q 160 546 97 506 q 305 587 222 587 q 399 569 359 587 q 465 528 440 552 q 499 486 490 505 l 499 570 l 706 570 l 706 0 l 501 0 m 231 285 q 271 185 231 224 q 366 147 311 147 q 461 186 424 147 q 499 285 499 225 q 461 384 499 344 q 366 424 424 424 q 271 384 311 424 q 231 285 231 344 m 600 -302 q 539 -290 571 -302 q 484 -251 506 -278 q 462 -175 462 -224 q 480 -105 462 -143 q 526 -32 499 -67 q 578 28 553 3 l 639 0 q 594 -70 617 -26 q 572 -157 572 -114 q 586 -189 572 -178 q 616 -200 601 -200 q 652 -189 636 -200 q 674 -167 667 -178 l 752 -226 q 695 -277 736 -251 q 600 -302 653 -302 z "},"å":{"ha":783,"x_min":27,"x_max":706,"o":"m 501 0 l 501 93 q 470 52 495 78 q 403 5 444 26 q 305 -17 361 -17 q 160 24 222 -17 q 62 132 97 64 q 27 285 27 201 q 62 437 27 368 q 160 546 97 506 q 305 587 222 587 q 399 569 359 587 q 465 528 440 552 q 499 486 490 505 l 499 570 l 706 570 l 706 0 l 501 0 m 231 285 q 271 185 231 224 q 366 147 311 147 q 461 186 424 147 q 499 285 499 225 q 461 384 499 344 q 366 424 424 424 q 271 384 311 424 q 231 285 231 344 z "},"ǻ":{"ha":783,"x_min":27,"x_max":706,"o":"m 501 0 l 501 93 q 470 52 495 78 q 403 5 444 26 q 305 -17 361 -17 q 160 24 222 -17 q 62 132 97 64 q 27 285 27 201 q 62 437 27 368 q 160 546 97 506 q 305 587 222 587 q 399 569 359 587 q 465 528 440 552 q 499 486 490 505 l 499 570 l 706 570 l 706 0 l 501 0 m 231 285 q 271 185 231 224 q 366 147 311 147 q 461 186 424 147 q 499 285 499 225 q 461 384 499 344 q 366 424 424 424 q 271 384 311 424 q 231 285 231 344 z "},"ã":{"ha":783,"x_min":27,"x_max":706,"o":"m 501 0 l 501 93 q 470 52 495 78 q 403 5 444 26 q 305 -17 361 -17 q 160 24 222 -17 q 62 132 97 64 q 27 285 27 201 q 62 437 27 368 q 160 546 97 506 q 305 587 222 587 q 399 569 359 587 q 465 528 440 552 q 499 486 490 505 l 499 570 l 706 570 l 706 0 l 501 0 m 231 285 q 271 185 231 224 q 366 147 311 147 q 461 186 424 147 q 499 285 499 225 q 461 384 499 344 q 366 424 424 424 q 271 384 311 424 q 231 285 231 344 z "},"æ":{"ha":1092,"x_min":36,"x_max":1041,"o":"m 263 -17 q 109 34 170 -17 q 47 178 47 85 q 77 268 47 228 q 160 333 108 309 q 281 358 213 358 q 384 341 349 358 q 431 316 419 324 l 431 332 q 393 412 431 381 q 283 442 356 442 q 184 427 228 442 q 122 399 141 413 l 36 531 q 133 568 64 549 q 299 587 203 587 q 443 555 383 587 q 524 483 503 524 q 611 553 553 519 q 744 587 669 587 q 898 555 831 587 q 1003 456 965 522 q 1041 285 1041 389 q 1040 271 1041 278 q 1040 258 1040 263 l 625 258 q 648 186 625 213 q 701 147 670 159 q 756 135 732 135 q 846 156 803 135 q 912 201 889 178 l 1024 85 q 911 14 980 44 q 744 -17 842 -17 q 608 15 670 -17 q 510 94 545 47 q 465 46 498 72 q 382 2 433 20 q 263 -17 331 -17 m 631 363 l 857 363 q 845 402 854 378 q 814 445 835 426 q 751 465 792 465 q 669 435 702 465 q 631 363 635 406 m 302 102 q 365 126 339 102 q 390 181 390 151 q 366 233 390 213 q 307 254 341 254 q 247 233 274 254 q 220 178 220 213 q 244 125 220 147 q 302 102 267 103 z "},"ǽ":{"ha":1092,"x_min":36,"x_max":1041,"o":"m 263 -17 q 109 34 170 -17 q 47 178 47 85 q 77 268 47 228 q 160 333 108 309 q 281 358 213 358 q 384 341 349 358 q 431 316 419 324 l 431 332 q 393 412 431 381 q 283 442 356 442 q 184 427 228 442 q 122 399 141 413 l 36 531 q 133 568 64 549 q 299 587 203 587 q 443 555 383 587 q 524 483 503 524 q 611 553 553 519 q 744 587 669 587 q 898 555 831 587 q 1003 456 965 522 q 1041 285 1041 389 q 1040 271 1041 278 q 1040 258 1040 263 l 625 258 q 648 186 625 213 q 701 147 670 159 q 756 135 732 135 q 846 156 803 135 q 912 201 889 178 l 1024 85 q 911 14 980 44 q 744 -17 842 -17 q 608 15 670 -17 q 510 94 545 47 q 465 46 498 72 q 382 2 433 20 q 263 -17 331 -17 m 631 363 l 857 363 q 845 402 854 378 q 814 445 835 426 q 751 465 792 465 q 669 435 702 465 q 631 363 635 406 m 302 102 q 365 126 339 102 q 390 181 390 151 q 366 233 390 213 q 307 254 341 254 q 247 233 274 254 q 220 178 220 213 q 244 125 220 147 q 302 102 267 103 z "},"b":{"ha":774,"x_min":56,"x_max":735,"o":"m 56 0 l 56 956 l 263 956 l 263 486 q 296 529 269 506 q 365 570 322 553 q 463 587 408 587 q 606 546 545 587 q 701 437 667 506 q 735 285 735 368 q 701 132 735 201 q 606 24 667 64 q 463 -17 545 -17 q 375 0 416 -17 q 305 42 335 17 q 261 93 275 67 l 261 0 l 56 0 m 531 285 q 492 384 531 344 q 399 424 454 424 q 302 384 341 424 q 263 285 263 344 q 302 186 263 225 q 399 147 341 147 q 492 185 454 147 q 531 285 531 224 z "},"c":{"ha":591,"x_min":37,"x_max":563,"o":"m 367 147 q 433 160 407 147 q 467 183 458 174 l 563 41 q 494 5 547 27 q 365 -17 442 -17 q 193 20 267 -17 q 78 125 119 58 q 37 285 37 193 q 78 445 37 378 q 193 550 119 513 q 365 587 267 587 q 493 565 440 587 q 563 528 547 542 l 466 386 q 433 408 458 392 q 367 424 408 424 q 275 385 315 424 q 235 285 235 346 q 275 186 235 225 q 367 147 315 147 z "},"ć":{"ha":567,"x_min":37,"x_max":563,"o":"m 367 147 q 433 160 407 147 q 467 183 458 174 l 563 41 q 494 5 547 27 q 365 -17 442 -17 q 193 20 267 -17 q 78 125 119 58 q 37 285 37 193 q 78 445 37 378 q 193 550 119 513 q 365 587 267 587 q 493 565 440 587 q 563 528 547 542 l 466 386 q 433 408 458 392 q 367 424 408 424 q 275 385 315 424 q 235 285 235 346 q 275 186 235 225 q 367 147 315 147 m 272 653 l 211 738 l 436 932 l 535 807 l 272 653 z "},"č":{"ha":567,"x_min":37,"x_max":563,"o":"m 367 147 q 433 160 407 147 q 467 183 458 174 l 563 41 q 494 5 547 27 q 365 -17 442 -17 q 193 20 267 -17 q 78 125 119 58 q 37 285 37 193 q 78 445 37 378 q 193 550 119 513 q 365 587 267 587 q 493 565 440 587 q 563 528 547 542 l 466 386 q 433 408 458 392 q 367 424 408 424 q 275 385 315 424 q 235 285 235 346 q 275 186 235 225 q 367 147 315 147 m 63 832 l 138 931 l 307 808 l 476 931 l 551 831 l 307 653 l 63 832 z "},"ç":{"ha":567,"x_min":37,"x_max":563,"o":"m 367 147 q 433 160 407 147 q 467 183 458 174 l 563 41 q 494 5 547 27 q 365 -17 442 -17 q 193 20 267 -17 q 78 125 119 58 q 37 285 37 193 q 78 445 37 378 q 193 550 119 513 q 365 587 267 587 q 493 565 440 587 q 563 528 547 542 l 466 386 q 433 408 458 392 q 367 424 408 424 q 275 385 315 424 q 235 285 235 346 q 275 186 235 225 q 367 147 315 147 m 251 29 l 324 4 l 299 -59 q 403 -82 356 -55 q 451 -165 451 -110 q 402 -265 451 -228 q 289 -301 354 -301 q 178 -281 224 -301 q 116 -242 133 -260 l 185 -165 q 221 -192 197 -178 q 272 -207 245 -207 q 313 -195 297 -207 q 328 -164 328 -183 q 309 -129 328 -140 q 265 -117 290 -117 q 228 -120 243 -117 q 208 -127 213 -124 l 197 -119 l 251 29 z "},"ĉ":{"ha":591,"x_min":37,"x_max":563,"o":"m 367 147 q 433 160 407 147 q 467 183 458 174 l 563 41 q 494 5 547 27 q 365 -17 442 -17 q 193 20 267 -17 q 78 125 119 58 q 37 285 37 193 q 78 445 37 378 q 193 550 119 513 q 365 587 267 587 q 493 565 440 587 q 563 528 547 542 l 466 386 q 433 408 458 392 q 367 424 408 424 q 275 385 315 424 q 235 285 235 346 q 275 186 235 225 q 367 147 315 147 z "},"ċ":{"ha":567,"x_min":37,"x_max":563,"o":"m 367 147 q 433 160 407 147 q 467 183 458 174 l 563 41 q 494 5 547 27 q 365 -17 442 -17 q 193 20 267 -17 q 78 125 119 58 q 37 285 37 193 q 78 445 37 378 q 193 550 119 513 q 365 587 267 587 q 493 565 440 587 q 563 528 547 542 l 466 386 q 433 408 458 392 q 367 424 408 424 q 275 385 315 424 q 235 285 235 346 q 275 186 235 225 q 367 147 315 147 m 314 878 q 385 848 356 878 q 415 776 415 818 q 385 705 415 735 q 314 676 356 676 q 243 705 272 676 q 213 776 213 735 q 243 848 213 818 q 314 878 272 878 z "},"d":{"ha":774,"x_min":31,"x_max":710,"o":"m 710 0 l 710 956 l 503 956 l 503 486 q 470 529 497 506 q 401 570 444 553 q 303 587 358 587 q 160 546 221 587 q 65 437 99 506 q 31 285 31 368 q 65 132 31 201 q 160 24 99 64 q 303 -17 221 -17 q 391 0 350 -17 q 461 42 431 17 q 505 93 491 67 l 505 0 l 710 0 m 235 285 q 274 384 235 344 q 367 424 312 424 q 464 384 425 424 q 503 285 503 344 q 464 186 503 225 q 367 147 425 147 q 274 185 312 147 q 235 285 235 224 z "},"ð":{"ha":775,"x_min":44,"x_max":726,"o":"m 44 285 q 73 417 44 360 q 146 512 101 474 q 245 568 192 549 q 351 587 299 587 q 451 570 420 587 q 494 541 482 554 q 465 600 486 567 q 415 663 443 633 q 357 710 386 693 l 252 607 l 168 692 l 238 762 q 167 790 203 777 q 114 806 131 803 l 159 969 q 248 942 190 962 q 368 892 306 922 l 449 972 l 532 885 l 473 827 q 600 708 543 781 q 692 538 658 636 q 726 315 726 440 q 682 139 726 214 q 562 24 638 65 q 388 -17 485 -17 q 208 22 285 -17 q 88 128 131 60 q 44 285 44 197 m 249 285 q 286 188 249 227 q 385 148 323 148 q 486 188 451 148 q 521 285 521 227 q 485 386 521 349 q 385 422 449 422 q 286 384 324 422 q 249 285 249 345 z "},"ď":{"ha":856,"x_min":31,"x_max":955,"o":"m 710 0 l 710 956 l 503 956 l 503 486 q 470 529 497 506 q 401 570 444 553 q 303 587 358 587 q 160 546 221 587 q 65 437 99 506 q 31 285 31 368 q 65 132 31 201 q 160 24 99 64 q 303 -17 221 -17 q 391 0 350 -17 q 461 42 431 17 q 505 93 491 67 l 505 0 l 710 0 m 235 285 q 274 384 235 344 q 367 424 312 424 q 464 384 425 424 q 503 285 503 344 q 464 186 503 225 q 367 147 425 147 q 274 185 312 147 q 235 285 235 224 z "},"đ":{"ha":774,"x_min":31,"x_max":777,"o":"m 710 0 l 504 0 l 504 93 q 461 42 491 67 q 391 0 431 17 q 303 -17 350 -17 q 159 24 221 -17 q 65 132 98 64 q 31 285 31 201 q 65 437 31 368 q 159 546 98 506 q 303 587 221 587 q 401 570 358 587 q 470 529 444 553 q 502 486 497 506 l 502 699 l 378 699 l 378 823 l 502 823 l 502 956 l 710 956 l 710 823 l 777 823 l 777 699 l 710 699 l 710 0 m 235 285 q 273 185 235 224 q 367 147 312 147 q 464 186 425 147 q 502 285 502 225 q 464 384 502 344 q 367 424 425 424 q 273 384 312 424 q 235 285 235 344 z "},"ǆ":{"ha":1397,"x_min":31,"x_max":1380,"o":"m 710 0 l 710 956 l 503 956 l 503 486 q 470 529 497 506 q 401 570 444 553 q 303 587 358 587 q 160 546 221 587 q 65 437 99 506 q 31 285 31 368 q 65 132 31 201 q 160 24 99 64 q 303 -17 221 -17 q 391 0 350 -17 q 461 42 431 17 q 505 93 491 67 l 505 0 l 710 0 m 235 285 q 274 384 235 344 q 367 424 312 424 q 464 384 425 424 q 503 285 503 344 q 464 186 503 225 q 367 147 425 147 q 274 185 312 147 q 235 285 235 224 m 817 570 l 1380 570 l 1094 145 l 1358 145 l 1358 0 l 772 0 l 1058 426 l 817 426 l 817 570 z "},"e":{"ha":692,"x_min":28,"x_max":641,"o":"m 226 241 q 266 165 229 194 q 367 135 303 135 q 470 153 427 135 q 533 190 513 170 l 615 60 q 530 7 588 31 q 353 -17 471 -17 q 185 19 258 -17 q 69 123 111 54 q 28 292 28 192 q 64 441 28 374 q 170 548 101 508 q 337 587 239 587 q 559 510 476 587 q 641 285 641 434 q 640 263 641 279 q 639 241 640 246 l 226 241 m 442 351 q 417 415 441 384 q 340 446 392 446 q 260 417 288 446 q 231 351 233 388 l 442 351 z "},"é":{"ha":692,"x_min":28,"x_max":641,"o":"m 226 241 q 266 165 229 194 q 367 135 303 135 q 470 153 427 135 q 533 190 513 170 l 615 60 q 530 7 588 31 q 353 -17 471 -17 q 185 19 258 -17 q 69 123 111 54 q 28 292 28 192 q 64 441 28 374 q 170 548 101 508 q 337 587 239 587 q 559 510 476 587 q 641 285 641 434 q 640 263 641 279 q 639 241 640 246 l 226 241 m 442 351 q 417 415 441 384 q 340 446 392 446 q 260 417 288 446 q 231 351 233 388 l 442 351 z "},"ĕ":{"ha":692,"x_min":28,"x_max":641,"o":"m 226 241 q 266 165 229 194 q 367 135 303 135 q 470 153 427 135 q 533 190 513 170 l 615 60 q 530 7 588 31 q 353 -17 471 -17 q 185 19 258 -17 q 69 123 111 54 q 28 292 28 192 q 64 441 28 374 q 170 548 101 508 q 337 587 239 587 q 559 510 476 587 q 641 285 641 434 q 640 263 641 279 q 639 241 640 246 l 226 241 m 442 351 q 417 415 441 384 q 340 446 392 446 q 260 417 288 446 q 231 351 233 388 l 442 351 z "},"ě":{"ha":696,"x_min":28,"x_max":641,"o":"m 226 241 q 266 165 229 194 q 367 135 303 135 q 470 153 427 135 q 533 190 513 170 l 615 60 q 530 7 588 31 q 353 -17 471 -17 q 185 19 258 -17 q 69 123 111 54 q 28 292 28 192 q 64 441 28 374 q 170 548 101 508 q 337 587 239 587 q 559 510 476 587 q 641 285 641 434 q 640 263 641 279 q 639 241 640 246 l 226 241 m 442 351 q 417 415 441 384 q 340 446 392 446 q 260 417 288 446 q 231 351 233 388 l 442 351 m 81 832 l 156 931 l 325 808 l 494 931 l 569 831 l 325 653 l 81 832 z "},"ê":{"ha":692,"x_min":28,"x_max":641,"o":"m 226 241 q 266 165 229 194 q 367 135 303 135 q 470 153 427 135 q 533 190 513 170 l 615 60 q 530 7 588 31 q 353 -17 471 -17 q 185 19 258 -17 q 69 123 111 54 q 28 292 28 192 q 64 441 28 374 q 170 548 101 508 q 337 587 239 587 q 559 510 476 587 q 641 285 641 434 q 640 263 641 279 q 639 241 640 246 l 226 241 m 442 351 q 417 415 441 384 q 340 446 392 446 q 260 417 288 446 q 231 351 233 388 l 442 351 z "},"ế":{"ha":692,"x_min":28,"x_max":641,"o":"m 226 241 q 266 165 229 194 q 367 135 303 135 q 470 153 427 135 q 533 190 513 170 l 615 60 q 530 7 588 31 q 353 -17 471 -17 q 185 19 258 -17 q 69 123 111 54 q 28 292 28 192 q 64 441 28 374 q 170 548 101 508 q 337 587 239 587 q 559 510 476 587 q 641 285 641 434 q 640 263 641 279 q 639 241 640 246 l 226 241 m 442 351 q 417 415 441 384 q 340 446 392 446 q 260 417 288 446 q 231 351 233 388 l 442 351 z "},"ệ":{"ha":692,"x_min":28,"x_max":641,"o":"m 226 241 q 266 165 229 194 q 367 135 303 135 q 470 153 427 135 q 533 190 513 170 l 615 60 q 530 7 588 31 q 353 -17 471 -17 q 185 19 258 -17 q 69 123 111 54 q 28 292 28 192 q 64 441 28 374 q 170 548 101 508 q 337 587 239 587 q 559 510 476 587 q 641 285 641 434 q 640 263 641 279 q 639 241 640 246 l 226 241 m 442 351 q 417 415 441 384 q 340 446 392 446 q 260 417 288 446 q 231 351 233 388 l 442 351 z "},"ề":{"ha":692,"x_min":28,"x_max":641,"o":"m 226 241 q 266 165 229 194 q 367 135 303 135 q 470 153 427 135 q 533 190 513 170 l 615 60 q 530 7 588 31 q 353 -17 471 -17 q 185 19 258 -17 q 69 123 111 54 q 28 292 28 192 q 64 441 28 374 q 170 548 101 508 q 337 587 239 587 q 559 510 476 587 q 641 285 641 434 q 640 263 641 279 q 639 241 640 246 l 226 241 m 442 351 q 417 415 441 384 q 340 446 392 446 q 260 417 288 446 q 231 351 233 388 l 442 351 z "},"ể":{"ha":692,"x_min":28,"x_max":641,"o":"m 226 241 q 266 165 229 194 q 367 135 303 135 q 470 153 427 135 q 533 190 513 170 l 615 60 q 530 7 588 31 q 353 -17 471 -17 q 185 19 258 -17 q 69 123 111 54 q 28 292 28 192 q 64 441 28 374 q 170 548 101 508 q 337 587 239 587 q 559 510 476 587 q 641 285 641 434 q 640 263 641 279 q 639 241 640 246 l 226 241 m 442 351 q 417 415 441 384 q 340 446 392 446 q 260 417 288 446 q 231 351 233 388 l 442 351 m 266 1003 q 306 1021 281 1008 q 351 1054 331 1034 q 370 1101 370 1074 q 347 1148 370 1139 q 293 1157 324 1157 q 232 1147 263 1157 q 181 1125 201 1136 l 181 1231 q 225 1252 193 1240 q 319 1265 258 1265 q 404 1251 364 1265 q 470 1205 444 1237 q 496 1117 496 1172 q 476 1041 496 1074 q 427 985 456 1008 q 367 948 397 962 q 316 926 337 933 l 266 1003 z "},"ễ":{"ha":692,"x_min":28,"x_max":641,"o":"m 226 241 q 266 165 229 194 q 367 135 303 135 q 470 153 427 135 q 533 190 513 170 l 615 60 q 530 7 588 31 q 353 -17 471 -17 q 185 19 258 -17 q 69 123 111 54 q 28 292 28 192 q 64 441 28 374 q 170 548 101 508 q 337 587 239 587 q 559 510 476 587 q 641 285 641 434 q 640 263 641 279 q 639 241 640 246 l 226 241 m 442 351 q 417 415 441 384 q 340 446 392 446 q 260 417 288 446 q 231 351 233 388 l 442 351 z "},"ȅ":{"ha":692,"x_min":28,"x_max":653,"o":"m 226 241 q 266 165 229 194 q 367 135 303 135 q 470 153 427 135 q 533 190 513 170 l 615 60 q 530 7 588 31 q 353 -17 471 -17 q 185 19 258 -17 q 69 123 111 54 q 28 292 28 192 q 64 441 28 374 q 170 548 101 508 q 337 587 239 587 q 559 510 476 587 q 641 285 641 434 q 640 263 641 279 q 639 241 640 246 l 226 241 m 442 351 q 417 415 441 384 q 340 446 392 446 q 260 417 288 446 q 231 351 233 388 l 442 351 z "},"ë":{"ha":692,"x_min":28,"x_max":641,"o":"m 226 241 q 266 165 229 194 q 367 135 303 135 q 470 153 427 135 q 533 190 513 170 l 615 60 q 530 7 588 31 q 353 -17 471 -17 q 185 19 258 -17 q 69 123 111 54 q 28 292 28 192 q 64 441 28 374 q 170 548 101 508 q 337 587 239 587 q 559 510 476 587 q 641 285 641 434 q 640 263 641 279 q 639 241 640 246 l 226 241 m 442 351 q 417 415 441 384 q 340 446 392 446 q 260 417 288 446 q 231 351 233 388 l 442 351 z "},"ė":{"ha":696,"x_min":28,"x_max":641,"o":"m 226 241 q 266 165 229 194 q 367 135 303 135 q 470 153 427 135 q 533 190 513 170 l 615 60 q 530 7 588 31 q 353 -17 471 -17 q 185 19 258 -17 q 69 123 111 54 q 28 292 28 192 q 64 441 28 374 q 170 548 101 508 q 337 587 239 587 q 559 510 476 587 q 641 285 641 434 q 640 263 641 279 q 639 241 640 246 l 226 241 m 442 351 q 417 415 441 384 q 340 446 392 446 q 260 417 288 446 q 231 351 233 388 l 442 351 m 325 878 q 396 848 367 878 q 426 776 426 818 q 396 705 426 735 q 325 676 367 676 q 254 705 283 676 q 224 776 224 735 q 254 848 224 818 q 325 878 283 878 z "},"ẹ":{"ha":692,"x_min":28,"x_max":641,"o":"m 226 241 q 266 165 229 194 q 367 135 303 135 q 470 153 427 135 q 533 190 513 170 l 615 60 q 530 7 588 31 q 353 -17 471 -17 q 185 19 258 -17 q 69 123 111 54 q 28 292 28 192 q 64 441 28 374 q 170 548 101 508 q 337 587 239 587 q 559 510 476 587 q 641 285 641 434 q 640 263 641 279 q 639 241 640 246 l 226 241 m 442 351 q 417 415 441 384 q 340 446 392 446 q 260 417 288 446 q 231 351 233 388 l 442 351 z "},"è":{"ha":692,"x_min":28,"x_max":641,"o":"m 226 241 q 266 165 229 194 q 367 135 303 135 q 470 153 427 135 q 533 190 513 170 l 615 60 q 530 7 588 31 q 353 -17 471 -17 q 185 19 258 -17 q 69 123 111 54 q 28 292 28 192 q 64 441 28 374 q 170 548 101 508 q 337 587 239 587 q 559 510 476 587 q 641 285 641 434 q 640 263 641 279 q 639 241 640 246 l 226 241 m 442 351 q 417 415 441 384 q 340 446 392 446 q 260 417 288 446 q 231 351 233 388 l 442 351 z "},"ẻ":{"ha":692,"x_min":28,"x_max":641,"o":"m 226 241 q 266 165 229 194 q 367 135 303 135 q 470 153 427 135 q 533 190 513 170 l 615 60 q 530 7 588 31 q 353 -17 471 -17 q 185 19 258 -17 q 69 123 111 54 q 28 292 28 192 q 64 441 28 374 q 170 548 101 508 q 337 587 239 587 q 559 510 476 587 q 641 285 641 434 q 640 263 641 279 q 639 241 640 246 l 226 241 m 442 351 q 417 415 441 384 q 340 446 392 446 q 260 417 288 446 q 231 351 233 388 l 442 351 m 266 678 q 306 695 281 682 q 351 728 331 708 q 370 775 370 749 q 347 822 370 813 q 293 831 324 831 q 232 821 263 831 q 181 799 201 810 l 181 906 q 225 926 193 914 q 319 939 258 939 q 404 925 364 939 q 470 879 444 911 q 496 791 496 847 q 476 715 496 748 q 427 659 456 682 q 367 622 397 636 q 316 600 337 608 l 266 678 z "},"ȇ":{"ha":692,"x_min":28,"x_max":641,"o":"m 226 241 q 266 165 229 194 q 367 135 303 135 q 470 153 427 135 q 533 190 513 170 l 615 60 q 530 7 588 31 q 353 -17 471 -17 q 185 19 258 -17 q 69 123 111 54 q 28 292 28 192 q 64 441 28 374 q 170 548 101 508 q 337 587 239 587 q 559 510 476 587 q 641 285 641 434 q 640 263 641 279 q 639 241 640 246 l 226 241 m 442 351 q 417 415 441 384 q 340 446 392 446 q 260 417 288 446 q 231 351 233 388 l 442 351 z "},"ē":{"ha":696,"x_min":28,"x_max":641,"o":"m 226 241 q 266 165 229 194 q 367 135 303 135 q 470 153 427 135 q 533 190 513 170 l 615 60 q 530 7 588 31 q 353 -17 471 -17 q 185 19 258 -17 q 69 123 111 54 q 28 292 28 192 q 64 441 28 374 q 170 548 101 508 q 337 587 239 587 q 559 510 476 587 q 641 285 641 434 q 640 263 641 279 q 639 241 640 246 l 226 241 m 442 351 q 417 415 441 384 q 340 446 392 446 q 260 417 288 446 q 231 351 233 388 l 442 351 m 103 706 l 103 836 l 553 836 l 553 706 l 103 706 z "},"ę":{"ha":696,"x_min":28,"x_max":641,"o":"m 226 241 q 266 165 229 194 q 367 135 303 135 q 470 153 427 135 q 533 190 513 170 l 615 60 q 530 7 588 31 q 353 -17 471 -17 q 185 19 258 -17 q 69 123 111 54 q 28 292 28 192 q 64 441 28 374 q 170 548 101 508 q 337 587 239 587 q 559 510 476 587 q 641 285 641 434 q 640 263 641 279 q 639 241 640 246 l 226 241 m 442 351 q 417 415 441 384 q 340 446 392 446 q 260 417 288 446 q 231 351 233 388 l 442 351 m 404 -302 q 343 -290 375 -302 q 288 -251 310 -278 q 266 -175 266 -224 q 284 -105 266 -143 q 330 -32 303 -67 q 382 28 357 3 l 443 0 q 399 -70 422 -26 q 376 -157 376 -114 q 390 -189 376 -178 q 420 -200 405 -200 q 456 -189 440 -200 q 478 -167 472 -178 l 556 -226 q 499 -277 540 -251 q 404 -302 458 -302 z "},"ẽ":{"ha":692,"x_min":28,"x_max":641,"o":"m 226 241 q 266 165 229 194 q 367 135 303 135 q 470 153 427 135 q 533 190 513 170 l 615 60 q 530 7 588 31 q 353 -17 471 -17 q 185 19 258 -17 q 69 123 111 54 q 28 292 28 192 q 64 441 28 374 q 170 548 101 508 q 337 587 239 587 q 559 510 476 587 q 641 285 641 434 q 640 263 641 279 q 639 241 640 246 l 226 241 m 442 351 q 417 415 441 384 q 340 446 392 446 q 260 417 288 446 q 231 351 233 388 l 442 351 z "},"ə":{"ha":692,"x_min":51,"x_max":664,"o":"m 465 329 q 426 406 463 376 q 324 435 389 435 q 222 417 265 435 q 158 380 178 400 l 76 510 q 162 563 103 539 q 338 587 221 587 q 507 551 433 587 q 622 447 581 516 q 664 278 664 378 q 627 129 664 196 q 522 23 591 62 q 355 -17 453 -17 q 133 60 215 -17 q 51 285 51 136 q 51 308 51 291 q 53 329 52 324 l 465 329 m 249 219 q 275 155 251 186 q 351 124 299 124 q 431 153 404 124 q 460 219 458 183 l 249 219 z "},"f":{"ha":489,"x_min":15,"x_max":515,"o":"m 15 570 l 110 570 l 110 721 q 145 860 110 804 q 236 944 181 916 q 353 972 292 972 q 466 952 427 972 q 515 922 505 932 l 435 770 q 418 785 432 775 q 381 796 404 796 q 338 778 358 796 q 317 703 317 760 l 317 570 l 459 570 l 459 399 l 317 399 l 317 0 l 110 0 l 110 399 l 15 399 l 15 570 z "},"g":{"ha":784,"x_min":27,"x_max":706,"o":"m 358 -305 q 182 -280 267 -305 q 45 -190 97 -255 l 167 -63 q 233 -117 191 -92 q 348 -142 274 -142 q 459 -106 417 -142 q 501 -3 501 -70 l 501 93 q 470 52 495 78 q 403 5 444 26 q 305 -17 361 -17 q 160 24 222 -17 q 62 132 97 64 q 27 285 27 201 q 62 437 27 368 q 160 546 97 506 q 305 587 222 587 q 399 569 359 587 q 465 528 440 552 q 499 486 490 505 l 499 570 l 706 570 l 706 -16 q 660 -175 706 -111 q 534 -272 613 -240 q 358 -305 455 -305 m 231 285 q 271 185 231 224 q 366 147 311 147 q 461 186 424 147 q 499 285 499 225 q 461 384 499 344 q 366 424 424 424 q 271 384 311 424 q 231 285 231 344 z "},"ğ":{"ha":775,"x_min":27,"x_max":706,"o":"m 358 -305 q 182 -280 267 -305 q 45 -190 97 -255 l 167 -63 q 233 -117 191 -92 q 348 -142 274 -142 q 459 -106 417 -142 q 501 -3 501 -70 l 501 93 q 470 52 495 78 q 403 5 444 26 q 305 -17 361 -17 q 160 24 222 -17 q 62 132 97 64 q 27 285 27 201 q 62 437 27 368 q 160 546 97 506 q 305 587 222 587 q 399 569 359 587 q 465 528 440 552 q 499 486 490 505 l 499 570 l 706 570 l 706 -16 q 660 -175 706 -111 q 534 -272 613 -240 q 358 -305 455 -305 m 231 285 q 271 185 231 224 q 366 147 311 147 q 461 186 424 147 q 499 285 499 225 q 461 384 499 344 q 366 424 424 424 q 271 384 311 424 q 231 285 231 344 m 617 898 q 539 755 607 812 q 363 699 472 699 q 188 754 256 699 q 108 898 119 809 l 247 932 q 263 881 249 908 q 300 836 276 854 q 363 818 325 818 q 425 836 400 818 q 463 881 450 854 q 479 932 476 908 l 617 898 z "},"ǧ":{"ha":784,"x_min":27,"x_max":706,"o":"m 358 -305 q 182 -280 267 -305 q 45 -190 97 -255 l 167 -63 q 233 -117 191 -92 q 348 -142 274 -142 q 459 -106 417 -142 q 501 -3 501 -70 l 501 93 q 470 52 495 78 q 403 5 444 26 q 305 -17 361 -17 q 160 24 222 -17 q 62 132 97 64 q 27 285 27 201 q 62 437 27 368 q 160 546 97 506 q 305 587 222 587 q 399 569 359 587 q 465 528 440 552 q 499 486 490 505 l 499 570 l 706 570 l 706 -16 q 660 -175 706 -111 q 534 -272 613 -240 q 358 -305 455 -305 m 231 285 q 271 185 231 224 q 366 147 311 147 q 461 186 424 147 q 499 285 499 225 q 461 384 499 344 q 366 424 424 424 q 271 384 311 424 q 231 285 231 344 z "},"ĝ":{"ha":784,"x_min":27,"x_max":706,"o":"m 358 -305 q 182 -280 267 -305 q 45 -190 97 -255 l 167 -63 q 233 -117 191 -92 q 348 -142 274 -142 q 459 -106 417 -142 q 501 -3 501 -70 l 501 93 q 470 52 495 78 q 403 5 444 26 q 305 -17 361 -17 q 160 24 222 -17 q 62 132 97 64 q 27 285 27 201 q 62 437 27 368 q 160 546 97 506 q 305 587 222 587 q 399 569 359 587 q 465 528 440 552 q 499 486 490 505 l 499 570 l 706 570 l 706 -16 q 660 -175 706 -111 q 534 -272 613 -240 q 358 -305 455 -305 m 231 285 q 271 185 231 224 q 366 147 311 147 q 461 186 424 147 q 499 285 499 225 q 461 384 499 344 q 366 424 424 424 q 271 384 311 424 q 231 285 231 344 z "},"ģ":{"ha":784,"x_min":27,"x_max":706,"o":"m 358 -305 q 182 -280 267 -305 q 45 -190 97 -255 l 167 -63 q 233 -117 191 -92 q 348 -142 274 -142 q 459 -106 417 -142 q 501 -3 501 -70 l 501 93 q 470 52 495 78 q 403 5 444 26 q 305 -17 361 -17 q 160 24 222 -17 q 62 132 97 64 q 27 285 27 201 q 62 437 27 368 q 160 546 97 506 q 305 587 222 587 q 399 569 359 587 q 465 528 440 552 q 499 486 490 505 l 499 570 l 706 570 l 706 -16 q 660 -175 706 -111 q 534 -272 613 -240 q 358 -305 455 -305 m 231 285 q 271 185 231 224 q 366 147 311 147 q 461 186 424 147 q 499 285 499 225 q 461 384 499 344 q 366 424 424 424 q 271 384 311 424 q 231 285 231 344 z "},"ġ":{"ha":775,"x_min":27,"x_max":706,"o":"m 358 -305 q 182 -280 267 -305 q 45 -190 97 -255 l 167 -63 q 233 -117 191 -92 q 348 -142 274 -142 q 459 -106 417 -142 q 501 -3 501 -70 l 501 93 q 470 52 495 78 q 403 5 444 26 q 305 -17 361 -17 q 160 24 222 -17 q 62 132 97 64 q 27 285 27 201 q 62 437 27 368 q 160 546 97 506 q 305 587 222 587 q 399 569 359 587 q 465 528 440 552 q 499 486 490 505 l 499 570 l 706 570 l 706 -16 q 660 -175 706 -111 q 534 -272 613 -240 q 358 -305 455 -305 m 231 285 q 271 185 231 224 q 366 147 311 147 q 461 186 424 147 q 499 285 499 225 q 461 384 499 344 q 366 424 424 424 q 271 384 311 424 q 231 285 231 344 m 349 878 q 420 848 390 878 q 449 776 449 818 q 420 705 449 735 q 349 676 390 676 q 277 705 307 676 q 248 776 248 735 q 277 848 248 818 q 349 878 307 878 z "},"h":{"ha":768,"x_min":55,"x_max":701,"o":"m 453 587 q 570 563 513 587 q 664 485 627 538 q 701 348 701 433 l 701 0 l 492 0 l 492 314 q 464 407 492 375 q 389 438 437 438 q 302 401 341 438 q 263 306 263 365 l 263 0 l 55 0 l 55 956 l 263 956 l 263 485 q 298 532 271 508 q 366 571 325 556 q 453 587 406 587 z "},"ħ":{"ha":768,"x_min":-15,"x_max":701,"o":"m -15 699 l -15 823 l 55 823 l 55 956 l 263 956 l 263 823 l 384 823 l 384 699 l 263 699 l 263 485 q 298 532 271 508 q 366 571 325 556 q 453 587 406 587 q 570 563 513 587 q 664 485 627 538 q 701 348 701 433 l 701 0 l 492 0 l 492 314 q 464 407 492 375 q 389 438 437 438 q 302 401 341 438 q 263 306 263 365 l 263 0 l 55 0 l 55 699 l -15 699 z "},"ĥ":{"ha":768,"x_min":55,"x_max":701,"o":"m 453 587 q 570 563 513 587 q 664 485 627 538 q 701 348 701 433 l 701 0 l 492 0 l 492 314 q 464 407 492 375 q 389 438 437 438 q 302 401 341 438 q 263 306 263 365 l 263 0 l 55 0 l 55 956 l 263 956 l 263 485 q 298 532 271 508 q 366 571 325 556 q 453 587 406 587 z "},"i":{"ha":362,"x_min":55,"x_max":292,"o":"m 172 690 q 89 724 124 690 q 55 808 55 759 q 89 891 55 856 q 172 926 124 926 q 256 891 221 926 q 292 808 292 856 q 257 724 292 759 q 172 690 222 690 m 66 0 l 66 570 l 274 570 l 274 0 l 66 0 z "},"ı":{"ha":301,"x_min":44,"x_max":237,"o":"m 44 0 l 44 570 l 237 570 l 237 0 l 44 0 z "},"í":{"ha":301,"x_min":-10,"x_max":315,"o":"m 44 0 l 44 570 l 237 570 l 237 0 l 44 0 z "},"ĭ":{"ha":301,"x_min":-113,"x_max":395,"o":"m 44 0 l 44 570 l 237 570 l 237 0 l 44 0 z "},"ǐ":{"ha":301,"x_min":-92,"x_max":396,"o":"m 44 0 l 44 570 l 237 570 l 237 0 l 44 0 z "},"î":{"ha":301,"x_min":-103,"x_max":385,"o":"m 44 0 l 44 570 l 237 570 l 237 0 l 44 0 z "},"ȉ":{"ha":301,"x_min":-162,"x_max":456,"o":"m 44 0 l 44 570 l 237 570 l 237 0 l 44 0 z "},"ï":{"ha":301,"x_min":-89,"x_max":391,"o":"m 44 0 l 44 570 l 237 570 l 237 0 l 44 0 z "},"ị":{"ha":362,"x_min":55,"x_max":292,"o":"m 172 690 q 89 724 124 690 q 55 808 55 759 q 89 891 55 856 q 172 926 124 926 q 256 891 221 926 q 292 808 292 856 q 257 724 292 759 q 172 690 222 690 m 66 0 l 66 570 l 274 570 l 274 0 l 66 0 z "},"ì":{"ha":301,"x_min":-10,"x_max":315,"o":"m 44 0 l 44 570 l 237 570 l 237 0 l 44 0 z "},"ỉ":{"ha":301,"x_min":-17,"x_max":298,"o":"m 44 0 l 44 570 l 237 570 l 237 0 l 44 0 m 68 678 q 108 695 83 682 q 153 728 133 708 q 172 775 172 749 q 149 822 172 813 q 95 831 126 831 q 34 821 65 831 q -17 799 3 810 l -17 906 q 27 926 -5 914 q 122 939 60 939 q 206 925 166 939 q 272 879 247 911 q 298 791 298 847 q 278 715 298 748 q 229 659 258 682 q 169 622 199 636 q 118 600 139 608 l 68 678 z "},"ȋ":{"ha":301,"x_min":-114,"x_max":394,"o":"m 44 0 l 44 570 l 237 570 l 237 0 l 44 0 z "},"ī":{"ha":301,"x_min":-85,"x_max":366,"o":"m 44 0 l 44 570 l 237 570 l 237 0 l 44 0 m -85 706 l -85 836 l 366 836 l 366 706 l -85 706 z "},"į":{"ha":362,"x_min":24,"x_max":315,"o":"m 172 690 q 89 724 124 690 q 55 808 55 759 q 89 891 55 856 q 172 926 124 926 q 256 891 221 926 q 292 808 292 856 q 257 724 292 759 q 172 690 222 690 m 66 0 l 66 570 l 274 570 l 274 0 l 66 0 m 163 -302 q 101 -290 133 -302 q 47 -251 69 -278 q 24 -175 24 -224 q 43 -105 24 -143 q 88 -32 61 -67 q 140 28 115 3 l 201 0 q 157 -70 180 -26 q 134 -157 134 -114 q 149 -189 134 -178 q 178 -200 163 -200 q 214 -189 199 -200 q 237 -167 230 -178 l 315 -226 q 257 -277 299 -251 q 163 -302 216 -302 z "},"ĩ":{"ha":301,"x_min":-103,"x_max":408,"o":"m 44 0 l 44 570 l 237 570 l 237 0 l 44 0 z "},"j":{"ha":372,"x_min":-99,"x_max":300,"o":"m 182 690 q 99 724 133 690 q 64 808 64 759 q 99 891 64 856 q 182 926 133 926 q 265 891 231 926 q 300 808 300 856 q 265 724 300 759 q 182 690 231 690 m 64 -306 q -38 -293 2 -306 q -99 -269 -78 -281 l -34 -115 q 18 -131 -13 -131 q 76 -37 76 -131 l 76 570 l 284 570 l 284 -70 q 232 -238 284 -171 q 64 -306 180 -306 z "},"ȷ":{"ha":372,"x_min":-99,"x_max":284,"o":"m 64 -306 q -38 -293 2 -306 q -99 -269 -78 -281 l -34 -115 q 18 -131 -13 -131 q 76 -37 76 -131 l 76 570 l 284 570 l 284 -70 q 232 -238 284 -171 q 64 -306 180 -306 z "},"ĵ":{"ha":372,"x_min":-99,"x_max":431,"o":"m 64 -306 q -38 -293 2 -306 q -99 -269 -78 -281 l -34 -115 q 18 -131 -13 -131 q 76 -37 76 -131 l 76 570 l 284 570 l 284 -70 q 232 -238 284 -171 q 64 -306 180 -306 z "},"k":{"ha":708,"x_min":39,"x_max":710,"o":"m 447 570 l 683 570 l 413 298 l 710 0 l 469 0 l 247 230 l 247 0 l 39 0 l 39 956 l 247 956 l 247 371 l 447 570 z "},"ķ":{"ha":708,"x_min":39,"x_max":710,"o":"m 447 570 l 683 570 l 413 298 l 710 0 l 469 0 l 247 230 l 247 0 l 39 0 l 39 956 l 247 956 l 247 371 l 447 570 z "},"ĸ":{"ha":720,"x_min":44,"x_max":697,"o":"m 411 288 l 697 0 l 451 0 l 249 217 l 249 0 l 44 0 l 44 570 l 249 570 l 249 354 l 428 570 l 662 570 l 411 288 z "},"l":{"ha":345,"x_min":58,"x_max":267,"o":"m 267 0 l 58 0 l 58 956 l 267 956 l 267 0 z "},"ĺ":{"ha":345,"x_min":57,"x_max":381,"o":"m 267 0 l 58 0 l 58 956 l 267 956 l 267 0 m 118 1039 l 57 1123 l 282 1317 l 381 1192 l 118 1039 z "},"ľ":{"ha":345,"x_min":58,"x_max":508,"o":"m 267 0 l 58 0 l 58 956 l 267 956 l 267 0 z "},"ļ":{"ha":345,"x_min":58,"x_max":267,"o":"m 267 0 l 58 0 l 58 956 l 267 956 l 267 0 z "},"ŀ":{"ha":553,"x_min":58,"x_max":553,"o":"m 267 0 l 58 0 l 58 956 l 267 956 l 267 0 z "},"ǉ":{"ha":717,"x_min":58,"x_max":645,"o":"m 267 0 l 58 0 l 58 956 l 267 956 l 267 0 m 527 690 q 444 724 478 690 q 409 808 409 759 q 444 891 409 856 q 527 926 478 926 q 610 891 576 926 q 645 808 645 856 q 610 724 645 759 q 527 690 576 690 m 409 -306 q 307 -293 347 -306 q 247 -269 267 -281 l 311 -115 q 363 -131 332 -131 q 421 -37 421 -131 l 421 570 l 629 570 l 629 -70 q 577 -238 629 -171 q 409 -306 525 -306 z "},"ł":{"ha":403,"x_min":12,"x_max":372,"o":"m 95 0 l 95 347 l 12 281 l 12 448 l 95 514 l 95 956 l 288 956 l 288 665 l 372 731 l 372 564 l 288 498 l 288 0 l 95 0 z "},"m":{"ha":1124,"x_min":59,"x_max":1058,"o":"m 840 587 q 997 526 936 587 q 1058 335 1058 465 l 1058 0 l 853 0 l 853 303 q 835 401 853 364 q 763 438 817 438 q 685 401 715 438 q 655 303 655 365 l 655 0 l 464 0 l 464 303 q 444 401 464 364 q 374 438 424 438 q 295 402 324 438 q 265 303 265 366 l 265 0 l 59 0 l 59 570 l 265 570 l 265 489 q 302 533 274 510 q 372 571 331 556 q 460 587 413 587 q 576 554 536 587 q 635 477 616 521 q 674 527 645 502 q 746 570 703 553 q 840 587 789 587 z "},"n":{"ha":760,"x_min":51,"x_max":695,"o":"m 449 587 q 565 563 508 587 q 658 485 622 538 q 695 348 695 433 l 695 0 l 487 0 l 487 314 q 457 407 487 375 q 380 438 428 438 q 295 401 333 438 q 258 306 258 365 l 258 0 l 51 0 l 51 570 l 258 570 l 258 485 q 293 532 266 508 q 361 571 320 556 q 449 587 401 587 z "},"ń":{"ha":760,"x_min":51,"x_max":695,"o":"m 449 587 q 565 563 508 587 q 658 485 622 538 q 695 348 695 433 l 695 0 l 487 0 l 487 314 q 457 407 487 375 q 380 438 428 438 q 295 401 333 438 q 258 306 258 365 l 258 0 l 51 0 l 51 570 l 258 570 l 258 485 q 293 532 266 508 q 361 571 320 556 q 449 587 401 587 m 351 653 l 290 738 l 515 932 l 614 807 l 351 653 z "},"ň":{"ha":760,"x_min":51,"x_max":695,"o":"m 449 587 q 565 563 508 587 q 658 485 622 538 q 695 348 695 433 l 695 0 l 487 0 l 487 314 q 457 407 487 375 q 380 438 428 438 q 295 401 333 438 q 258 306 258 365 l 258 0 l 51 0 l 51 570 l 258 570 l 258 485 q 293 532 266 508 q 361 571 320 556 q 449 587 401 587 m 112 832 l 187 931 l 356 808 l 525 931 l 599 831 l 356 653 l 112 832 z "},"ņ":{"ha":760,"x_min":51,"x_max":695,"o":"m 449 587 q 565 563 508 587 q 658 485 622 538 q 695 348 695 433 l 695 0 l 487 0 l 487 314 q 457 407 487 375 q 380 438 428 438 q 295 401 333 438 q 258 306 258 365 l 258 0 l 51 0 l 51 570 l 258 570 l 258 485 q 293 532 266 508 q 361 571 320 556 q 449 587 401 587 z "},"ŋ":{"ha":760,"x_min":51,"x_max":695,"o":"m 449 587 q 565 563 508 587 q 658 485 622 538 q 695 348 695 433 l 695 -40 q 671 -159 695 -99 q 596 -261 647 -220 q 468 -302 546 -302 q 363 -289 398 -302 q 313 -267 328 -276 l 381 -112 q 402 -123 388 -118 q 434 -128 417 -128 q 475 -100 463 -128 q 487 -26 487 -73 l 487 314 q 457 407 487 375 q 380 438 428 438 q 295 401 333 438 q 258 306 258 365 l 258 0 l 51 0 l 51 570 l 258 570 l 258 485 q 293 532 266 508 q 361 571 320 556 q 449 587 401 587 z "},"ǌ":{"ha":1133,"x_min":51,"x_max":1060,"o":"m 449 587 q 565 563 508 587 q 658 485 622 538 q 695 348 695 433 l 695 0 l 487 0 l 487 314 q 457 407 487 375 q 380 438 428 438 q 295 401 333 438 q 258 306 258 365 l 258 0 l 51 0 l 51 570 l 258 570 l 258 485 q 293 532 266 508 q 361 571 320 556 q 449 587 401 587 m 942 690 q 859 724 894 690 q 824 808 824 759 q 859 891 824 856 q 942 926 894 926 q 1026 891 991 926 q 1060 808 1060 856 q 1026 724 1060 759 q 942 690 991 690 m 824 -306 q 722 -293 763 -306 q 662 -269 682 -281 l 726 -115 q 778 -131 747 -131 q 836 -37 836 -131 l 836 570 l 1044 570 l 1044 -70 q 992 -238 1044 -171 q 824 -306 940 -306 z "},"ñ":{"ha":760,"x_min":51,"x_max":695,"o":"m 449 587 q 565 563 508 587 q 658 485 622 538 q 695 348 695 433 l 695 0 l 487 0 l 487 314 q 457 407 487 375 q 380 438 428 438 q 295 401 333 438 q 258 306 258 365 l 258 0 l 51 0 l 51 570 l 258 570 l 258 485 q 293 532 266 508 q 361 571 320 556 q 449 587 401 587 z "},"o":{"ha":717,"x_min":27,"x_max":665,"o":"m 348 -17 q 183 22 255 -17 q 69 128 110 60 q 27 283 27 196 q 69 439 27 371 q 183 547 110 508 q 348 587 255 587 q 513 547 442 587 q 625 439 585 508 q 665 283 665 371 q 625 128 665 196 q 513 22 585 60 q 348 -17 442 -17 m 348 155 q 436 191 403 155 q 469 284 469 227 q 436 378 469 342 q 348 415 403 415 q 260 378 293 415 q 226 284 226 342 q 260 191 226 227 q 348 155 293 155 z "},"ó":{"ha":717,"x_min":27,"x_max":665,"o":"m 348 -17 q 183 22 255 -17 q 69 128 110 60 q 27 283 27 196 q 69 439 27 371 q 183 547 110 508 q 348 587 255 587 q 513 547 442 587 q 625 439 585 508 q 665 283 665 371 q 625 128 665 196 q 513 22 585 60 q 348 -17 442 -17 m 348 155 q 436 191 403 155 q 469 284 469 227 q 436 378 469 342 q 348 415 403 415 q 260 378 293 415 q 226 284 226 342 q 260 191 226 227 q 348 155 293 155 z "},"ŏ":{"ha":717,"x_min":27,"x_max":665,"o":"m 348 -17 q 183 22 255 -17 q 69 128 110 60 q 27 283 27 196 q 69 439 27 371 q 183 547 110 508 q 348 587 255 587 q 513 547 442 587 q 625 439 585 508 q 665 283 665 371 q 625 128 665 196 q 513 22 585 60 q 348 -17 442 -17 m 348 155 q 436 191 403 155 q 469 284 469 227 q 436 378 469 342 q 348 415 403 415 q 260 378 293 415 q 226 284 226 342 q 260 191 226 227 q 348 155 293 155 z "},"ǒ":{"ha":717,"x_min":27,"x_max":665,"o":"m 348 -17 q 183 22 255 -17 q 69 128 110 60 q 27 283 27 196 q 69 439 27 371 q 183 547 110 508 q 348 587 255 587 q 513 547 442 587 q 625 439 585 508 q 665 283 665 371 q 625 128 665 196 q 513 22 585 60 q 348 -17 442 -17 m 348 155 q 436 191 403 155 q 469 284 469 227 q 436 378 469 342 q 348 415 403 415 q 260 378 293 415 q 226 284 226 342 q 260 191 226 227 q 348 155 293 155 z "},"ô":{"ha":717,"x_min":27,"x_max":665,"o":"m 348 -17 q 183 22 255 -17 q 69 128 110 60 q 27 283 27 196 q 69 439 27 371 q 183 547 110 508 q 348 587 255 587 q 513 547 442 587 q 625 439 585 508 q 665 283 665 371 q 625 128 665 196 q 513 22 585 60 q 348 -17 442 -17 m 348 155 q 436 191 403 155 q 469 284 469 227 q 436 378 469 342 q 348 415 403 415 q 260 378 293 415 q 226 284 226 342 q 260 191 226 227 q 348 155 293 155 z "},"ố":{"ha":717,"x_min":27,"x_max":665,"o":"m 348 -17 q 183 22 255 -17 q 69 128 110 60 q 27 283 27 196 q 69 439 27 371 q 183 547 110 508 q 348 587 255 587 q 513 547 442 587 q 625 439 585 508 q 665 283 665 371 q 625 128 665 196 q 513 22 585 60 q 348 -17 442 -17 m 348 155 q 436 191 403 155 q 469 284 469 227 q 436 378 469 342 q 348 415 403 415 q 260 378 293 415 q 226 284 226 342 q 260 191 226 227 q 348 155 293 155 z "},"ộ":{"ha":717,"x_min":27,"x_max":665,"o":"m 348 -17 q 183 22 255 -17 q 69 128 110 60 q 27 283 27 196 q 69 439 27 371 q 183 547 110 508 q 348 587 255 587 q 513 547 442 587 q 625 439 585 508 q 665 283 665 371 q 625 128 665 196 q 513 22 585 60 q 348 -17 442 -17 m 348 155 q 436 191 403 155 q 469 284 469 227 q 436 378 469 342 q 348 415 403 415 q 260 378 293 415 q 226 284 226 342 q 260 191 226 227 q 348 155 293 155 z "},"ồ":{"ha":717,"x_min":27,"x_max":665,"o":"m 348 -17 q 183 22 255 -17 q 69 128 110 60 q 27 283 27 196 q 69 439 27 371 q 183 547 110 508 q 348 587 255 587 q 513 547 442 587 q 625 439 585 508 q 665 283 665 371 q 625 128 665 196 q 513 22 585 60 q 348 -17 442 -17 m 348 155 q 436 191 403 155 q 469 284 469 227 q 436 378 469 342 q 348 415 403 415 q 260 378 293 415 q 226 284 226 342 q 260 191 226 227 q 348 155 293 155 z "},"ổ":{"ha":717,"x_min":27,"x_max":665,"o":"m 348 -17 q 183 22 255 -17 q 69 128 110 60 q 27 283 27 196 q 69 439 27 371 q 183 547 110 508 q 348 587 255 587 q 513 547 442 587 q 625 439 585 508 q 665 283 665 371 q 625 128 665 196 q 513 22 585 60 q 348 -17 442 -17 m 348 155 q 436 191 403 155 q 469 284 469 227 q 436 378 469 342 q 348 415 403 415 q 260 378 293 415 q 226 284 226 342 q 260 191 226 227 q 348 155 293 155 m 274 1003 q 314 1021 289 1008 q 358 1054 339 1034 q 378 1101 378 1074 q 355 1148 378 1139 q 301 1157 332 1157 q 240 1147 270 1157 q 188 1125 209 1136 l 188 1231 q 233 1252 201 1240 q 327 1265 265 1265 q 412 1251 372 1265 q 478 1205 452 1237 q 503 1117 503 1172 q 484 1041 503 1074 q 434 985 464 1008 q 375 948 405 962 q 324 926 344 933 l 274 1003 z "},"ỗ":{"ha":717,"x_min":27,"x_max":665,"o":"m 348 -17 q 183 22 255 -17 q 69 128 110 60 q 27 283 27 196 q 69 439 27 371 q 183 547 110 508 q 348 587 255 587 q 513 547 442 587 q 625 439 585 508 q 665 283 665 371 q 625 128 665 196 q 513 22 585 60 q 348 -17 442 -17 m 348 155 q 436 191 403 155 q 469 284 469 227 q 436 378 469 342 q 348 415 403 415 q 260 378 293 415 q 226 284 226 342 q 260 191 226 227 q 348 155 293 155 z "},"ȍ":{"ha":717,"x_min":27,"x_max":665,"o":"m 348 -17 q 183 22 255 -17 q 69 128 110 60 q 27 283 27 196 q 69 439 27 371 q 183 547 110 508 q 348 587 255 587 q 513 547 442 587 q 625 439 585 508 q 665 283 665 371 q 625 128 665 196 q 513 22 585 60 q 348 -17 442 -17 m 348 155 q 436 191 403 155 q 469 284 469 227 q 436 378 469 342 q 348 415 403 415 q 260 378 293 415 q 226 284 226 342 q 260 191 226 227 q 348 155 293 155 z "},"ö":{"ha":717,"x_min":27,"x_max":665,"o":"m 348 -17 q 183 22 255 -17 q 69 128 110 60 q 27 283 27 196 q 69 439 27 371 q 183 547 110 508 q 348 587 255 587 q 513 547 442 587 q 625 439 585 508 q 665 283 665 371 q 625 128 665 196 q 513 22 585 60 q 348 -17 442 -17 m 348 155 q 436 191 403 155 q 469 284 469 227 q 436 378 469 342 q 348 415 403 415 q 260 378 293 415 q 226 284 226 342 q 260 191 226 227 q 348 155 293 155 z "},"ȫ":{"ha":717,"x_min":27,"x_max":665,"o":"m 348 -17 q 183 22 255 -17 q 69 128 110 60 q 27 283 27 196 q 69 439 27 371 q 183 547 110 508 q 348 587 255 587 q 513 547 442 587 q 625 439 585 508 q 665 283 665 371 q 625 128 665 196 q 513 22 585 60 q 348 -17 442 -17 m 348 155 q 436 191 403 155 q 469 284 469 227 q 436 378 469 342 q 348 415 403 415 q 260 378 293 415 q 226 284 226 342 q 260 191 226 227 q 348 155 293 155 z "},"ȱ":{"ha":717,"x_min":27,"x_max":665,"o":"m 348 -17 q 183 22 255 -17 q 69 128 110 60 q 27 283 27 196 q 69 439 27 371 q 183 547 110 508 q 348 587 255 587 q 513 547 442 587 q 625 439 585 508 q 665 283 665 371 q 625 128 665 196 q 513 22 585 60 q 348 -17 442 -17 m 348 155 q 436 191 403 155 q 469 284 469 227 q 436 378 469 342 q 348 415 403 415 q 260 378 293 415 q 226 284 226 342 q 260 191 226 227 q 348 155 293 155 z "},"ọ":{"ha":717,"x_min":27,"x_max":665,"o":"m 348 -17 q 183 22 255 -17 q 69 128 110 60 q 27 283 27 196 q 69 439 27 371 q 183 547 110 508 q 348 587 255 587 q 513 547 442 587 q 625 439 585 508 q 665 283 665 371 q 625 128 665 196 q 513 22 585 60 q 348 -17 442 -17 m 348 155 q 436 191 403 155 q 469 284 469 227 q 436 378 469 342 q 348 415 403 415 q 260 378 293 415 q 226 284 226 342 q 260 191 226 227 q 348 155 293 155 z "},"ò":{"ha":717,"x_min":27,"x_max":665,"o":"m 348 -17 q 183 22 255 -17 q 69 128 110 60 q 27 283 27 196 q 69 439 27 371 q 183 547 110 508 q 348 587 255 587 q 513 547 442 587 q 625 439 585 508 q 665 283 665 371 q 625 128 665 196 q 513 22 585 60 q 348 -17 442 -17 m 348 155 q 436 191 403 155 q 469 284 469 227 q 436 378 469 342 q 348 415 403 415 q 260 378 293 415 q 226 284 226 342 q 260 191 226 227 q 348 155 293 155 z "},"ỏ":{"ha":717,"x_min":27,"x_max":665,"o":"m 348 -17 q 183 22 255 -17 q 69 128 110 60 q 27 283 27 196 q 69 439 27 371 q 183 547 110 508 q 348 587 255 587 q 513 547 442 587 q 625 439 585 508 q 665 283 665 371 q 625 128 665 196 q 513 22 585 60 q 348 -17 442 -17 m 348 155 q 436 191 403 155 q 469 284 469 227 q 436 378 469 342 q 348 415 403 415 q 260 378 293 415 q 226 284 226 342 q 260 191 226 227 q 348 155 293 155 m 274 678 q 314 695 289 682 q 358 728 339 708 q 378 775 378 749 q 355 822 378 813 q 301 831 332 831 q 240 821 270 831 q 188 799 209 810 l 188 906 q 233 926 201 914 q 327 939 265 939 q 412 925 372 939 q 478 879 452 911 q 503 791 503 847 q 484 715 503 748 q 434 659 464 682 q 375 622 405 636 q 324 600 344 608 l 274 678 z "},"ơ":{"ha":717,"x_min":27,"x_max":775,"o":"m 348 -17 q 183 22 255 -17 q 69 128 110 60 q 27 283 27 196 q 69 439 27 371 q 183 547 110 508 q 348 587 255 587 q 513 547 442 587 q 625 439 585 508 q 665 283 665 371 q 625 128 665 196 q 513 22 585 60 q 348 -17 442 -17 m 348 155 q 436 191 403 155 q 469 284 469 227 q 436 378 469 342 q 348 415 403 415 q 260 378 293 415 q 226 284 226 342 q 260 191 226 227 q 348 155 293 155 m 579 426 q 538 431 556 426 q 505 446 521 437 l 505 547 q 530 532 515 538 q 565 526 544 526 q 618 553 599 526 q 638 613 638 580 q 633 662 638 643 q 621 700 629 681 l 752 700 q 767 666 758 690 q 775 599 775 641 q 748 509 775 549 q 675 448 720 470 q 579 426 631 426 z "},"ớ":{"ha":717,"x_min":27,"x_max":775,"o":"m 348 -17 q 183 22 255 -17 q 69 128 110 60 q 27 283 27 196 q 69 439 27 371 q 183 547 110 508 q 348 587 255 587 q 513 547 442 587 q 625 439 585 508 q 665 283 665 371 q 625 128 665 196 q 513 22 585 60 q 348 -17 442 -17 m 348 155 q 436 191 403 155 q 469 284 469 227 q 436 378 469 342 q 348 415 403 415 q 260 378 293 415 q 226 284 226 342 q 260 191 226 227 q 348 155 293 155 m 579 426 q 538 431 556 426 q 505 446 521 437 l 505 547 q 530 532 515 538 q 565 526 544 526 q 618 553 599 526 q 638 613 638 580 q 633 662 638 643 q 621 700 629 681 l 752 700 q 767 666 758 690 q 775 599 775 641 q 748 509 775 549 q 675 448 720 470 q 579 426 631 426 z "},"ợ":{"ha":717,"x_min":27,"x_max":775,"o":"m 348 -17 q 183 22 255 -17 q 69 128 110 60 q 27 283 27 196 q 69 439 27 371 q 183 547 110 508 q 348 587 255 587 q 513 547 442 587 q 625 439 585 508 q 665 283 665 371 q 625 128 665 196 q 513 22 585 60 q 348 -17 442 -17 m 348 155 q 436 191 403 155 q 469 284 469 227 q 436 378 469 342 q 348 415 403 415 q 260 378 293 415 q 226 284 226 342 q 260 191 226 227 q 348 155 293 155 m 579 426 q 538 431 556 426 q 505 446 521 437 l 505 547 q 530 532 515 538 q 565 526 544 526 q 618 553 599 526 q 638 613 638 580 q 633 662 638 643 q 621 700 629 681 l 752 700 q 767 666 758 690 q 775 599 775 641 q 748 509 775 549 q 675 448 720 470 q 579 426 631 426 z "},"ờ":{"ha":717,"x_min":27,"x_max":775,"o":"m 348 -17 q 183 22 255 -17 q 69 128 110 60 q 27 283 27 196 q 69 439 27 371 q 183 547 110 508 q 348 587 255 587 q 513 547 442 587 q 625 439 585 508 q 665 283 665 371 q 625 128 665 196 q 513 22 585 60 q 348 -17 442 -17 m 348 155 q 436 191 403 155 q 469 284 469 227 q 436 378 469 342 q 348 415 403 415 q 260 378 293 415 q 226 284 226 342 q 260 191 226 227 q 348 155 293 155 m 579 426 q 538 431 556 426 q 505 446 521 437 l 505 547 q 530 532 515 538 q 565 526 544 526 q 618 553 599 526 q 638 613 638 580 q 633 662 638 643 q 621 700 629 681 l 752 700 q 767 666 758 690 q 775 599 775 641 q 748 509 775 549 q 675 448 720 470 q 579 426 631 426 z "},"ở":{"ha":717,"x_min":27,"x_max":775,"o":"m 348 -17 q 183 22 255 -17 q 69 128 110 60 q 27 283 27 196 q 69 439 27 371 q 183 547 110 508 q 348 587 255 587 q 513 547 442 587 q 625 439 585 508 q 665 283 665 371 q 625 128 665 196 q 513 22 585 60 q 348 -17 442 -17 m 348 155 q 436 191 403 155 q 469 284 469 227 q 436 378 469 342 q 348 415 403 415 q 260 378 293 415 q 226 284 226 342 q 260 191 226 227 q 348 155 293 155 m 579 426 q 538 431 556 426 q 505 446 521 437 l 505 547 q 530 532 515 538 q 565 526 544 526 q 618 553 599 526 q 638 613 638 580 q 633 662 638 643 q 621 700 629 681 l 752 700 q 767 666 758 690 q 775 599 775 641 q 748 509 775 549 q 675 448 720 470 q 579 426 631 426 m 274 678 q 314 695 289 682 q 358 728 339 708 q 378 775 378 749 q 355 822 378 813 q 301 831 332 831 q 240 821 270 831 q 188 799 209 810 l 188 906 q 233 926 201 914 q 327 939 265 939 q 412 925 372 939 q 478 879 452 911 q 503 791 503 847 q 484 715 503 748 q 434 659 464 682 q 375 622 405 636 q 324 600 344 608 l 274 678 z "},"ỡ":{"ha":717,"x_min":27,"x_max":775,"o":"m 348 -17 q 183 22 255 -17 q 69 128 110 60 q 27 283 27 196 q 69 439 27 371 q 183 547 110 508 q 348 587 255 587 q 513 547 442 587 q 625 439 585 508 q 665 283 665 371 q 625 128 665 196 q 513 22 585 60 q 348 -17 442 -17 m 348 155 q 436 191 403 155 q 469 284 469 227 q 436 378 469 342 q 348 415 403 415 q 260 378 293 415 q 226 284 226 342 q 260 191 226 227 q 348 155 293 155 m 579 426 q 538 431 556 426 q 505 446 521 437 l 505 547 q 530 532 515 538 q 565 526 544 526 q 618 553 599 526 q 638 613 638 580 q 633 662 638 643 q 621 700 629 681 l 752 700 q 767 666 758 690 q 775 599 775 641 q 748 509 775 549 q 675 448 720 470 q 579 426 631 426 z "},"ő":{"ha":703,"x_min":27,"x_max":665,"o":"m 348 -17 q 183 22 255 -17 q 69 128 110 60 q 27 283 27 196 q 69 439 27 371 q 183 547 110 508 q 348 587 255 587 q 513 547 442 587 q 625 439 585 508 q 665 283 665 371 q 625 128 665 196 q 513 22 585 60 q 348 -17 442 -17 m 348 155 q 436 191 403 155 q 469 284 469 227 q 436 378 469 342 q 348 415 403 415 q 260 378 293 415 q 226 284 226 342 q 260 191 226 227 q 348 155 293 155 m 175 653 l 114 738 l 306 954 l 396 841 l 175 653 m 410 653 l 349 738 l 540 954 l 630 841 l 410 653 z "},"ȏ":{"ha":717,"x_min":27,"x_max":665,"o":"m 348 -17 q 183 22 255 -17 q 69 128 110 60 q 27 283 27 196 q 69 439 27 371 q 183 547 110 508 q 348 587 255 587 q 513 547 442 587 q 625 439 585 508 q 665 283 665 371 q 625 128 665 196 q 513 22 585 60 q 348 -17 442 -17 m 348 155 q 436 191 403 155 q 469 284 469 227 q 436 378 469 342 q 348 415 403 415 q 260 378 293 415 q 226 284 226 342 q 260 191 226 227 q 348 155 293 155 z "},"ō":{"ha":703,"x_min":27,"x_max":665,"o":"m 348 -17 q 183 22 255 -17 q 69 128 110 60 q 27 283 27 196 q 69 439 27 371 q 183 547 110 508 q 348 587 255 587 q 513 547 442 587 q 625 439 585 508 q 665 283 665 371 q 625 128 665 196 q 513 22 585 60 q 348 -17 442 -17 m 348 155 q 436 191 403 155 q 469 284 469 227 q 436 378 469 342 q 348 415 403 415 q 260 378 293 415 q 226 284 226 342 q 260 191 226 227 q 348 155 293 155 m 117 706 l 117 836 l 568 836 l 568 706 l 117 706 z "},"ǫ":{"ha":717,"x_min":27,"x_max":665,"o":"m 348 -17 q 183 22 255 -17 q 69 128 110 60 q 27 283 27 196 q 69 439 27 371 q 183 547 110 508 q 348 587 255 587 q 513 547 442 587 q 625 439 585 508 q 665 283 665 371 q 625 128 665 196 q 513 22 585 60 q 348 -17 442 -17 m 348 155 q 436 191 403 155 q 469 284 469 227 q 436 378 469 342 q 348 415 403 415 q 260 378 293 415 q 226 284 226 342 q 260 191 226 227 q 348 155 293 155 z "},"ø":{"ha":703,"x_min":27,"x_max":665,"o":"m 348 -17 q 242 -2 292 -17 q 153 40 192 13 l 83 -31 l 27 19 l 97 90 q 45 177 64 128 q 27 283 27 226 q 69 439 27 371 q 183 547 110 508 q 348 587 255 587 q 449 573 402 587 q 535 534 497 559 l 603 605 l 660 556 l 591 485 q 646 394 626 446 q 665 283 665 343 q 625 128 665 196 q 513 22 585 60 q 348 -17 442 -17 m 226 284 q 235 231 226 255 l 405 402 q 348 415 380 415 q 260 378 293 415 q 226 284 226 342 m 348 155 q 436 191 403 155 q 469 284 469 227 q 456 348 469 319 l 283 172 q 348 155 311 155 z "},"ǿ":{"ha":703,"x_min":27,"x_max":665,"o":"m 348 -17 q 242 -2 292 -17 q 153 40 192 13 l 83 -31 l 27 19 l 97 90 q 45 177 64 128 q 27 283 27 226 q 69 439 27 371 q 183 547 110 508 q 348 587 255 587 q 449 573 402 587 q 535 534 497 559 l 603 605 l 660 556 l 591 485 q 646 394 626 446 q 665 283 665 343 q 625 128 665 196 q 513 22 585 60 q 348 -17 442 -17 m 226 284 q 235 231 226 255 l 405 402 q 348 415 380 415 q 260 378 293 415 q 226 284 226 342 m 348 155 q 436 191 403 155 q 469 284 469 227 q 456 348 469 319 l 283 172 q 348 155 311 155 z "},"õ":{"ha":703,"x_min":27,"x_max":665,"o":"m 348 -17 q 183 22 255 -17 q 69 128 110 60 q 27 283 27 196 q 69 439 27 371 q 183 547 110 508 q 348 587 255 587 q 513 547 442 587 q 625 439 585 508 q 665 283 665 371 q 625 128 665 196 q 513 22 585 60 q 348 -17 442 -17 m 348 155 q 436 191 403 155 q 469 284 469 227 q 436 378 469 342 q 348 415 403 415 q 260 378 293 415 q 226 284 226 342 q 260 191 226 227 q 348 155 293 155 m 246 736 q 214 719 226 736 q 196 685 201 701 l 85 685 q 110 769 91 726 q 160 843 128 813 q 235 873 191 873 q 312 860 279 873 q 374 834 345 847 q 434 822 403 822 q 467 839 454 822 q 485 873 480 857 l 596 873 q 570 789 590 833 q 520 715 551 745 q 445 685 489 685 q 368 698 401 685 q 306 723 335 710 q 246 736 277 736 z "},"ȭ":{"ha":717,"x_min":27,"x_max":665,"o":"m 348 -17 q 183 22 255 -17 q 69 128 110 60 q 27 283 27 196 q 69 439 27 371 q 183 547 110 508 q 348 587 255 587 q 513 547 442 587 q 625 439 585 508 q 665 283 665 371 q 625 128 665 196 q 513 22 585 60 q 348 -17 442 -17 m 348 155 q 436 191 403 155 q 469 284 469 227 q 436 378 469 342 q 348 415 403 415 q 260 378 293 415 q 226 284 226 342 q 260 191 226 227 q 348 155 293 155 z "},"œ":{"ha":1149,"x_min":27,"x_max":1098,"o":"m 348 -17 q 183 22 255 -17 q 69 128 110 60 q 27 283 27 196 q 69 439 27 371 q 183 547 110 508 q 348 587 255 587 q 513 547 442 587 q 625 439 585 508 q 665 283 665 371 q 625 128 665 196 q 513 22 585 60 q 348 -17 442 -17 m 348 155 q 436 191 403 155 q 469 284 469 227 q 436 378 469 342 q 348 415 403 415 q 260 378 293 415 q 226 284 226 342 q 260 191 226 227 q 348 155 293 155 m 683 241 q 723 165 686 194 q 824 135 760 135 q 927 153 884 135 q 990 190 970 170 l 1072 60 q 986 7 1045 31 q 810 -17 928 -17 q 642 19 715 -17 q 526 123 568 54 q 485 292 485 192 q 521 441 485 374 q 627 548 558 508 q 794 587 696 587 q 1016 510 933 587 q 1098 285 1098 434 q 1097 263 1098 279 q 1096 241 1097 246 l 683 241 m 899 351 q 874 415 898 384 q 797 446 849 446 q 717 417 744 446 q 688 351 690 388 l 899 351 z "},"p":{"ha":785,"x_min":58,"x_max":737,"o":"m 263 -289 l 58 -289 l 58 570 l 265 570 l 265 486 q 302 529 275 506 q 373 570 330 553 q 471 587 416 587 q 613 546 553 587 q 705 437 673 506 q 737 285 737 368 q 703 132 737 201 q 607 24 669 64 q 463 -17 545 -17 q 360 5 402 -17 q 293 52 317 26 q 263 93 269 78 l 263 -289 m 533 285 q 495 384 533 344 q 401 424 456 424 q 304 384 343 424 q 265 285 265 344 q 304 186 265 225 q 401 147 343 147 q 495 185 456 147 q 533 285 533 224 z "},"þ":{"ha":774,"x_min":56,"x_max":735,"o":"m 261 -289 l 56 -289 l 56 956 l 263 956 l 263 486 q 296 529 269 506 q 365 570 322 553 q 463 587 408 587 q 606 546 545 587 q 701 437 667 506 q 735 285 735 368 q 701 132 735 201 q 606 24 667 64 q 463 -17 545 -17 q 375 0 416 -17 q 305 42 335 17 q 261 93 275 67 l 261 -289 m 531 285 q 492 384 531 344 q 399 424 454 424 q 302 384 341 424 q 263 285 263 344 q 302 186 263 225 q 399 147 341 147 q 492 185 454 147 q 531 285 531 224 z "},"q":{"ha":785,"x_min":48,"x_max":727,"o":"m 522 -289 l 727 -289 l 727 570 l 519 570 l 519 486 q 482 529 510 506 q 412 570 455 553 q 314 587 369 587 q 172 546 231 587 q 80 437 112 506 q 48 285 48 368 q 82 132 48 201 q 178 24 116 64 q 322 -17 240 -17 q 425 5 383 -17 q 491 52 467 26 q 522 93 515 78 l 522 -289 m 251 285 q 290 384 251 344 q 384 424 328 424 q 481 384 442 424 q 519 285 519 344 q 481 186 519 225 q 384 147 442 147 q 290 185 328 147 q 251 285 251 224 z "},"r":{"ha":549,"x_min":42,"x_max":549,"o":"m 249 0 l 42 0 l 42 570 l 249 570 l 249 490 q 280 530 258 507 q 340 570 303 553 q 428 587 376 587 q 501 575 468 587 q 549 551 534 563 l 469 382 q 435 407 460 394 q 373 419 410 419 q 302 398 330 419 q 262 345 275 376 q 249 287 249 315 l 249 0 z "},"ŕ":{"ha":563,"x_min":42,"x_max":549,"o":"m 249 0 l 42 0 l 42 570 l 249 570 l 249 490 q 280 530 258 507 q 340 570 303 553 q 428 587 376 587 q 501 575 468 587 q 549 551 534 563 l 469 382 q 435 407 460 394 q 373 419 410 419 q 302 398 330 419 q 262 345 275 376 q 249 287 249 315 l 249 0 m 221 653 l 160 738 l 385 932 l 484 807 l 221 653 z "},"ř":{"ha":563,"x_min":22,"x_max":549,"o":"m 249 0 l 42 0 l 42 570 l 249 570 l 249 490 q 280 530 258 507 q 340 570 303 553 q 428 587 376 587 q 501 575 468 587 q 549 551 534 563 l 469 382 q 435 407 460 394 q 373 419 410 419 q 302 398 330 419 q 262 345 275 376 q 249 287 249 315 l 249 0 m 22 832 l 97 931 l 266 808 l 435 931 l 510 831 l 266 653 l 22 832 z "},"ŗ":{"ha":549,"x_min":42,"x_max":549,"o":"m 249 0 l 42 0 l 42 570 l 249 570 l 249 490 q 280 530 258 507 q 340 570 303 553 q 428 587 376 587 q 501 575 468 587 q 549 551 534 563 l 469 382 q 435 407 460 394 q 373 419 410 419 q 302 398 330 419 q 262 345 275 376 q 249 287 249 315 l 249 0 z "},"ȑ":{"ha":549,"x_min":-38,"x_max":579,"o":"m 249 0 l 42 0 l 42 570 l 249 570 l 249 490 q 280 530 258 507 q 340 570 303 553 q 428 587 376 587 q 501 575 468 587 q 549 551 534 563 l 469 382 q 435 407 460 394 q 373 419 410 419 q 302 398 330 419 q 262 345 275 376 q 249 287 249 315 l 249 0 z "},"ȓ":{"ha":549,"x_min":10,"x_max":549,"o":"m 249 0 l 42 0 l 42 570 l 249 570 l 249 490 q 280 530 258 507 q 340 570 303 553 q 428 587 376 587 q 501 575 468 587 q 549 551 534 563 l 469 382 q 435 407 460 394 q 373 419 410 419 q 302 398 330 419 q 262 345 275 376 q 249 287 249 315 l 249 0 z "},"s":{"ha":596,"x_min":29,"x_max":542,"o":"m 313 587 q 415 577 368 587 q 493 556 461 568 q 533 537 524 544 l 465 414 q 416 439 452 424 q 337 454 381 454 q 280 444 303 454 q 256 412 256 433 q 282 377 256 390 q 356 353 308 363 q 441 327 398 345 q 513 274 484 308 q 542 181 542 239 q 516 83 542 121 q 448 23 490 44 q 357 -8 406 1 q 261 -17 308 -17 q 105 8 164 -17 q 29 47 46 33 l 96 183 q 155 149 114 168 q 242 130 196 130 q 312 143 287 130 q 337 180 337 157 q 310 218 337 205 q 238 240 284 231 q 159 267 201 248 q 88 322 117 286 q 58 417 58 358 q 94 511 58 474 q 189 568 131 549 q 313 587 247 587 z "},"ś":{"ha":560,"x_min":29,"x_max":542,"o":"m 313 587 q 415 577 368 587 q 493 556 461 568 q 533 537 524 544 l 465 414 q 416 439 452 424 q 337 454 381 454 q 280 444 303 454 q 256 412 256 433 q 282 377 256 390 q 356 353 308 363 q 441 327 398 345 q 513 274 484 308 q 542 181 542 239 q 516 83 542 121 q 448 23 490 44 q 357 -8 406 1 q 261 -17 308 -17 q 105 8 164 -17 q 29 47 46 33 l 96 183 q 155 149 114 168 q 242 130 196 130 q 312 143 287 130 q 337 180 337 157 q 310 218 337 205 q 238 240 284 231 q 159 267 201 248 q 88 322 117 286 q 58 417 58 358 q 94 511 58 474 q 189 568 131 549 q 313 587 247 587 m 211 653 l 150 738 l 375 932 l 474 807 l 211 653 z "},"š":{"ha":560,"x_min":29,"x_max":542,"o":"m 313 587 q 415 577 368 587 q 493 556 461 568 q 533 537 524 544 l 465 414 q 416 439 452 424 q 337 454 381 454 q 280 444 303 454 q 256 412 256 433 q 282 377 256 390 q 356 353 308 363 q 441 327 398 345 q 513 274 484 308 q 542 181 542 239 q 516 83 542 121 q 448 23 490 44 q 357 -8 406 1 q 261 -17 308 -17 q 105 8 164 -17 q 29 47 46 33 l 96 183 q 155 149 114 168 q 242 130 196 130 q 312 143 287 130 q 337 180 337 157 q 310 218 337 205 q 238 240 284 231 q 159 267 201 248 q 88 322 117 286 q 58 417 58 358 q 94 511 58 474 q 189 568 131 549 q 313 587 247 587 m 30 832 l 105 931 l 274 808 l 443 931 l 517 831 l 274 653 l 30 832 z "},"ş":{"ha":560,"x_min":29,"x_max":542,"o":"m 313 587 q 415 577 368 587 q 493 556 461 568 q 533 537 524 544 l 465 414 q 416 439 452 424 q 337 454 381 454 q 280 444 303 454 q 256 412 256 433 q 282 377 256 390 q 356 353 308 363 q 441 327 398 345 q 513 274 484 308 q 542 181 542 239 q 516 83 542 121 q 448 23 490 44 q 357 -8 406 1 q 261 -17 308 -17 q 105 8 164 -17 q 29 47 46 33 l 96 183 q 155 149 114 168 q 242 130 196 130 q 312 143 287 130 q 337 180 337 157 q 310 218 337 205 q 238 240 284 231 q 159 267 201 248 q 88 322 117 286 q 58 417 58 358 q 94 511 58 474 q 189 568 131 549 q 313 587 247 587 m 247 29 l 319 4 l 294 -59 q 399 -82 352 -55 q 447 -165 447 -110 q 398 -265 447 -228 q 285 -301 350 -301 q 174 -281 219 -301 q 112 -242 129 -260 l 181 -165 q 217 -192 193 -178 q 268 -207 241 -207 q 308 -195 293 -207 q 324 -164 324 -183 q 305 -129 324 -140 q 260 -117 286 -117 q 224 -120 239 -117 q 204 -127 209 -124 l 193 -119 l 247 29 z "},"ŝ":{"ha":596,"x_min":29,"x_max":542,"o":"m 313 587 q 415 577 368 587 q 493 556 461 568 q 533 537 524 544 l 465 414 q 416 439 452 424 q 337 454 381 454 q 280 444 303 454 q 256 412 256 433 q 282 377 256 390 q 356 353 308 363 q 441 327 398 345 q 513 274 484 308 q 542 181 542 239 q 516 83 542 121 q 448 23 490 44 q 357 -8 406 1 q 261 -17 308 -17 q 105 8 164 -17 q 29 47 46 33 l 96 183 q 155 149 114 168 q 242 130 196 130 q 312 143 287 130 q 337 180 337 157 q 310 218 337 205 q 238 240 284 231 q 159 267 201 248 q 88 322 117 286 q 58 417 58 358 q 94 511 58 474 q 189 568 131 549 q 313 587 247 587 z "},"ș":{"ha":596,"x_min":29,"x_max":542,"o":"m 313 587 q 415 577 368 587 q 493 556 461 568 q 533 537 524 544 l 465 414 q 416 439 452 424 q 337 454 381 454 q 280 444 303 454 q 256 412 256 433 q 282 377 256 390 q 356 353 308 363 q 441 327 398 345 q 513 274 484 308 q 542 181 542 239 q 516 83 542 121 q 448 23 490 44 q 357 -8 406 1 q 261 -17 308 -17 q 105 8 164 -17 q 29 47 46 33 l 96 183 q 155 149 114 168 q 242 130 196 130 q 312 143 287 130 q 337 180 337 157 q 310 218 337 205 q 238 240 284 231 q 159 267 201 248 q 88 322 117 286 q 58 417 58 358 q 94 511 58 474 q 189 568 131 549 q 313 587 247 587 z "},"ß":{"ha":780,"x_min":77,"x_max":718,"o":"m 369 158 q 475 195 435 158 q 515 297 515 233 q 474 400 515 366 q 369 434 434 434 l 369 579 q 458 612 419 579 q 497 702 497 644 q 468 783 497 757 q 390 810 439 810 q 300 766 331 810 q 269 659 269 722 l 269 0 l 77 0 l 77 642 q 117 821 77 747 q 226 933 156 894 q 386 972 296 972 q 598 905 519 972 q 677 711 677 838 q 638 586 677 639 q 549 512 599 533 q 667 437 615 494 q 718 283 718 379 q 672 127 718 194 q 547 22 626 60 q 369 -17 468 -17 l 369 158 z "},"t":{"ha":503,"x_min":10,"x_max":483,"o":"m 10 570 l 108 570 l 108 804 l 314 804 l 314 570 l 442 570 l 442 399 l 314 399 l 314 236 q 325 178 314 200 q 363 156 335 156 q 395 164 382 156 q 412 176 409 172 l 483 28 q 453 12 478 23 q 390 -8 428 1 q 303 -17 351 -17 q 163 31 218 -17 q 108 180 108 79 l 108 399 l 10 399 l 10 570 z "},"ŧ":{"ha":494,"x_min":10,"x_max":483,"o":"m 10 343 l 108 343 l 108 399 l 10 399 l 10 570 l 108 570 l 108 804 l 314 804 l 314 570 l 442 570 l 442 399 l 314 399 l 314 343 l 442 343 l 442 265 l 314 265 l 314 236 q 325 178 314 200 q 363 156 335 156 q 395 164 382 156 q 412 176 409 172 l 483 28 q 453 12 478 23 q 390 -8 428 1 q 303 -17 351 -17 q 163 31 218 -17 q 108 180 108 79 l 108 265 l 10 265 l 10 343 z "},"ť":{"ha":494,"x_min":10,"x_max":569,"o":"m 10 570 l 108 570 l 108 804 l 314 804 l 314 570 l 442 570 l 442 399 l 314 399 l 314 236 q 325 178 314 200 q 363 156 335 156 q 395 164 382 156 q 412 176 409 172 l 483 28 q 453 12 478 23 q 390 -8 428 1 q 303 -17 351 -17 q 163 31 218 -17 q 108 180 108 79 l 108 399 l 10 399 l 10 570 z "},"ţ":{"ha":503,"x_min":10,"x_max":483,"o":"m 10 570 l 108 570 l 108 804 l 314 804 l 314 570 l 442 570 l 442 399 l 314 399 l 314 236 q 325 178 314 200 q 363 156 335 156 q 395 164 382 156 q 412 176 409 172 l 483 28 q 453 12 478 23 q 390 -8 428 1 q 303 -17 351 -17 q 163 31 218 -17 q 108 180 108 79 l 108 399 l 10 399 l 10 570 z "},"ț":{"ha":503,"x_min":10,"x_max":483,"o":"m 10 570 l 108 570 l 108 804 l 314 804 l 314 570 l 442 570 l 442 399 l 314 399 l 314 236 q 325 178 314 200 q 363 156 335 156 q 395 164 382 156 q 412 176 409 172 l 483 28 q 453 12 478 23 q 390 -8 428 1 q 303 -17 351 -17 q 163 31 218 -17 q 108 180 108 79 l 108 399 l 10 399 l 10 570 z "},"u":{"ha":759,"x_min":51,"x_max":688,"o":"m 256 306 q 282 196 256 237 q 369 155 308 155 q 457 196 431 155 q 483 306 483 237 l 483 570 l 688 570 l 688 283 q 605 65 688 147 q 369 -17 522 -17 q 134 65 217 -17 q 51 283 51 147 l 51 570 l 256 570 l 256 306 z "},"ú":{"ha":759,"x_min":51,"x_max":688,"o":"m 256 306 q 282 196 256 237 q 369 155 308 155 q 457 196 431 155 q 483 306 483 237 l 483 570 l 688 570 l 688 283 q 605 65 688 147 q 369 -17 522 -17 q 134 65 217 -17 q 51 283 51 147 l 51 570 l 256 570 l 256 306 z "},"ŭ":{"ha":759,"x_min":51,"x_max":688,"o":"m 256 306 q 282 196 256 237 q 369 155 308 155 q 457 196 431 155 q 483 306 483 237 l 483 570 l 688 570 l 688 283 q 605 65 688 147 q 369 -17 522 -17 q 134 65 217 -17 q 51 283 51 147 l 51 570 l 256 570 l 256 306 z "},"ǔ":{"ha":759,"x_min":51,"x_max":688,"o":"m 256 306 q 282 196 256 237 q 369 155 308 155 q 457 196 431 155 q 483 306 483 237 l 483 570 l 688 570 l 688 283 q 605 65 688 147 q 369 -17 522 -17 q 134 65 217 -17 q 51 283 51 147 l 51 570 l 256 570 l 256 306 z "},"û":{"ha":759,"x_min":51,"x_max":688,"o":"m 256 306 q 282 196 256 237 q 369 155 308 155 q 457 196 431 155 q 483 306 483 237 l 483 570 l 688 570 l 688 283 q 605 65 688 147 q 369 -17 522 -17 q 134 65 217 -17 q 51 283 51 147 l 51 570 l 256 570 l 256 306 z "},"ȕ":{"ha":759,"x_min":51,"x_max":688,"o":"m 256 306 q 282 196 256 237 q 369 155 308 155 q 457 196 431 155 q 483 306 483 237 l 483 570 l 688 570 l 688 283 q 605 65 688 147 q 369 -17 522 -17 q 134 65 217 -17 q 51 283 51 147 l 51 570 l 256 570 l 256 306 z "},"ü":{"ha":759,"x_min":51,"x_max":688,"o":"m 256 306 q 282 196 256 237 q 369 155 308 155 q 457 196 431 155 q 483 306 483 237 l 483 570 l 688 570 l 688 283 q 605 65 688 147 q 369 -17 522 -17 q 134 65 217 -17 q 51 283 51 147 l 51 570 l 256 570 l 256 306 z "},"ǘ":{"ha":759,"x_min":51,"x_max":688,"o":"m 256 306 q 282 196 256 237 q 369 155 308 155 q 457 196 431 155 q 483 306 483 237 l 483 570 l 688 570 l 688 283 q 605 65 688 147 q 369 -17 522 -17 q 134 65 217 -17 q 51 283 51 147 l 51 570 l 256 570 l 256 306 z "},"ǚ":{"ha":759,"x_min":51,"x_max":688,"o":"m 256 306 q 282 196 256 237 q 369 155 308 155 q 457 196 431 155 q 483 306 483 237 l 483 570 l 688 570 l 688 283 q 605 65 688 147 q 369 -17 522 -17 q 134 65 217 -17 q 51 283 51 147 l 51 570 l 256 570 l 256 306 z "},"ǜ":{"ha":759,"x_min":51,"x_max":688,"o":"m 256 306 q 282 196 256 237 q 369 155 308 155 q 457 196 431 155 q 483 306 483 237 l 483 570 l 688 570 l 688 283 q 605 65 688 147 q 369 -17 522 -17 q 134 65 217 -17 q 51 283 51 147 l 51 570 l 256 570 l 256 306 z "},"ǖ":{"ha":759,"x_min":51,"x_max":688,"o":"m 256 306 q 282 196 256 237 q 369 155 308 155 q 457 196 431 155 q 483 306 483 237 l 483 570 l 688 570 l 688 283 q 605 65 688 147 q 369 -17 522 -17 q 134 65 217 -17 q 51 283 51 147 l 51 570 l 256 570 l 256 306 z "},"ụ":{"ha":759,"x_min":51,"x_max":688,"o":"m 256 306 q 282 196 256 237 q 369 155 308 155 q 457 196 431 155 q 483 306 483 237 l 483 570 l 688 570 l 688 283 q 605 65 688 147 q 369 -17 522 -17 q 134 65 217 -17 q 51 283 51 147 l 51 570 l 256 570 l 256 306 z "},"ù":{"ha":759,"x_min":51,"x_max":688,"o":"m 256 306 q 282 196 256 237 q 369 155 308 155 q 457 196 431 155 q 483 306 483 237 l 483 570 l 688 570 l 688 283 q 605 65 688 147 q 369 -17 522 -17 q 134 65 217 -17 q 51 283 51 147 l 51 570 l 256 570 l 256 306 z "},"ủ":{"ha":759,"x_min":51,"x_max":688,"o":"m 256 306 q 282 196 256 237 q 369 155 308 155 q 457 196 431 155 q 483 306 483 237 l 483 570 l 688 570 l 688 283 q 605 65 688 147 q 369 -17 522 -17 q 134 65 217 -17 q 51 283 51 147 l 51 570 l 256 570 l 256 306 m 297 678 q 337 695 312 682 q 381 728 362 708 q 401 775 401 749 q 378 822 401 813 q 324 831 355 831 q 263 821 293 831 q 211 799 232 810 l 211 906 q 256 926 224 914 q 350 939 288 939 q 435 925 394 939 q 501 879 475 911 q 526 791 526 847 q 507 715 526 748 q 457 659 487 682 q 398 622 428 636 q 347 600 367 608 l 297 678 z "},"ư":{"ha":956,"x_min":51,"x_max":958,"o":"m 256 306 q 282 196 256 237 q 369 155 308 155 q 457 196 431 155 q 483 306 483 237 l 483 570 l 688 570 l 688 283 q 605 65 688 147 q 369 -17 522 -17 q 134 65 217 -17 q 51 283 51 147 l 51 570 l 256 570 l 256 306 m 763 449 q 722 455 739 449 q 688 469 704 460 l 688 570 q 713 556 699 561 q 748 550 727 550 q 802 577 783 550 q 821 637 821 603 q 817 685 821 667 q 804 724 813 704 l 935 724 q 950 689 942 714 q 958 623 958 665 q 931 533 958 572 q 859 472 903 494 q 763 449 814 449 z "},"ứ":{"ha":956,"x_min":51,"x_max":958,"o":"m 256 306 q 282 196 256 237 q 369 155 308 155 q 457 196 431 155 q 483 306 483 237 l 483 570 l 688 570 l 688 283 q 605 65 688 147 q 369 -17 522 -17 q 134 65 217 -17 q 51 283 51 147 l 51 570 l 256 570 l 256 306 m 763 449 q 722 455 739 449 q 688 469 704 460 l 688 570 q 713 556 699 561 q 748 550 727 550 q 802 577 783 550 q 821 637 821 603 q 817 685 821 667 q 804 724 813 704 l 935 724 q 950 689 942 714 q 958 623 958 665 q 931 533 958 572 q 859 472 903 494 q 763 449 814 449 z "},"ự":{"ha":956,"x_min":51,"x_max":958,"o":"m 256 306 q 282 196 256 237 q 369 155 308 155 q 457 196 431 155 q 483 306 483 237 l 483 570 l 688 570 l 688 283 q 605 65 688 147 q 369 -17 522 -17 q 134 65 217 -17 q 51 283 51 147 l 51 570 l 256 570 l 256 306 m 763 449 q 722 455 739 449 q 688 469 704 460 l 688 570 q 713 556 699 561 q 748 550 727 550 q 802 577 783 550 q 821 637 821 603 q 817 685 821 667 q 804 724 813 704 l 935 724 q 950 689 942 714 q 958 623 958 665 q 931 533 958 572 q 859 472 903 494 q 763 449 814 449 z "},"ừ":{"ha":956,"x_min":51,"x_max":958,"o":"m 256 306 q 282 196 256 237 q 369 155 308 155 q 457 196 431 155 q 483 306 483 237 l 483 570 l 688 570 l 688 283 q 605 65 688 147 q 369 -17 522 -17 q 134 65 217 -17 q 51 283 51 147 l 51 570 l 256 570 l 256 306 m 763 449 q 722 455 739 449 q 688 469 704 460 l 688 570 q 713 556 699 561 q 748 550 727 550 q 802 577 783 550 q 821 637 821 603 q 817 685 821 667 q 804 724 813 704 l 935 724 q 950 689 942 714 q 958 623 958 665 q 931 533 958 572 q 859 472 903 494 q 763 449 814 449 z "},"ử":{"ha":956,"x_min":51,"x_max":958,"o":"m 256 306 q 282 196 256 237 q 369 155 308 155 q 457 196 431 155 q 483 306 483 237 l 483 570 l 688 570 l 688 283 q 605 65 688 147 q 369 -17 522 -17 q 134 65 217 -17 q 51 283 51 147 l 51 570 l 256 570 l 256 306 m 763 449 q 722 455 739 449 q 688 469 704 460 l 688 570 q 713 556 699 561 q 748 550 727 550 q 802 577 783 550 q 821 637 821 603 q 817 685 821 667 q 804 724 813 704 l 935 724 q 950 689 942 714 q 958 623 958 665 q 931 533 958 572 q 859 472 903 494 q 763 449 814 449 m 297 678 q 337 695 312 682 q 381 728 362 708 q 401 775 401 749 q 378 822 401 813 q 324 831 355 831 q 263 821 293 831 q 211 799 232 810 l 211 906 q 256 926 224 914 q 350 939 288 939 q 435 925 394 939 q 501 879 475 911 q 526 791 526 847 q 507 715 526 748 q 457 659 487 682 q 398 622 428 636 q 347 600 367 608 l 297 678 z "},"ữ":{"ha":956,"x_min":51,"x_max":958,"o":"m 256 306 q 282 196 256 237 q 369 155 308 155 q 457 196 431 155 q 483 306 483 237 l 483 570 l 688 570 l 688 283 q 605 65 688 147 q 369 -17 522 -17 q 134 65 217 -17 q 51 283 51 147 l 51 570 l 256 570 l 256 306 m 763 449 q 722 455 739 449 q 688 469 704 460 l 688 570 q 713 556 699 561 q 748 550 727 550 q 802 577 783 550 q 821 637 821 603 q 817 685 821 667 q 804 724 813 704 l 935 724 q 950 689 942 714 q 958 623 958 665 q 931 533 958 572 q 859 472 903 494 q 763 449 814 449 z "},"ű":{"ha":759,"x_min":51,"x_max":688,"o":"m 256 306 q 282 196 256 237 q 369 155 308 155 q 457 196 431 155 q 483 306 483 237 l 483 570 l 688 570 l 688 283 q 605 65 688 147 q 369 -17 522 -17 q 134 65 217 -17 q 51 283 51 147 l 51 570 l 256 570 l 256 306 m 193 653 l 132 738 l 324 954 l 414 841 l 193 653 m 428 653 l 367 738 l 558 954 l 648 841 l 428 653 z "},"ȗ":{"ha":759,"x_min":51,"x_max":688,"o":"m 256 306 q 282 196 256 237 q 369 155 308 155 q 457 196 431 155 q 483 306 483 237 l 483 570 l 688 570 l 688 283 q 605 65 688 147 q 369 -17 522 -17 q 134 65 217 -17 q 51 283 51 147 l 51 570 l 256 570 l 256 306 z "},"ū":{"ha":759,"x_min":51,"x_max":688,"o":"m 256 306 q 282 196 256 237 q 369 155 308 155 q 457 196 431 155 q 483 306 483 237 l 483 570 l 688 570 l 688 283 q 605 65 688 147 q 369 -17 522 -17 q 134 65 217 -17 q 51 283 51 147 l 51 570 l 256 570 l 256 306 m 126 706 l 126 836 l 577 836 l 577 706 l 126 706 z "},"ų":{"ha":759,"x_min":51,"x_max":688,"o":"m 256 306 q 282 196 256 237 q 369 155 308 155 q 457 196 431 155 q 483 306 483 237 l 483 570 l 688 570 l 688 283 q 605 65 688 147 q 369 -17 522 -17 q 134 65 217 -17 q 51 283 51 147 l 51 570 l 256 570 l 256 306 m 376 -302 q 314 -290 347 -302 q 260 -251 282 -278 q 238 -175 238 -224 q 256 -105 238 -143 q 301 -32 274 -67 q 353 28 328 3 l 415 0 q 370 -70 393 -26 q 347 -157 347 -114 q 362 -189 347 -178 q 392 -200 376 -200 q 427 -189 412 -200 q 450 -167 443 -178 l 528 -226 q 470 -277 512 -251 q 376 -302 429 -302 z "},"ů":{"ha":759,"x_min":51,"x_max":688,"o":"m 256 306 q 282 196 256 237 q 369 155 308 155 q 457 196 431 155 q 483 306 483 237 l 483 570 l 688 570 l 688 283 q 605 65 688 147 q 369 -17 522 -17 q 134 65 217 -17 q 51 283 51 147 l 51 570 l 256 570 l 256 306 z "},"ũ":{"ha":759,"x_min":51,"x_max":688,"o":"m 256 306 q 282 196 256 237 q 369 155 308 155 q 457 196 431 155 q 483 306 483 237 l 483 570 l 688 570 l 688 283 q 605 65 688 147 q 369 -17 522 -17 q 134 65 217 -17 q 51 283 51 147 l 51 570 l 256 570 l 256 306 z "},"v":{"ha":757,"x_min":7,"x_max":730,"o":"m 7 570 l 229 570 l 369 189 l 508 570 l 730 570 l 491 0 l 247 0 l 7 570 z "},"w":{"ha":1011,"x_min":-17,"x_max":1008,"o":"m 496 333 l 363 0 l 171 0 l -17 570 l 204 570 l 296 223 l 427 559 l 565 559 l 694 223 l 787 570 l 1008 570 l 821 0 l 630 0 l 496 333 z "},"ẃ":{"ha":1011,"x_min":-17,"x_max":1008,"o":"m 496 333 l 363 0 l 171 0 l -17 570 l 204 570 l 296 223 l 427 559 l 565 559 l 694 223 l 787 570 l 1008 570 l 821 0 l 630 0 l 496 333 z "},"ŵ":{"ha":1011,"x_min":-17,"x_max":1008,"o":"m 496 333 l 363 0 l 171 0 l -17 570 l 204 570 l 296 223 l 427 559 l 565 559 l 694 223 l 787 570 l 1008 570 l 821 0 l 630 0 l 496 333 z "},"ẅ":{"ha":1011,"x_min":-17,"x_max":1008,"o":"m 496 333 l 363 0 l 171 0 l -17 570 l 204 570 l 296 223 l 427 559 l 565 559 l 694 223 l 787 570 l 1008 570 l 821 0 l 630 0 l 496 333 z "},"ẁ":{"ha":1011,"x_min":-17,"x_max":1008,"o":"m 496 333 l 363 0 l 171 0 l -17 570 l 204 570 l 296 223 l 427 559 l 565 559 l 694 223 l 787 570 l 1008 570 l 821 0 l 630 0 l 496 333 z "},"x":{"ha":753,"x_min":10,"x_max":728,"o":"m 486 306 l 728 0 l 497 0 l 361 177 l 224 0 l 10 0 l 251 290 l 34 570 l 267 570 l 374 422 l 486 570 l 697 570 l 486 306 z "},"y":{"ha":713,"x_min":-2,"x_max":704,"o":"m 344 181 l 500 570 l 704 570 l 313 -289 l 104 -289 l 236 0 l -2 570 l 206 570 l 344 181 z "},"ý":{"ha":713,"x_min":-2,"x_max":704,"o":"m 344 181 l 500 570 l 704 570 l 313 -289 l 104 -289 l 236 0 l -2 570 l 206 570 l 344 181 z "},"ŷ":{"ha":713,"x_min":-2,"x_max":704,"o":"m 344 181 l 500 570 l 704 570 l 313 -289 l 104 -289 l 236 0 l -2 570 l 206 570 l 344 181 z "},"ÿ":{"ha":713,"x_min":-2,"x_max":704,"o":"m 344 181 l 500 570 l 704 570 l 313 -289 l 104 -289 l 236 0 l -2 570 l 206 570 l 344 181 z "},"ỵ":{"ha":713,"x_min":-2,"x_max":704,"o":"m 344 181 l 500 570 l 704 570 l 313 -289 l 104 -289 l 236 0 l -2 570 l 206 570 l 344 181 z "},"ỳ":{"ha":713,"x_min":-2,"x_max":704,"o":"m 344 181 l 500 570 l 704 570 l 313 -289 l 104 -289 l 236 0 l -2 570 l 206 570 l 344 181 z "},"ỷ":{"ha":713,"x_min":-2,"x_max":704,"o":"m 344 181 l 500 570 l 704 570 l 313 -289 l 104 -289 l 236 0 l -2 570 l 206 570 l 344 181 m 274 678 q 314 695 289 682 q 358 728 339 708 q 378 775 378 749 q 355 822 378 813 q 301 831 332 831 q 240 821 270 831 q 188 799 209 810 l 188 906 q 233 926 201 914 q 327 939 265 939 q 412 925 372 939 q 478 879 452 911 q 503 791 503 847 q 484 715 503 748 q 434 659 464 682 q 375 622 405 636 q 324 600 344 608 l 274 678 z "},"ȳ":{"ha":713,"x_min":-2,"x_max":704,"o":"m 344 181 l 500 570 l 704 570 l 313 -289 l 104 -289 l 236 0 l -2 570 l 206 570 l 344 181 z "},"ỹ":{"ha":713,"x_min":-2,"x_max":704,"o":"m 344 181 l 500 570 l 704 570 l 313 -289 l 104 -289 l 236 0 l -2 570 l 206 570 l 344 181 z "},"z":{"ha":623,"x_min":-3,"x_max":606,"o":"m 43 570 l 606 570 l 319 145 l 583 145 l 583 0 l -3 0 l 284 426 l 43 426 l 43 570 z "},"ź":{"ha":623,"x_min":-3,"x_max":606,"o":"m 43 570 l 606 570 l 319 145 l 583 145 l 583 0 l -3 0 l 284 426 l 43 426 l 43 570 m 260 653 l 199 738 l 424 932 l 524 807 l 260 653 z "},"ž":{"ha":623,"x_min":-3,"x_max":606,"o":"m 43 570 l 606 570 l 319 145 l 583 145 l 583 0 l -3 0 l 284 426 l 43 426 l 43 570 m 67 832 l 142 931 l 310 808 l 480 931 l 554 831 l 310 653 l 67 832 z "},"ż":{"ha":623,"x_min":-3,"x_max":606,"o":"m 43 570 l 606 570 l 319 145 l 583 145 l 583 0 l -3 0 l 284 426 l 43 426 l 43 570 m 303 878 q 374 848 344 878 q 403 776 403 818 q 374 705 403 735 q 303 676 344 676 q 232 705 261 676 q 202 776 202 735 q 232 848 202 818 q 303 878 261 878 z "},"ﬁ":{"ha":851,"x_min":15,"x_max":781,"o":"m 15 570 l 110 570 l 110 721 q 145 860 110 804 q 236 944 181 916 q 353 972 292 972 q 466 952 427 972 q 515 922 505 932 l 435 770 q 418 785 432 775 q 381 796 404 796 q 338 778 358 796 q 317 703 317 760 l 317 570 l 459 570 l 459 399 l 317 399 l 317 0 l 110 0 l 110 399 l 15 399 l 15 570 m 661 690 q 578 724 613 690 q 544 808 544 759 q 578 891 544 856 q 661 926 613 926 q 745 891 710 926 q 781 808 781 856 q 745 724 781 759 q 661 690 710 690 m 555 0 l 555 570 l 763 570 l 763 0 l 555 0 z "},"ﬂ":{"ha":835,"x_min":15,"x_max":756,"o":"m 15 570 l 110 570 l 110 721 q 145 860 110 804 q 236 944 181 916 q 353 972 292 972 q 466 952 427 972 q 515 922 505 932 l 435 770 q 418 785 432 775 q 381 796 404 796 q 338 778 358 796 q 317 703 317 760 l 317 570 l 459 570 l 459 399 l 317 399 l 317 0 l 110 0 l 110 399 l 15 399 l 15 570 m 756 0 l 547 0 l 547 956 l 756 956 l 756 0 z "},"ª":{"ha":588,"x_min":79,"x_max":491,"o":"m 79 746 q 101 840 79 797 q 163 908 124 883 q 254 933 203 933 q 320 921 292 933 q 372 888 349 909 l 372 923 l 491 922 l 491 570 l 373 570 l 373 611 l 372 611 q 324 575 353 590 q 254 560 294 560 q 163 585 203 560 q 101 653 124 610 q 79 746 79 695 m 207 746 q 230 685 207 709 q 290 662 253 662 q 350 685 326 662 q 374 746 374 709 q 349 807 374 783 q 290 831 324 831 q 231 807 256 831 q 207 746 207 783 z "},"º":{"ha":601,"x_min":80,"x_max":501,"o":"m 80 746 q 108 843 80 801 q 185 909 137 885 q 292 933 233 933 q 398 909 350 933 q 473 843 445 885 q 501 746 501 801 q 442 612 501 665 q 292 560 382 560 q 138 612 197 560 q 80 746 80 665 m 207 746 q 230 685 207 710 q 291 661 253 661 q 351 685 327 661 q 375 746 375 710 q 350 807 375 783 q 291 831 326 831 q 232 807 256 831 q 207 746 207 783 z "},"¹":{"ha":179,"x_min":13,"x_max":146,"o":"m 68 819 l 13 790 l 13 864 l 109 917 l 146 917 l 146 570 l 68 570 l 68 819 z "},"²":{"ha":336,"x_min":32,"x_max":303,"o":"m 174 866 q 143 857 156 866 q 119 837 129 849 q 105 817 110 826 q 100 806 100 807 l 32 837 q 37 851 32 840 q 51 875 41 862 q 78 903 61 889 q 118 925 94 916 q 174 933 142 933 q 237 923 212 933 q 276 895 262 912 q 297 857 291 877 q 303 818 303 837 q 290 764 303 790 q 257 717 277 739 q 217 678 237 694 q 182 651 197 661 q 165 640 168 641 l 300 640 l 300 570 l 45 570 l 45 633 q 64 647 49 637 q 98 673 78 657 q 140 707 118 688 q 181 745 162 725 q 211 784 200 765 q 223 819 223 803 q 210 855 223 845 q 174 866 198 866 z "},"³":{"ha":306,"x_min":13,"x_max":284,"o":"m 26 855 q 44 888 30 870 q 85 921 59 907 q 151 934 112 934 q 212 922 185 934 q 255 886 239 909 q 270 832 270 863 q 256 784 270 804 q 224 759 241 764 q 251 747 237 757 q 274 718 265 736 q 284 676 284 700 q 266 614 284 641 q 219 571 249 587 q 149 556 188 556 q 80 570 109 556 q 35 605 52 584 q 13 645 19 626 l 88 682 q 99 657 91 670 q 120 635 107 644 q 149 626 132 626 q 189 641 174 626 q 203 678 203 655 q 187 713 203 702 q 149 725 171 725 l 142 725 l 142 783 l 151 783 q 184 795 170 783 q 197 826 197 806 q 185 856 197 844 q 150 869 173 869 q 119 861 131 869 q 100 842 107 852 q 92 824 93 831 l 26 855 z "},"⁴":{"ha":316,"x_min":6,"x_max":281,"o":"m 238 917 l 238 700 l 280 700 l 280 628 l 238 628 l 238 551 l 157 551 l 157 628 l 6 628 l 6 693 l 144 917 l 238 917 m 157 700 l 157 812 l 156 812 l 88 700 l 157 700 z "},"⁄":{"ha":308,"x_min":-178,"x_max":479,"o":"m 355 917 l 479 917 l -54 0 l -178 0 l 355 917 z "},"½":{"ha":1059,"x_min":60,"x_max":1002,"o":"m 676 917 l 800 917 l 267 0 l 142 0 l 676 917 m 808 442 q 760 429 781 442 q 725 398 740 416 q 704 367 711 381 q 696 351 697 353 l 593 398 q 601 419 594 403 q 623 456 608 435 q 663 497 638 477 q 723 530 687 517 q 808 543 759 543 q 902 527 865 543 q 962 485 940 511 q 993 428 984 459 q 1002 370 1002 398 q 982 289 1002 327 q 933 217 962 250 q 873 159 903 184 q 820 119 842 134 q 794 101 798 104 l 997 101 l 997 -3 l 613 -3 l 613 92 q 641 112 619 97 q 694 151 663 128 q 757 202 724 174 q 818 260 789 230 q 864 318 846 289 q 881 371 881 347 q 862 426 881 409 q 808 442 843 442 m 146 767 l 60 722 l 60 836 l 209 919 l 266 919 l 266 382 l 146 382 l 146 767 z "},"¼":{"ha":976,"x_min":71,"x_max":921,"o":"m 683 917 l 808 917 l 274 0 l 150 0 l 683 917 m 156 767 l 71 722 l 71 836 l 220 919 l 276 919 l 276 382 l 156 382 l 156 767 m 859 535 l 859 217 l 921 217 l 921 113 l 859 113 l 859 0 l 740 0 l 740 113 l 519 113 l 519 207 l 722 535 l 859 535 m 740 217 l 740 381 l 739 381 l 639 217 l 740 217 z "},"¾":{"ha":1065,"x_min":43,"x_max":990,"o":"m 772 917 l 896 917 l 363 0 l 238 0 l 772 917 m 62 818 q 88 867 67 840 q 148 914 110 894 q 244 934 187 934 q 334 916 295 934 q 396 863 374 897 q 419 784 419 829 q 398 714 419 744 q 351 678 376 684 q 391 660 371 675 q 425 618 412 644 q 439 556 439 591 q 414 465 439 505 q 344 403 388 426 q 242 381 299 381 q 141 401 183 381 q 76 453 100 422 q 43 511 51 483 l 153 565 q 169 529 157 548 q 199 497 181 510 q 242 484 217 484 q 300 505 279 484 q 321 559 321 526 q 297 611 321 594 q 242 628 274 628 l 231 628 l 231 713 l 245 713 q 292 730 273 713 q 312 776 312 747 q 294 820 312 802 q 243 838 276 838 q 198 826 215 838 q 170 799 180 814 q 158 773 160 783 l 62 818 m 928 535 l 928 217 l 990 217 l 990 113 l 928 113 l 928 0 l 809 0 l 809 113 l 589 113 l 589 207 l 791 535 l 928 535 m 809 217 l 809 381 l 808 381 l 709 217 l 809 217 z "},".":{"ha":422,"x_min":76,"x_max":326,"o":"m 200 -17 q 112 20 149 -17 q 76 108 76 56 q 112 197 76 160 q 200 234 149 234 q 289 197 252 234 q 326 108 326 160 q 289 20 326 56 q 200 -17 252 -17 z "},",":{"ha":402,"x_min":65,"x_max":317,"o":"m 190 234 q 280 198 242 234 q 317 92 317 162 q 291 -28 317 31 q 223 -133 265 -86 q 132 -208 181 -181 l 76 -145 q 128 -111 100 -133 q 178 -62 156 -90 q 211 -3 201 -35 q 173 -11 197 -11 q 98 21 131 -11 q 65 108 65 53 q 102 198 65 161 q 190 234 139 234 z "},":":{"ha":394,"x_min":73,"x_max":323,"o":"m 197 -17 q 109 20 146 -17 q 73 108 73 56 q 109 197 73 160 q 197 234 146 234 q 286 197 249 234 q 323 108 323 160 q 286 20 323 56 q 197 -17 249 -17 m 197 388 q 109 425 146 388 q 73 513 73 461 q 109 602 73 565 q 197 639 146 639 q 286 602 249 639 q 323 513 323 565 q 286 425 323 461 q 197 388 249 388 z "},";":{"ha":398,"x_min":56,"x_max":310,"o":"m 184 388 q 96 425 133 388 q 60 513 60 461 q 96 602 60 565 q 184 639 133 639 q 273 602 236 639 q 310 513 310 565 q 273 425 310 461 q 184 388 236 388 m 181 234 q 271 198 233 234 q 308 92 308 162 q 282 -28 308 31 q 214 -133 256 -86 q 123 -208 172 -181 l 67 -145 q 119 -111 91 -133 q 169 -62 147 -90 q 202 -3 192 -35 q 164 -11 188 -11 q 89 21 122 -11 q 56 108 56 53 q 93 198 56 161 q 181 234 130 234 z "},"…":{"ha":1138,"x_min":58,"x_max":1082,"o":"m 183 -17 q 95 20 131 -17 q 58 108 58 56 q 95 197 58 160 q 183 234 131 234 q 272 197 235 234 q 308 108 308 160 q 272 20 308 56 q 183 -17 235 -17 m 570 -17 q 482 20 519 -17 q 446 108 446 56 q 482 197 446 160 q 570 234 519 234 q 659 197 622 234 q 696 108 696 160 q 659 20 696 56 q 570 -17 622 -17 m 956 -17 q 868 20 905 -17 q 832 108 832 56 q 868 197 832 160 q 956 234 905 234 q 1045 197 1008 234 q 1082 108 1082 160 q 1045 20 1082 56 q 956 -17 1008 -17 z "},"!":{"ha":422,"x_min":76,"x_max":326,"o":"m 131 297 l 89 956 l 313 956 l 271 297 l 131 297 m 200 -17 q 113 20 149 -17 q 76 108 76 56 q 112 197 76 160 q 200 234 149 234 q 290 197 253 234 q 326 108 326 160 q 290 20 326 56 q 200 -17 253 -17 z "},"¡":{"ha":422,"x_min":87,"x_max":338,"o":"m 142 621 l 100 -37 l 324 -37 l 282 621 l 142 621 m 211 935 q 124 898 160 935 q 87 810 87 862 q 123 721 87 758 q 211 684 160 684 q 301 721 264 684 q 338 810 338 758 q 301 898 338 862 q 211 935 264 935 z "},"?":{"ha":670,"x_min":8,"x_max":625,"o":"m 219 297 l 219 428 q 240 504 219 474 q 299 554 262 534 q 370 606 337 575 q 403 681 403 638 q 377 742 403 722 q 302 761 350 761 q 240 744 265 761 q 200 704 215 728 q 178 660 185 681 l 8 728 q 28 773 10 740 q 83 843 46 806 q 181 907 121 880 q 328 933 241 933 q 481 907 413 933 q 586 830 548 880 q 625 713 625 781 q 597 608 625 652 q 529 534 568 565 q 458 484 490 503 q 410 438 423 464 q 398 371 398 412 l 398 297 l 219 297 m 311 -17 q 224 20 260 -17 q 187 108 187 56 q 224 198 187 161 q 311 234 260 234 q 401 198 364 234 q 438 108 438 161 q 401 20 438 56 q 311 -17 364 -17 z "},"¿":{"ha":670,"x_min":26,"x_max":642,"o":"m 432 618 l 432 487 q 410 411 432 442 q 351 361 389 381 q 281 309 314 340 q 247 234 247 278 q 274 174 247 193 q 349 154 301 154 q 410 171 385 154 q 451 211 435 188 q 473 255 466 235 l 642 187 q 623 142 641 175 q 567 73 605 110 q 470 9 530 35 q 323 -18 410 -18 q 170 9 238 -18 q 64 85 103 35 q 26 203 26 135 q 54 307 26 263 q 122 381 83 351 q 193 431 161 412 q 240 477 228 451 q 253 544 253 503 l 253 618 l 432 618 m 340 932 q 427 895 390 932 q 464 807 464 859 q 427 718 464 754 q 340 681 390 681 q 250 718 287 681 q 213 807 213 754 q 250 895 213 859 q 340 932 287 932 z "},"·":{"ha":394,"x_min":73,"x_max":323,"o":"m 197 174 q 109 211 146 174 q 73 299 73 247 q 109 388 73 351 q 197 425 146 425 q 286 388 249 425 q 323 299 323 351 q 286 211 323 247 q 197 174 249 174 z "},"•":{"ha":776,"x_min":163,"x_max":593,"o":"m 377 612 q 486 583 437 612 q 564 505 535 553 q 593 396 593 456 q 564 288 593 337 q 486 211 535 240 q 377 182 437 182 q 269 211 318 182 q 192 289 221 240 q 163 396 163 337 q 192 504 163 455 q 269 582 221 553 q 377 612 318 612 z "},"*":{"ha":576,"x_min":74,"x_max":482,"o":"m 326 824 l 453 865 l 482 777 l 349 733 l 435 628 l 356 572 l 278 674 l 200 571 l 119 628 l 208 733 l 74 777 l 103 865 l 230 824 l 231 956 l 326 956 l 326 824 z "},"#":{"ha":922,"x_min":67,"x_max":834,"o":"m 107 376 l 213 376 l 257 542 l 139 542 l 179 676 l 292 676 l 356 917 l 495 917 l 432 676 l 583 676 l 647 917 l 785 917 l 722 676 l 834 676 l 794 542 l 686 542 l 642 376 l 762 376 l 722 242 l 607 242 l 543 0 l 404 0 l 468 242 l 317 242 l 253 0 l 114 0 l 178 242 l 67 242 l 107 376 m 353 376 l 503 376 l 547 542 l 397 542 l 353 376 z "},"/":{"ha":688,"x_min":22,"x_max":644,"o":"m 479 956 l 644 956 l 185 -133 l 22 -133 l 479 956 z "},"\\":{"ha":688,"x_min":24,"x_max":647,"o":"m 647 0 l 481 0 l 24 956 l 188 956 l 647 0 z "},"(":{"ha":453,"x_min":56,"x_max":390,"o":"m 253 -289 q 165 -147 211 -238 q 88 67 119 -55 q 56 330 56 190 q 76 537 56 438 q 128 720 96 636 q 197 868 160 803 q 268 972 234 933 l 390 917 q 321 792 357 876 q 260 591 285 709 q 235 330 235 474 q 257 81 235 194 q 313 -112 280 -31 q 376 -233 345 -193 l 253 -289 z "},")":{"ha":453,"x_min":45,"x_max":379,"o":"m 182 -289 q 270 -147 224 -238 q 348 67 316 -55 q 379 330 379 190 q 359 537 379 438 q 308 720 340 636 q 239 868 276 803 q 167 972 201 933 l 45 917 q 115 792 78 876 q 176 591 151 709 q 201 330 201 474 q 178 81 201 194 q 123 -112 156 -31 q 60 -233 90 -193 l 182 -289 z "},"{":{"ha":508,"x_min":64,"x_max":424,"o":"m 64 397 q 122 416 101 397 q 142 474 142 435 l 142 770 q 159 859 142 817 q 215 928 176 901 q 318 956 253 956 l 424 956 l 424 804 l 370 804 q 305 736 305 804 l 305 452 q 286 376 305 405 q 222 333 268 348 q 287 288 269 317 q 305 215 305 258 l 305 -69 q 320 -120 305 -102 q 370 -137 335 -137 l 424 -137 l 424 -289 l 318 -289 q 215 -262 253 -289 q 159 -192 176 -235 q 142 -103 142 -150 l 142 193 q 122 251 142 231 q 64 270 101 270 l 64 397 z "},"}":{"ha":530,"x_min":76,"x_max":435,"o":"m 435 397 q 378 416 399 397 q 357 474 357 435 l 357 770 q 340 859 357 817 q 285 928 323 901 q 181 956 247 956 l 76 956 l 76 804 l 129 804 q 194 736 194 804 l 194 452 q 213 376 194 405 q 278 333 231 348 q 212 288 230 317 q 194 215 194 258 l 194 -69 q 180 -120 194 -102 q 129 -137 165 -137 l 76 -137 l 76 -289 l 181 -289 q 285 -262 247 -289 q 340 -192 323 -235 q 357 -103 357 -150 l 357 193 q 378 251 357 231 q 435 270 399 270 l 435 397 z "},"[":{"ha":500,"x_min":63,"x_max":417,"o":"m 63 -289 l 63 956 l 417 956 l 417 808 l 226 808 l 226 -141 l 417 -141 l 417 -289 l 63 -289 z "},"]":{"ha":500,"x_min":63,"x_max":417,"o":"m 417 -289 l 417 956 l 63 956 l 63 808 l 254 808 l 254 -141 l 63 -141 l 63 -289 l 417 -289 z "},"-":{"ha":525,"x_min":74,"x_max":431,"o":"m 74 227 l 74 404 l 431 404 l 431 227 l 74 227 z "},"­":{"ha":525,"x_min":74,"x_max":431,"o":"m 74 227 l 74 404 l 431 404 l 431 227 l 74 227 z "},"–":{"ha":618,"x_min":0,"x_max":599,"o":"m 0 227 l 0 404 l 599 404 l 599 227 l 0 227 z "},"—":{"ha":1190,"x_min":-12,"x_max":1182,"o":"m -12 227 l -12 404 l 1182 404 l 1182 227 l -12 227 z "},"_":{"ha":585,"x_min":7,"x_max":574,"o":"m 7 -135 l 7 -17 l 574 -17 l 574 -135 l 7 -135 z "},"‚":{"ha":342,"x_min":54,"x_max":306,"o":"m 179 234 q 269 198 231 234 q 306 92 306 162 q 280 -28 306 31 q 212 -133 254 -86 q 121 -208 170 -181 l 65 -145 q 117 -111 89 -133 q 167 -62 144 -90 q 200 -3 190 -35 q 162 -11 186 -11 q 87 21 120 -11 q 54 108 54 53 q 91 198 54 161 q 179 234 128 234 z "},"„":{"ha":662,"x_min":54,"x_max":606,"o":"m 479 234 q 569 198 531 234 q 606 92 606 162 q 580 -28 606 31 q 512 -133 554 -86 q 421 -208 470 -181 l 365 -145 q 417 -111 389 -133 q 467 -62 444 -90 q 500 -3 490 -35 q 462 -11 486 -11 q 387 21 420 -11 q 354 108 354 53 q 391 198 354 161 q 479 234 428 234 m 179 234 q 269 198 231 234 q 306 92 306 162 q 280 -28 306 31 q 212 -133 254 -86 q 121 -208 170 -181 l 65 -145 q 117 -111 89 -133 q 167 -62 144 -90 q 200 -3 190 -35 q 162 -11 186 -11 q 87 21 120 -11 q 54 108 54 53 q 91 198 54 161 q 179 234 128 234 z "},"“":{"ha":717,"x_min":83,"x_max":652,"o":"m 525 533 q 435 570 471 533 q 399 683 399 608 q 423 795 399 746 q 486 880 447 845 q 568 935 524 915 l 617 892 q 574 864 601 884 q 525 815 547 844 q 503 756 503 787 q 525 767 509 763 q 558 772 542 772 q 622 745 592 772 q 652 663 652 718 q 616 568 652 603 q 525 533 579 533 m 210 533 q 119 570 156 533 q 83 683 83 608 q 108 795 83 746 q 170 880 132 845 q 253 935 209 915 l 302 892 q 258 864 285 884 q 209 815 231 844 q 188 756 188 787 q 210 767 194 763 q 242 772 226 772 q 307 745 277 772 q 337 663 337 718 q 300 568 337 603 q 210 533 264 533 z "},"”":{"ha":717,"x_min":52,"x_max":621,"o":"m 179 933 q 269 895 233 933 q 306 783 306 858 q 281 670 306 720 q 218 586 257 621 q 136 531 180 551 l 87 574 q 131 602 103 582 q 180 651 158 622 q 201 710 201 679 q 179 699 195 703 q 147 694 163 694 q 82 721 112 694 q 52 803 52 748 q 89 898 52 863 q 179 933 125 933 m 494 933 q 585 895 549 933 q 621 783 621 858 q 597 670 621 720 q 534 586 572 621 q 451 531 495 551 l 402 574 q 446 602 419 582 q 495 651 473 622 q 517 710 517 679 q 494 699 510 703 q 462 694 478 694 q 397 721 427 694 q 367 803 367 748 q 404 898 367 863 q 494 933 440 933 z "},"‘":{"ha":335,"x_min":50,"x_max":303,"o":"m 176 533 q 86 570 122 533 q 50 683 50 608 q 74 795 50 746 q 137 880 99 845 q 219 935 176 915 l 269 892 q 225 864 252 884 q 176 815 198 844 q 154 756 154 787 q 177 767 160 763 q 209 772 193 772 q 274 745 244 772 q 303 663 303 718 q 267 568 303 603 q 176 533 231 533 z "},"’":{"ha":335,"x_min":19,"x_max":273,"o":"m 147 936 q 237 898 201 936 q 273 786 273 860 q 249 673 273 723 q 186 589 224 624 q 103 534 147 553 l 54 577 q 98 605 71 585 q 147 653 125 625 q 169 713 169 682 q 146 701 163 706 q 114 697 130 697 q 49 724 79 697 q 19 806 19 751 q 56 901 19 866 q 147 936 92 936 z "},"«":{"ha":700,"x_min":31,"x_max":626,"o":"m 349 112 l 248 33 l 31 309 l 248 585 l 349 506 l 194 309 l 349 112 m 626 112 l 524 33 l 309 309 l 524 585 l 626 506 l 472 309 l 626 112 z "},"»":{"ha":700,"x_min":54,"x_max":649,"o":"m 331 112 l 432 33 l 649 309 l 432 585 l 331 506 l 485 309 l 331 112 m 54 112 l 156 33 l 371 309 l 156 585 l 54 506 l 208 309 l 54 112 z "},"‹":{"ha":428,"x_min":34,"x_max":351,"o":"m 351 112 l 251 33 l 34 309 l 251 585 l 351 506 l 197 309 l 351 112 z "},"›":{"ha":428,"x_min":56,"x_max":373,"o":"m 56 112 l 156 33 l 373 309 l 156 585 l 56 506 l 210 309 l 56 112 z "},"\"":{"ha":567,"x_min":58,"x_max":490,"o":"m 151 933 q 216 907 188 933 q 244 850 244 881 l 244 845 q 238 797 244 831 q 219 717 231 763 q 194 622 208 671 q 169 531 181 573 l 112 531 q 93 622 103 573 q 76 717 84 671 q 63 797 67 763 q 58 845 58 831 l 58 850 q 86 907 58 881 q 151 933 114 933 m 396 933 q 461 907 433 933 q 490 850 490 881 l 490 845 q 482 797 490 831 q 464 717 475 763 q 439 622 452 671 q 414 531 426 573 l 356 531 q 339 622 348 573 q 321 717 329 671 q 308 797 313 763 q 303 845 303 831 l 303 850 q 331 907 303 881 q 396 933 358 933 z "},"'":{"ha":335,"x_min":64,"x_max":251,"o":"m 157 933 q 223 906 195 933 q 251 826 251 878 q 226 680 251 759 q 176 531 201 601 l 118 531 q 82 680 100 599 q 64 826 64 761 q 92 906 64 878 q 157 933 120 933 z "}," ":{"ha":367,"x_min":0,"x_max":0,"o":""}," ":{"ha":367,"x_min":0,"x_max":0,"o":""},"\r":{"ha":833,"x_min":0,"x_max":0,"o":""},"₵":{"ha":808,"x_min":28,"x_max":724,"o":"m 724 690 q 659 725 706 705 q 521 745 613 745 q 376 709 439 745 q 277 609 313 674 q 242 459 242 544 q 277 309 242 373 q 375 209 312 244 q 521 173 438 173 q 659 192 612 173 q 724 224 706 210 l 724 18 q 638 -7 695 3 q 521 -17 581 -17 q 251 47 361 -17 q 85 217 142 110 q 28 459 28 325 q 89 700 28 593 q 261 870 150 808 q 521 933 372 933 q 638 925 585 933 q 724 897 690 917 l 724 690 m 558 -176 l 373 -176 l 373 985 l 558 985 l 558 -176 z "},"¢":{"ha":591,"x_min":37,"x_max":563,"o":"m 367 147 q 433 160 407 147 q 467 183 458 174 l 563 41 q 506 10 548 29 q 401 -15 464 -9 l 401 -143 l 283 -143 l 283 -9 q 104 90 171 12 q 37 285 37 167 q 104 481 37 403 q 283 579 171 558 l 283 707 l 401 707 l 401 585 q 506 560 463 579 q 563 528 549 541 l 466 386 q 433 408 458 392 q 367 424 408 424 q 275 385 315 424 q 235 285 235 346 q 275 186 235 225 q 367 147 315 147 z "},"₡":{"ha":808,"x_min":28,"x_max":856,"o":"m 547 960 l 676 960 l 659 921 q 707 906 686 915 l 728 956 l 856 956 l 527 173 q 661 192 615 174 q 724 224 706 211 l 724 18 q 638 -7 695 3 q 521 -17 581 -17 q 449 -13 484 -17 l 399 -133 l 271 -133 l 331 12 q 284 31 307 20 l 217 -128 l 90 -128 l 183 94 q 68 253 107 159 q 28 459 28 348 q 89 700 28 593 q 261 870 150 808 q 521 933 372 933 q 535 933 528 933 l 547 960 m 363 216 q 408 193 383 203 l 634 733 q 583 742 610 738 l 363 216 m 242 459 q 275 313 242 377 l 453 738 q 300 644 358 718 q 242 459 242 569 z "},"¤":{"ha":724,"x_min":22,"x_max":706,"o":"m 364 94 q 192 137 267 94 l 105 51 l 22 133 l 102 215 q 58 297 74 251 q 43 394 43 342 q 100 574 43 496 l 22 652 l 105 735 l 188 652 q 364 698 265 698 q 540 652 463 698 l 623 735 l 706 652 l 626 572 q 681 394 681 495 q 625 215 681 292 l 706 133 l 623 51 l 536 138 q 364 94 460 94 m 364 266 q 452 302 419 266 q 484 395 484 338 q 452 490 484 453 q 364 526 419 526 q 275 490 308 526 q 242 395 242 453 q 275 302 242 338 q 364 266 308 266 z "},"$":{"ha":776,"x_min":19,"x_max":708,"o":"m 323 1065 l 441 1065 l 441 931 q 564 907 511 925 q 649 872 617 890 q 689 847 681 853 l 590 682 q 552 707 579 691 q 489 735 525 722 q 413 747 452 747 q 325 728 358 747 q 292 670 292 709 q 332 603 292 631 q 457 544 372 576 q 582 481 524 519 q 673 387 639 443 q 708 253 708 331 q 672 119 708 174 q 575 32 635 65 q 441 -11 514 0 l 441 -143 l 323 -143 l 323 -15 q 174 11 239 -10 q 68 54 108 32 q 19 85 28 76 l 122 256 q 171 227 133 248 q 261 189 210 207 q 365 172 313 172 q 462 197 429 172 q 494 263 494 222 q 449 341 494 310 q 312 408 403 373 q 199 467 251 433 q 114 553 147 501 q 81 683 81 606 q 114 800 81 749 q 201 883 147 851 q 323 928 256 916 l 323 1065 z "},"₫":{"ha":774,"x_min":31,"x_max":768,"o":"m 710 0 l 710 956 l 503 956 l 503 486 q 470 529 497 506 q 401 570 444 553 q 303 587 358 587 q 160 546 221 587 q 65 437 99 506 q 31 285 31 368 q 65 132 31 201 q 160 24 99 64 q 303 -17 221 -17 q 391 0 350 -17 q 461 42 431 17 q 505 93 491 67 l 505 0 l 710 0 m 235 285 q 274 384 235 344 q 367 424 312 424 q 464 384 425 424 q 503 285 503 344 q 464 186 503 225 q 367 147 425 147 q 274 185 312 147 q 235 285 235 224 m 96 -185 l 96 -55 l 547 -55 l 547 -185 l 96 -185 m 317 706 l 317 836 l 768 836 l 768 706 l 317 706 z "},"€":{"ha":910,"x_min":10,"x_max":869,"o":"m 10 421 l 81 421 q 80 457 80 439 q 81 494 80 476 l 10 494 l 10 606 l 103 606 q 204 777 135 703 q 367 892 273 851 q 571 933 462 933 q 758 905 679 933 q 869 849 837 876 l 782 675 q 703 712 756 693 q 586 731 650 731 q 435 696 497 731 q 341 606 374 661 l 701 606 l 701 494 l 303 494 q 302 459 302 476 q 304 421 302 440 l 701 421 l 701 308 l 342 308 q 437 220 376 254 q 586 186 498 186 q 703 205 650 186 q 782 242 756 224 l 869 68 q 758 12 837 40 q 571 -17 679 -17 q 368 24 463 -17 q 205 139 274 65 q 103 308 135 212 l 10 308 l 10 421 z "},"ƒ":{"ha":489,"x_min":-178,"x_max":579,"o":"m -27 -301 q -135 -286 -95 -301 q -178 -267 -174 -271 l -84 -106 q -69 -116 -81 -108 q -34 -124 -56 -124 q 14 -106 -10 -124 q 46 -31 38 -87 l 106 399 l 11 399 l 35 570 l 130 570 l 151 721 q 206 860 163 804 q 308 944 249 916 q 428 972 367 972 q 536 957 497 972 q 579 938 576 942 l 485 778 q 470 788 483 781 q 435 796 458 796 q 388 778 412 796 q 356 703 364 760 l 338 570 l 463 570 l 439 399 l 313 399 l 251 -49 q 196 -189 239 -133 q 93 -273 153 -244 q -27 -301 33 -301 z "},"₣":{"ha":665,"x_min":-13,"x_max":592,"o":"m -13 274 l 64 274 l 64 917 l 592 917 l 592 738 l 268 738 l 268 549 l 567 549 l 567 370 l 268 370 l 268 274 l 451 274 l 451 147 l 268 147 l 268 0 l 64 0 l 64 147 l -13 147 l -13 274 z "},"₲":{"ha":1030,"x_min":28,"x_max":959,"o":"m 492 512 l 959 512 l 959 454 q 926 270 959 356 q 832 120 892 185 q 686 19 771 56 q 499 -17 601 -17 q 307 20 393 -17 q 158 122 220 57 q 62 273 96 187 q 28 459 28 360 q 62 644 28 558 q 158 795 96 731 q 307 897 220 860 q 499 933 393 933 q 693 901 614 933 q 822 820 772 869 q 901 724 872 772 l 708 633 q 630 709 679 676 q 499 742 580 742 q 365 703 423 742 q 274 600 307 665 q 242 459 242 536 q 274 317 242 381 q 365 214 307 253 q 499 176 423 176 q 660 226 599 176 q 728 356 722 276 l 492 356 l 492 512 m 581 -176 l 396 -176 l 396 985 l 581 985 l 581 -176 z "},"₭":{"ha":801,"x_min":-10,"x_max":777,"o":"m 428 474 l 777 0 l 533 0 l 249 401 l 249 0 l 44 0 l 44 917 l 249 917 l 249 540 l 510 917 l 742 917 l 428 474 m -10 394 l -10 524 l 761 524 l 761 394 l -10 394 z "},"₤":{"ha":850,"x_min":45,"x_max":789,"o":"m 58 380 l 210 380 q 181 438 197 408 q 180 438 180 438 l 58 438 l 58 524 l 142 524 q 127 585 133 552 q 120 652 120 617 q 155 795 120 731 q 258 897 190 859 q 428 935 327 935 q 587 901 523 935 q 686 819 651 867 q 732 725 722 770 l 564 641 q 545 699 560 669 q 503 750 531 729 q 436 772 476 772 q 350 737 379 772 q 320 644 320 702 q 327 585 320 617 q 343 524 334 553 l 578 524 l 578 438 l 375 438 l 376 438 q 397 380 389 406 l 578 380 l 578 294 l 414 294 q 415 269 415 282 q 407 214 415 240 q 397 183 399 188 q 436 170 415 181 q 485 149 458 160 q 544 139 511 139 q 588 152 570 139 q 614 183 605 166 q 624 207 622 199 l 789 147 q 752 74 780 112 q 680 9 725 35 q 569 -17 634 -17 q 478 -7 518 -17 q 405 17 439 3 q 338 40 372 30 q 263 49 304 49 q 216 31 235 49 q 192 0 197 13 l 45 0 q 72 99 47 55 q 138 168 97 142 q 228 194 179 194 q 240 222 235 206 q 244 263 244 238 q 241 294 244 276 l 58 294 l 58 380 z "},"₺":{"ha":679,"x_min":-19,"x_max":679,"o":"m -19 283 l -19 411 l 64 438 l 64 519 l -19 492 l -19 621 l 64 648 l 64 917 l 269 917 l 269 715 l 513 794 l 513 666 l 269 586 l 269 505 l 513 585 l 513 456 l 269 376 l 269 179 q 448 226 389 179 q 507 379 507 274 l 679 379 q 580 93 679 186 q 284 0 480 0 l 64 0 l 64 309 l -19 283 z "},"₼":{"ha":823,"x_min":51,"x_max":752,"o":"m 51 0 l 51 556 q 123 759 51 680 q 339 852 194 838 l 339 956 l 466 956 l 466 852 q 681 759 610 838 q 752 556 752 680 l 752 0 l 547 0 l 547 533 q 527 622 547 585 q 466 674 507 658 l 466 0 l 339 0 l 339 674 q 276 622 297 658 q 256 533 256 585 l 256 0 l 51 0 z "},"₦":{"ha":1003,"x_min":-18,"x_max":986,"o":"m 622 0 l 263 700 l 263 0 l 58 0 l 58 917 l 338 917 l 698 220 l 698 917 l 902 917 l 902 0 l 622 0 m -18 394 l -18 524 l 986 524 l 986 394 l -18 394 z "},"₧":{"ha":767,"x_min":-13,"x_max":768,"o":"m 60 917 l 391 917 q 550 886 478 917 q 663 792 621 855 q 705 635 705 730 q 663 475 705 541 q 550 376 621 410 q 391 342 478 342 l 265 342 l 265 0 l 60 0 l 60 917 m 265 503 l 334 503 q 442 532 398 503 q 486 631 486 561 q 442 727 486 699 q 334 755 398 755 l 265 755 l 265 503 m -13 582 l -13 677 l 768 677 l 768 582 l -13 582 z "},"₱":{"ha":767,"x_min":-2,"x_max":767,"o":"m -2 456 l -2 544 l 60 544 l 60 589 l -2 589 l -2 676 l 60 676 l 60 917 l 391 917 q 586 855 500 917 q 701 676 672 793 l 767 676 l 767 589 l 713 589 q 713 572 713 581 q 712 544 713 558 l 767 544 l 767 456 l 698 456 q 582 278 667 342 q 391 215 498 215 l 265 215 l 265 0 l 60 0 l 60 456 l -2 456 m 265 755 l 265 676 l 471 676 q 413 736 449 717 q 334 755 376 755 l 265 755 m 494 567 q 493 589 494 578 l 265 589 l 265 544 l 493 544 q 494 567 494 555 m 265 377 l 334 377 q 412 396 376 377 q 470 456 449 415 l 265 456 l 265 377 z "},"₽":{"ha":767,"x_min":-37,"x_max":705,"o":"m 60 917 l 391 917 q 550 886 478 917 q 663 792 621 855 q 705 635 705 730 q 663 475 705 541 q 550 376 621 410 q 391 342 478 342 l 265 342 l 265 0 l 60 0 l 60 917 m 265 503 l 334 503 q 442 532 398 503 q 486 631 486 561 q 442 727 486 699 q 334 755 398 755 l 265 755 l 265 503 m -37 357 l -37 487 l 395 487 l 395 357 l -37 357 m -37 133 l -37 263 l 395 263 l 395 133 l -37 133 z "},"₹":{"ha":819,"x_min":96,"x_max":732,"o":"m 96 317 l 96 435 l 281 435 q 388 462 344 435 q 449 543 432 488 l 97 543 l 97 669 l 449 669 q 391 751 434 724 q 283 778 347 778 l 97 778 l 97 917 l 732 917 l 732 792 l 591 792 q 636 669 626 738 l 732 669 l 732 543 l 633 543 q 530 385 612 438 q 328 321 449 333 l 651 0 l 415 0 l 96 317 z "},"£":{"ha":850,"x_min":45,"x_max":789,"o":"m 58 449 l 174 449 q 139 535 158 480 q 120 652 120 590 q 155 795 120 731 q 258 897 190 859 q 428 935 327 935 q 587 901 523 935 q 686 819 651 867 q 732 725 722 770 l 564 641 q 545 699 560 669 q 503 750 531 729 q 436 772 476 772 q 350 737 379 772 q 320 644 320 702 q 329 575 320 613 q 350 504 338 538 q 371 449 362 470 l 578 449 l 578 331 l 409 331 q 415 269 415 301 q 407 214 415 240 q 397 183 399 188 q 436 170 415 181 q 485 149 458 160 q 544 139 511 139 q 588 152 570 139 q 614 183 605 166 q 624 207 622 199 l 789 147 q 752 74 780 112 q 680 9 725 35 q 569 -17 634 -17 q 478 -7 518 -17 q 405 17 439 3 q 338 40 372 30 q 263 49 304 49 q 216 31 235 49 q 192 0 197 13 l 45 0 q 72 99 47 55 q 138 168 97 142 q 228 194 179 194 q 240 222 235 206 q 244 263 244 238 q 230 331 244 290 l 58 331 l 58 449 z "}}}
